<svg id="Layer_1" data-name="Layer 1" xmlns="http://www.w3.org/2000/svg" viewBox="0 0 1000 1000"><defs><style>.cls-1{fill:#666538;}.cls-2{fill:#f98638;}.cls-3{fill:#f4ece5;}.cls-4{fill:#ffaa9f;}.cls-5{fill:#deb8fc;}.cls-6{fill:#2b3d0a;}.cls-7{fill:#ad4d4d;}.cls-8{fill:#353519;}.cls-9{fill:#bab653;}.cls-10{fill:#e9cf81;}</style></defs><path class="cls-1" d="M166,551l11.15,26.74,11.15,26.74a37.14,37.14,0,0,0,12.29,15.61l4.76,3.48,4.75,3.48a6.08,6.08,0,0,0,9.45-3.27l1.44-5.16,1.44-5.17a7.3,7.3,0,0,1,.44-1.18,5.32,5.32,0,0,1,.68-1.06,4.48,4.48,0,0,1,1.94-1.41,4.56,4.56,0,0,1,2.22-.25,7.13,7.13,0,0,1,1.47.37,6.42,6.42,0,0,1,1.6.85,8.64,8.64,0,0,1,.89.76,9.68,9.68,0,0,1,2.28,3.88,18.61,18.61,0,0,1,.81,3.78c.1.89.19,1.78.29,2.66s.2,1.77.32,2.66q.59,4.61,1.18,9.21c.39,3.07.79,6.14,1.18,9.21a25.57,25.57,0,0,0,10.5,17.56l5.26,3.76,5.25,3.76a13.8,13.8,0,0,0,21.41-7.83h0a6.94,6.94,0,0,1,.51-1.38,5.3,5.3,0,0,1,.83-1.21,5.16,5.16,0,0,1,.88-.78,4.86,4.86,0,0,1,4-.74,8.47,8.47,0,0,1,1.87.71,7.75,7.75,0,0,1,2.69,2.28,10.85,10.85,0,0,1,1.47,2.75,12.94,12.94,0,0,1,.53,1.94,15.27,15.27,0,0,1,.23,2c.2,4.35.5,8.19.82,11.84s.68,7.12,1,10.76a28.12,28.12,0,0,0,11.3,20.12l7.1,5.24,7.1,5.24a19.75,19.75,0,0,0,28.09-4.82l7.26-10.72,7.26-10.73-98.54-70.85Z"/><path class="cls-2" d="M588.92,744.09c0,23.39-11.74,44.57-30.72,59.9S513,828.8,484,828.8s-55.18-9.48-74.16-24.81-30.72-36.51-30.72-59.9,11.74-44.58,30.72-59.91,45.2-24.81,74.16-24.81,55.19,9.48,74.17,24.81S588.92,720.69,588.92,744.09Z"/><path class="cls-3" d="M645.2,748.48a116.24,116.24,0,0,1-22.53,11.6,108.35,108.35,0,0,1-24.53,6.28,153.07,153.07,0,0,1-29.22.8c-9.68-.57-19.35-1.75-29.11-2.9-27.12-3.21-54.88-3-82.49-.45a676.5,676.5,0,0,0-81.63,13,204,204,0,0,1-67.41,3.4c-22.66-2.82-44.6-10-63.09-23l-12.27,31-12.27,31.05a270.66,270.66,0,0,0,39.22,21.13,292.6,292.6,0,0,0,42,14.64,238.47,238.47,0,0,0,24.07,5.13,193.42,193.42,0,0,0,24.5,2.32c1.53,0,10.65.09,19.36-.26s17-1.08,16.94-2.6l1.43,23.12,1.44,23.12H577.68V859.11c0,.23,3.43,0,7-.24s7.14-.61,7.5-.66a144.39,144.39,0,0,0,19-3.8,168.47,168.47,0,0,0,18.37-6.15A185.92,185.92,0,0,0,675.89,821,246.64,246.64,0,0,0,714,782.94c2.05-2.52,4-5.08,6-7.67s3.89-5.2,5.78-7.83l-24.11-25.31-24.11-25.31A137.74,137.74,0,0,1,663,733.94,116.25,116.25,0,0,1,645.2,748.48Z"/><path class="cls-4" d="M777.81,659a7.15,7.15,0,0,0-2.67-1.44,9.59,9.59,0,0,0-2.47-.39,8.89,8.89,0,0,0-1.39-5.42,7.54,7.54,0,0,0-4.1-3.18,7.77,7.77,0,0,0-6.23.87,8.81,8.81,0,0,0-4.05,5.5,9.29,9.29,0,0,0-5.52-1.49c-3.12.21-7,2.36-9.86,10.09-.39,1-.79,2.08-1.22,3.12s-.86,2-1.34,3.06a135.29,135.29,0,0,1-6.42,12,70,70,0,0,1-9.68,12.81,6.23,6.23,0,0,1-5.28,1.73,6.74,6.74,0,0,1-4.73-3,5.7,5.7,0,0,1-.66-4.7A40.55,40.55,0,0,1,714,683.9a54.75,54.75,0,0,0,3.3-9.85c.67-3.68.31-7.17-2.92-8.77-3.42-1.7-6.29-.26-8.59,2.22a33.41,33.41,0,0,0-5.15,8.45c-3.35,7.23-6.84,14.32-10.63,21.17a192.85,192.85,0,0,1-12.4,19.7l24.11,25.31,24.11,25.31c4.32-6,8.48-12.1,12.58-18.26s8.13-12.35,12.18-18.53a283.46,283.46,0,0,0,15.69-27A265.51,265.51,0,0,0,778.77,675l.11-.27a2.31,2.31,0,0,1,.1-.28,25.55,25.55,0,0,0,.94-3.17,21.29,21.29,0,0,0,.5-3.28,17,17,0,0,0-.15-4.42A7.87,7.87,0,0,0,777.81,659Z"/><path class="cls-5" d="M386.7,859.7l9.86-10.92,9.86-10.93V770.73q3.48-.66,7.06-1.26t7.24-1.19q5.13-.79,10.12-1.47c3.33-.45,6.6-.86,9.83-1.23v56.69a16.1,16.1,0,0,0,16.09,16.1h52.08a16.1,16.1,0,0,0,16.09-16.1V762.84c2.72.22,5.47.44,8.24.69s5.57.52,8.39.8c3.27.34,6.51.69,9.7,1.06s6.35.75,9.46,1.15v71.83l8.48,10.37,8.48,10.37v46.83H389.57l-1.44-23.12Z"/><path class="cls-6" d="M438.9,744.51a13.9,13.9,0,1,1-4.07-9.83A13.83,13.83,0,0,1,438.9,744.51Z"/><path class="cls-6" d="M412.47,739.32a13.9,13.9,0,1,1-4.07-9.83A13.89,13.89,0,0,1,412.47,739.32Z"/><path class="cls-6" d="M526.36,742.77a13.9,13.9,0,1,0,3.47-10.06A13.9,13.9,0,0,0,526.36,742.77Z"/><path class="cls-6" d="M552.43,736a13.9,13.9,0,1,0,3.47-10.06A13.84,13.84,0,0,0,552.43,736Z"/><path class="cls-6" d="M579.89,732.48l14.77,4.33,14.78,4.33a2,2,0,0,0,2-.48,2,2,0,0,0,.57-1.94l-3.63-15-3.64-15a2,2,0,0,0-3.36-1L590.2,718.44l-11.14,10.63a2,2,0,0,0,.83,3.41Z"/><path class="cls-6" d="M386.5,739.07l-14.12,6.13-14.12,6.13a2,2,0,0,1-2.82-2.08l1.75-15.3,1.75-15.29a2,2,0,0,1,3.21-1.4l12.38,9.16,12.37,9.16a2,2,0,0,1,.8,1.86A2,2,0,0,1,386.5,739.07Z"/><path class="cls-2" d="M425.2,868.82a12.72,12.72,0,1,1,9-3.72A12.64,12.64,0,0,1,425.2,868.82Zm0-20.4a7.72,7.72,0,1,0,5.45,2.26A7.65,7.65,0,0,0,425.2,848.42Z"/><path class="cls-2" d="M543.4,868.82a12.72,12.72,0,1,1,9-3.72A12.64,12.64,0,0,1,543.4,868.82Zm0-20.4a7.72,7.72,0,1,0,5.45,2.26A7.65,7.65,0,0,0,543.4,848.42Z"/><path class="cls-7" d="M739.51,698.08a1.33,1.33,0,0,1-.34-.05,1.66,1.66,0,0,1-.33-.15,1.29,1.29,0,0,1-.55-.79,1.27,1.27,0,0,1,.17-.94q2.77-4.3,5.19-8.84c1.62-3,3.11-6.09,4.47-9.21A129.1,129.1,0,0,0,756,653.62a1.24,1.24,0,0,1,.54-.79,1.28,1.28,0,0,1,.94-.17,1.22,1.22,0,0,1,.79.54,1.27,1.27,0,0,1,.17.94c-.92,4.28-2.05,8.52-3.39,12.69a129.38,129.38,0,0,1-4.64,12.27c-1.38,3.18-2.91,6.32-4.55,9.39s-3.42,6.09-5.29,9a1.21,1.21,0,0,1-.47.43A1.32,1.32,0,0,1,739.51,698.08Z"/><path class="cls-7" d="M752.17,704.49a1,1,0,0,1-.35,0,1,1,0,0,1-.33-.15,1.21,1.21,0,0,1-.54-.79,1.22,1.22,0,0,1,.17-.94c1.92-3,3.75-6,5.46-9.11s3.31-6.27,4.78-9.48q3-6.42,5.3-13.14c1.55-4.47,2.89-9,4-13.61a1.24,1.24,0,0,1,.57-.78,1.26,1.26,0,0,1,1.71.42,1.24,1.24,0,0,1,.15.95q-1.7,7-4.07,13.84c-1.58,4.54-3.38,9-5.38,13.37q-2.25,4.89-4.87,9.64c-1.74,3.16-3.6,6.25-5.55,9.26a1.26,1.26,0,0,1-.46.43A1.38,1.38,0,0,1,752.17,704.49Z"/><path class="cls-4" d="M238.66,752.33a92.86,92.86,0,0,1-11.61-11.41c-3.51-4-6.76-8.35-10-12.79a92.85,92.85,0,0,0-7.79-9.8c-3.45-3.62-7.38-6.52-10.65-5.49a4.15,4.15,0,0,0-1.63,1,4.74,4.74,0,0,0-1.11,1.55,8.6,8.6,0,0,0-.63,4.39,19.2,19.2,0,0,0,2.63,7.6,28,28,0,0,0,1.69,2.63c.61.85,1.25,1.67,1.9,2.48a17.61,17.61,0,0,1,1.22,1.73,15.93,15.93,0,0,1,.79,1.45,15.65,15.65,0,0,1,1.09,2.63,2.76,2.76,0,0,1-.16,2.36,2.15,2.15,0,0,1-1.12.78,5.08,5.08,0,0,1-1,.19c-4.17.39-9.85-3.89-14.48-8.28a98.4,98.4,0,0,1-8.22-8.87c-.63-.76-4.45-5.35-8.84-9.8s-9.37-8.76-12.31-9a5.79,5.79,0,0,0-2.17.26,3.94,3.94,0,0,0-.83.36,5.42,5.42,0,0,0-2.22,3.37,11.59,11.59,0,0,0-.34,2.89,9.4,9.4,0,0,0-2.35-.46,5,5,0,0,0-3,.7,6.11,6.11,0,0,0-2.39,4.85,12.78,12.78,0,0,0,2,7.41,4,4,0,0,0-2.89,2.52c-.94,2.25-.87,6.48,3.16,14.41a203.39,203.39,0,0,0,31.91,43.27,235.58,235.58,0,0,0,41.41,34.09l12.27-31.05,12.27-31c-1.11-.78-2.21-1.58-3.3-2.39S239.72,753.19,238.66,752.33Z"/><path class="cls-6" d="M246,835.18l-.19,0a.73.73,0,0,1-.2,0,1.17,1.17,0,0,1-.72-.62,1.2,1.2,0,0,1-.08-1l10.5-32.31,10.51-32.31a1.22,1.22,0,0,1,.62-.73,1.21,1.21,0,0,1,1-.07,1.19,1.19,0,0,1,.73.62,1.24,1.24,0,0,1,.08,1L257.65,802l-10.5,32.31a1.24,1.24,0,0,1-.46.63A1.27,1.27,0,0,1,246,835.18Z"/><path class="cls-7" d="M185.8,751.08a1.19,1.19,0,0,1-.37-.06,1.22,1.22,0,0,1-.36-.18c-5-3.59-13-12.66-20-21s-12.78-15.92-13.25-16.54a1.25,1.25,0,1,1,2-1.52c.12.15,5.89,7.67,12.83,16s15.07,17.53,19.9,21a1.22,1.22,0,0,1,.5.81,1.25,1.25,0,0,1-.22.93,1.29,1.29,0,0,1-.45.39A1.25,1.25,0,0,1,185.8,751.08Z"/><path class="cls-7" d="M178.28,761.91a1.17,1.17,0,0,1-.45-.09,1.19,1.19,0,0,1-.41-.26c-2.45-2.32-4.87-4.71-7.24-7.14s-4.69-4.91-7-7.42q-4.56-5.06-8.87-10.38t-8.31-10.84a1.25,1.25,0,0,1-.22-.93,1.24,1.24,0,0,1,.5-.81,1.22,1.22,0,0,1,.93-.23,1.28,1.28,0,0,1,.81.5c2.64,3.64,5.39,7.23,8.23,10.73s5.78,7,8.78,10.28q3.36,3.73,6.89,7.35c2.35,2.41,4.75,4.78,7.17,7.08a1.26,1.26,0,0,1,.05,1.77,1.32,1.32,0,0,1-.42.29A1.38,1.38,0,0,1,178.28,761.91Z"/><path class="cls-6" d="M706.8,792.73a1.3,1.3,0,0,1-.51-.11,1.21,1.21,0,0,1-.43-.32l-23.59-27.14L658.67,738a1.29,1.29,0,0,1-.3-.91,1.25,1.25,0,0,1,2.19-.73l23.59,27.14,23.6,27.14a1.29,1.29,0,0,1,.3.91,1.21,1.21,0,0,1-.43.85,1.12,1.12,0,0,1-.39.23A1.06,1.06,0,0,1,706.8,792.73Z"/><path class="cls-4" d="M525.84,741.18A44,44,0,1,1,513,710.09,43.81,43.81,0,0,1,525.84,741.18Z"/><path class="cls-6" d="M467.67,726.49a2.73,2.73,0,1,1-.8-1.91A2.71,2.71,0,0,1,467.67,726.49Z"/><path class="cls-6" d="M495.44,726.49a2.71,2.71,0,1,1-.79-1.91A2.71,2.71,0,0,1,495.44,726.49Z"/><path class="cls-7" d="M479.75,752.7a11.31,11.31,0,0,1-4.1-.78,11.68,11.68,0,0,1-3.62-2.25,11.91,11.91,0,0,1-3.94-8.44,1.25,1.25,0,0,1,.33-.9,1.31,1.31,0,0,1,.87-.4,1.16,1.16,0,0,1,.9.33,1.32,1.32,0,0,1,.4.88,9.27,9.27,0,0,0,.87,3.65,9.58,9.58,0,0,0,2.25,3,9.1,9.1,0,0,0,3.07,1.86,8.43,8.43,0,0,0,3.47.51,8.91,8.91,0,0,0,5.94-2.84,9.51,9.51,0,0,0,2.59-6.21,1.29,1.29,0,0,1,.4-.88,1.18,1.18,0,0,1,.89-.33,1.26,1.26,0,0,1,1.21,1.29,12,12,0,0,1-3.3,7.87,11.44,11.44,0,0,1-7.57,3.59l-.33,0Z"/><path class="cls-6" d="M466.82,714.27a34.45,34.45,0,0,0,9-5,35.36,35.36,0,0,0,5.16-4.91,31.07,31.07,0,0,0,4.93,5.29,28.91,28.91,0,0,0,10,5.56,28.48,28.48,0,0,0,11.68,1.15,33,33,0,0,0,8.9-2.27,44.15,44.15,0,0,0-15.05-12.26,44,44,0,0,0-39.89.41,44.29,44.29,0,0,0-15.32,13.29,37.82,37.82,0,0,0,8.93,1A34.44,34.44,0,0,0,466.82,714.27Z"/><polygon class="cls-5" points="482.18 487.97 425.37 495.18 368.57 502.39 351.81 370.42 335.06 238.44 391.87 231.23 448.68 224.02 465.43 356 482.18 487.97"/><polygon class="cls-5" points="563.63 462.33 522.91 475.15 482.18 487.97 465.43 356 448.68 224.02 489.43 216.77 530.17 209.52 546.9 335.93 563.63 462.33"/><polygon class="cls-3" points="472.68 152.22 418.57 159.35 364.45 166.49 349.76 202.46 335.06 238.44 391.87 231.23 448.68 224.02 460.68 188.12 472.68 152.22"/><polygon class="cls-8" points="472.68 152.22 501.43 180.87 530.17 209.52 489.43 216.77 448.68 224.02 460.68 188.12 472.68 152.22"/><path class="cls-6" d="M400.58,213.15a21.48,21.48,0,1,1,15.16-6.29A21.4,21.4,0,0,1,400.58,213.15Zm0-40.4A19,19,0,1,0,414,178.3,18.87,18.87,0,0,0,400.58,172.75Z"/><path class="cls-8" d="M473.08,152.55l-54.17,6.87-54.17,6.88-.94-7.43-.94-7.42a9.19,9.19,0,0,1,8-10.28l45.05-5.71,45.05-5.72a9.19,9.19,0,0,1,10.27,8l.95,7.42Z"/><path class="cls-6" d="M353.24,264.45a1.21,1.21,0,0,1-.82-.31,1.25,1.25,0,0,1,.68-2.18l27-3.19,27-3.2a1.26,1.26,0,0,1,1.39,1.09,1.27,1.27,0,0,1-.26.92,1.23,1.23,0,0,1-.84.47l-27,3.2-27,3.2h-.15Z"/><path class="cls-6" d="M355.53,279.94a1.31,1.31,0,0,1-.83-.31,1.29,1.29,0,0,1-.41-.79,1.23,1.23,0,0,1,.26-.92,1.21,1.21,0,0,1,.83-.47l17.67-2.09,17.67-2.09a1.24,1.24,0,0,1,1.38,1.1,1.24,1.24,0,0,1-.26.92,1.22,1.22,0,0,1-.83.46l-17.67,2.09-17.66,2.09h-.15Z"/><path class="cls-6" d="M493.89,417.51a1.27,1.27,0,0,1-.78-.27,1.2,1.2,0,0,1-.44-.71,1.26,1.26,0,0,1,1-1.49l23.22-5,23.23-5a1.25,1.25,0,0,1,1.31,1.9,1.24,1.24,0,0,1-.79.54l-23.22,5-23.23,5-.13,0Z"/><path class="cls-6" d="M496.27,432.73a1.27,1.27,0,0,1-.78-.27,1.23,1.23,0,0,1-.44-.72,1.28,1.28,0,0,1,.17-.94,1.22,1.22,0,0,1,.79-.54l23.22-5,23.22-5a1.26,1.26,0,0,1,1.49,1,1.28,1.28,0,0,1-.17.94,1.24,1.24,0,0,1-.79.54l-23.23,5-23.22,5-.13,0Z"/><path class="cls-6" d="M506.15,446.82a1.24,1.24,0,0,1-.78-.28,1.31,1.31,0,0,1-.44-.71,1.23,1.23,0,0,1,.18-.94,1.27,1.27,0,0,1,.78-.55L521.51,441l15.61-3.35a1.27,1.27,0,0,1,.94.17,1.29,1.29,0,0,1,.55.79,1.23,1.23,0,0,1-.18.94,1.27,1.27,0,0,1-.78.55L522,443.44l-15.61,3.35-.13,0Z"/><path class="cls-8" d="M436.94,285.69c1.69,2.93.61,7.09-2.51,11.45s-8.26,8.92-14.71,12.64-13,5.9-18.29,6.42-9.48-.63-11.17-3.56-.61-7.08,2.51-11.44,8.26-8.92,14.71-12.64,13-5.9,18.29-6.42S435.25,282.76,436.94,285.69Z"/><path class="cls-9" d="M534.38,388.79l-20.52,3.14-20.52,3.14a6.21,6.21,0,0,1-4.66-1.14,6.29,6.29,0,0,1-2.49-4.11L475.34,319,464.48,248.1a6.29,6.29,0,0,1,5.25-7.15l20.52-3.14,20.52-3.15a6.29,6.29,0,0,1,7.15,5.25l10.86,70.86,10.85,70.87a6.27,6.27,0,0,1-5.25,7.15Z"/><path class="cls-3" d="M628.82,336.2c-1.23,10.87-5.24,20.39-10.72,27s-12.45,10.27-19.59,9.46-13.11-5.94-17-13.59-5.66-17.82-4.43-28.69,5.23-20.38,10.72-27,12.44-10.27,19.59-9.46,13.1,5.94,17,13.59S630.05,325.33,628.82,336.2Z"/><path class="cls-3" d="M673.63,435.71c-4.75,9.86-11.67,17.52-19,21.93s-15.14,5.58-21.61,2.46-10.41-9.93-11.54-18.44.55-18.69,5.29-28.54,11.68-17.51,19-21.93,15.14-5.58,21.61-2.46,10.41,9.94,11.54,18.44S678.38,425.86,673.63,435.71Z"/><path class="cls-10" d="M313,348.15c-.33-1.09-.72-2.19-1.07-3.14s-.67-1.73-.86-2.19a66.91,66.91,0,0,0-15.44-22.46A76.13,76.13,0,0,0,281,309.28,72.62,72.62,0,0,0,263.24,302a75.81,75.81,0,0,0-13.9-2.29q.84-9.42,1.69-18.85t1.7-18.85l-11.13-.38-11.13-.39.77,13.91.77,13.91L218.78,263l-13.23-26.08-10.82,6.57-10.82,6.57,5.41,8.3,5.41,8.31-6.28,5.89-6.28,5.89,14.63,17,14.63,17a78.43,78.43,0,0,0-11.23,14.53,73.34,73.34,0,0,0-9.78,27.32,71,71,0,0,0-.69,12.74,74.12,74.12,0,0,0,1.13,10.62c.19,1.15.41,2.31.67,3.46s.57,2.3.91,3.44c4.61,15.23,15.53,27,29.46,33.66a67.19,67.19,0,0,0,85.26-25.8C315,379.22,317.62,363.39,313,348.15Z"/><path class="cls-1" d="M220.19,307.7a1.47,1.47,0,0,1-.71-.18,1.49,1.49,0,0,1-.55-.51L206.2,287.24l-12.73-19.77a1.48,1.48,0,0,1,.45-2.07,1.48,1.48,0,0,1,2.07.45l12.73,19.76,12.73,19.77a1.48,1.48,0,0,1,.21,1.13,1.55,1.55,0,0,1-.66.95,1.47,1.47,0,0,1-.81.24Z"/><path class="cls-6" d="M269.42,422.81h-.17l-.17,0a58.94,58.94,0,0,1-28.3-17.43c-7.59-8.4-13.25-19.31-16.79-32.5a126.21,126.21,0,0,1-4-26.45,105.86,105.86,0,0,1,0-11.73,1.2,1.2,0,0,1,.43-.86,1.25,1.25,0,0,1,.91-.29,1.25,1.25,0,0,1,1.15,1.34,103.54,103.54,0,0,0,0,11.5,123.8,123.8,0,0,0,3.91,25.9q5.21,19.36,16.09,31.44a56.35,56.35,0,0,0,27.25,16.68,1.24,1.24,0,0,1,.75.59,1.2,1.2,0,0,1,.11.95,1.23,1.23,0,0,1-.45.66A1.25,1.25,0,0,1,269.42,422.81Z"/><path class="cls-6" d="M290.45,412.23h-.19a1.24,1.24,0,0,1-.82-.5,1.22,1.22,0,0,1-.23-.92,77.23,77.23,0,0,0-3.08-36.95,78.69,78.69,0,0,0-13.9-24.57,92.29,92.29,0,0,0-15.76-14.93,67.75,67.75,0,0,0-7.59-5,1.25,1.25,0,0,1,.22-2.3,1.27,1.27,0,0,1,1,.09,67,67,0,0,1,8,5.22,94.49,94.49,0,0,1,16.08,15.25A81,81,0,0,1,288.48,373a79.58,79.58,0,0,1,3.21,38.17,1.27,1.27,0,0,1-.43.76A1.25,1.25,0,0,1,290.45,412.23Z"/><path class="cls-10" d="M175.62,417.85a14.47,14.47,0,0,1-1.92,7.49c-1.18,1.92-2.82,3.1-4.62,3.1s-3.44-1.18-4.62-3.1a15.55,15.55,0,0,1,0-15c1.18-1.92,2.81-3.11,4.62-3.11s3.44,1.19,4.62,3.11A14.46,14.46,0,0,1,175.62,417.85Z"/><path class="cls-10" d="M455.62,609.12,414.2,649.4l-41.42,40.28a11.24,11.24,0,0,1-14.44,1l-96.15-69.85L166,551a11.24,11.24,0,0,1,.49-18.51l44.24-28.76L255,475a11.27,11.27,0,0,1,12.08-.11l93.33,58.33,93.32,58.33a11.23,11.23,0,0,1,1.88,17.58Z"/><path class="cls-10" d="M596,185.45a12.38,12.38,0,0,1,.08,7.13,5.17,5.17,0,0,1-8.87,2.58A13.27,13.27,0,0,1,583.41,182a5.17,5.17,0,0,1,8.87-2.58A12.45,12.45,0,0,1,596,185.45Z"/><path class="cls-10" d="M576.85,216.34a16,16,0,0,1,1.33,8.56c-.38,2.51-1.56,4.46-3.45,5.28s-4.12.35-6.21-1.09a17.2,17.2,0,0,1-6.68-15.37c.39-2.51,1.57-4.47,3.45-5.29s4.13-.34,6.22,1.09A16,16,0,0,1,576.85,216.34Z"/><path class="cls-10" d="M606.66,250.28a18.49,18.49,0,0,1-5.15,7.81c-2.06,1.73-4.3,2.45-6.23,1.75s-3.2-2.69-3.67-5.33a20,20,0,0,1,6.19-17.11c2.06-1.73,4.3-2.45,6.23-1.75s3.2,2.69,3.67,5.34A18.39,18.39,0,0,1,606.66,250.28Z"/><path class="cls-10" d="M190.56,466a6,6,0,0,1-5.78.5,14.85,14.85,0,0,1-9.1-11.92,5.41,5.41,0,0,1,7.79-5.94,14.84,14.84,0,0,1,9.1,11.92A6,6,0,0,1,190.56,466Z"/><path class="cls-10" d="M145.35,411.52a13.53,13.53,0,0,1,3.79,6.66,5.45,5.45,0,0,1-6.93,6.93,14.49,14.49,0,0,1-10.46-10.46,5.45,5.45,0,0,1,6.93-6.93A13.46,13.46,0,0,1,145.35,411.52Z"/><path class="cls-3" d="M329.86,639.73a17.56,17.56,0,0,1-1.07-6.93,17.88,17.88,0,0,1,1.72-6.81,72.68,72.68,0,0,1,6.35-10.93,44.6,44.6,0,0,1,8.55-9.11,19.53,19.53,0,0,1,11.21-4.45,13.39,13.39,0,0,1,10.82,4.86,20.75,20.75,0,0,1,4.17,8.32A44.81,44.81,0,0,1,373,624a66.84,66.84,0,0,1-.1,8.13c-.2,2.71-.54,5.41-1,8.08a18.49,18.49,0,0,1-4,8.65,17.29,17.29,0,0,1-7.81,5.37,25,25,0,0,1-9.82,1.27,23.4,23.4,0,0,1-9.47-2.72,22.16,22.16,0,0,1-7.13-6.07A26.13,26.13,0,0,1,329.86,639.73Z"/><path class="cls-3" d="M269.57,598.19a17.56,17.56,0,0,1-1.07-6.93,17.88,17.88,0,0,1,1.72-6.81,72.68,72.68,0,0,1,6.35-10.93,44.6,44.6,0,0,1,8.55-9.11A19.53,19.53,0,0,1,296.33,560a13.37,13.37,0,0,1,10.82,4.86,20.75,20.75,0,0,1,4.17,8.32,44.15,44.15,0,0,1,1.35,9.31,66.7,66.7,0,0,1-.1,8.12c-.2,2.71-.54,5.41-1,8.08a18.33,18.33,0,0,1-4,8.66,17.47,17.47,0,0,1-7.8,5.37,25.22,25.22,0,0,1-9.83,1.26,23.36,23.36,0,0,1-9.46-2.72,22.31,22.31,0,0,1-7.14-6.07A26.55,26.55,0,0,1,269.57,598.19Z"/><path class="cls-3" d="M213.28,556.69a17.35,17.35,0,0,1-1.06-6.93,17.82,17.82,0,0,1,1.71-6.8A72.78,72.78,0,0,1,220.28,532a44.6,44.6,0,0,1,8.55-9.11,19.56,19.56,0,0,1,11.22-4.45,13.37,13.37,0,0,1,10.81,4.86,20.69,20.69,0,0,1,4.17,8.32,44.15,44.15,0,0,1,1.35,9.31,64.72,64.72,0,0,1-.1,8.12c-.19,2.71-.54,5.41-1,8.09a18.34,18.34,0,0,1-4,8.65,17.42,17.42,0,0,1-7.8,5.37,25.42,25.42,0,0,1-9.83,1.27,23.53,23.53,0,0,1-9.46-2.73,22.41,22.41,0,0,1-7.14-6.06A26.6,26.6,0,0,1,213.28,556.69Z"/><path class="cls-3" d="M371.09,588.06a17.32,17.32,0,0,1-1.06-6.93,17.86,17.86,0,0,1,1.71-6.8,71.89,71.89,0,0,1,6.36-10.93,44.08,44.08,0,0,1,8.54-9.12,19.69,19.69,0,0,1,11.22-4.45,13.38,13.38,0,0,1,10.81,4.86,20.67,20.67,0,0,1,4.17,8.33,44.15,44.15,0,0,1,1.35,9.3,64.88,64.88,0,0,1-.1,8.13c-.19,2.7-.54,5.4-1,8.08a18.34,18.34,0,0,1-4,8.65,17.26,17.26,0,0,1-7.8,5.37,25.39,25.39,0,0,1-9.83,1.27A23.36,23.36,0,0,1,382,601.1a22.31,22.31,0,0,1-7.14-6.07A26.6,26.6,0,0,1,371.09,588.06Z"/><path class="cls-3" d="M312.8,546.52a17.67,17.67,0,0,1,.66-13.73,71,71,0,0,1,6.35-10.93,43.78,43.78,0,0,1,8.54-9.11,19.64,19.64,0,0,1,11.22-4.46,13.42,13.42,0,0,1,10.82,4.86,20.92,20.92,0,0,1,4.17,8.33,45.49,45.49,0,0,1,1.35,9.3,66.84,66.84,0,0,1-.11,8.13c-.19,2.7-.53,5.4-1,8.08a18.41,18.41,0,0,1-4,8.65A17.21,17.21,0,0,1,343,561a25.37,25.37,0,0,1-9.82,1.27,23.36,23.36,0,0,1-9.47-2.72,22.16,22.16,0,0,1-7.13-6.07A26.36,26.36,0,0,1,312.8,546.52Z"/><path class="cls-3" d="M254.51,505a17.7,17.7,0,0,1,.66-13.74,71.84,71.84,0,0,1,6.35-10.93,44.28,44.28,0,0,1,8.54-9.11,19.67,19.67,0,0,1,11.22-4.46,13.4,13.4,0,0,1,10.82,4.87,20.88,20.88,0,0,1,4.17,8.32,44.81,44.81,0,0,1,1.35,9.3,66.84,66.84,0,0,1-.1,8.13c-.2,2.71-.54,5.4-1,8.08a18.49,18.49,0,0,1-4,8.65,17.29,17.29,0,0,1-7.81,5.37,25.18,25.18,0,0,1-9.82,1.27,23.4,23.4,0,0,1-9.47-2.72,22.16,22.16,0,0,1-7.13-6.07A26.46,26.46,0,0,1,254.51,505Z"/><path class="cls-9" d="M650.19,215.2l-18.62-31.49L613,152.22l6.57-3.57,6.57-3.58,8.24,14.43,8.25,14.43L631,136.7,619.39,99.47l12.88-2.71,12.88-2.7,6.57,29.37,6.58,29.37,4.76-21.25,4.77-21.26,11.34,4.12,11.33,4.12a231.24,231.24,0,0,0-9.69,30.54c-4.29,17.52-7.44,39.55-2.93,57.59L664,210.93Z"/><path class="cls-3" d="M650.19,215.2l32.95,104.61,33,104.61a49.2,49.2,0,0,0,6.7,15c4.79,6.8,12.42,12.2,23.85,6.59,0,0,4.27-2.08,6-8.26s.88-16.47-9.3-32.89c-6.64-14.53-13.28-30.06-19.78-46.54S710.69,324.39,704.66,306q-8.76-26.67-15.35-51.61t-11.43-47.74L664,210.93Z"/><path class="cls-9" d="M818.8,532c.31.3.64.61,1,.91a13.64,13.64,0,0,0,1.07.89,26.55,26.55,0,0,0,6.26,3.7,16.47,16.47,0,0,0,11.23.72,16.74,16.74,0,0,0,8.87-6.84,19.71,19.71,0,0,0,3.3-10.87,18.67,18.67,0,0,0-2.85-9.75,20.1,20.1,0,0,0-7.53-7.07,24.84,24.84,0,0,0,7.58,1.49,19.16,19.16,0,0,0,9.7-2.18,20.44,20.44,0,0,0,9.08-9.9,23.19,23.19,0,0,0,1.43-14.1,25.74,25.74,0,0,0-2.93-6.42,19.7,19.7,0,0,0-9.5-8.1,20.35,20.35,0,0,0-14.66.31,25.72,25.72,0,0,0-12.47,10.6A21.37,21.37,0,0,0,824,462a18.76,18.76,0,0,0-11.17-7.1,18.53,18.53,0,0,0-10.4,1,19,19,0,0,0-8.52,6.64,19.06,19.06,0,0,0-3.38,13.07l-.42-.83-.42-.84a18.71,18.71,0,0,0-25.11-8.34h0a18.71,18.71,0,0,0-8.33,25.12l4.2,8.38,4.21,8.38-12,6-12,6,6.05,12.06,6,12.06,12-6,12-6L781,540l4.21,8.38a18.7,18.7,0,0,0,25.11,8.33h0A18.69,18.69,0,0,0,818.8,532Z"/><path class="cls-2" d="M545.25,650.41a15.36,15.36,0,0,1-11.47-.45,16.53,16.53,0,0,1-9.14-20,15.19,15.19,0,0,1,7.22-8.88L615,566.51l83.14-54.59a37.56,37.56,0,0,1,31.06-5,40.69,40.69,0,0,1,25.21,20.33h0a40.72,40.72,0,0,1,2.73,32.4,37.52,37.52,0,0,1-21.71,22.94l-95.1,33.9Z"/><path class="cls-6" d="M715.64,590.36a1.21,1.21,0,0,1-.66-.19,1.25,1.25,0,0,1-.47-.52l-7.93-16.71-7.93-16.7a1.25,1.25,0,0,1,.59-1.67,1.26,1.26,0,0,1,1,0,1.18,1.18,0,0,1,.71.64l7.94,16.7,7.93,16.71a1.24,1.24,0,0,1-.59,1.66l-.27.09Z"/><path class="cls-6" d="M671.79,604.89a1.3,1.3,0,0,1-.66-.19,1.22,1.22,0,0,1-.47-.53l-6.9-14.52-6.89-14.53a1.21,1.21,0,0,1,0-1,1.27,1.27,0,0,1,.64-.71,1.24,1.24,0,0,1,1.66.59l6.9,14.53,6.9,14.52a1.25,1.25,0,0,1-.59,1.67l-.27.09Z"/><path class="cls-6" d="M630,621.44a1.29,1.29,0,0,1-.69-.2,1.32,1.32,0,0,1-.47-.57l-6.39-15.54-6.39-15.54a1.23,1.23,0,0,1,0-1,1.26,1.26,0,0,1,.67-.67,1.28,1.28,0,0,1,1,0,1.26,1.26,0,0,1,.68.68l6.39,15.54,6.39,15.54a1.23,1.23,0,0,1,0,1,1.26,1.26,0,0,1-.67.67,1.09,1.09,0,0,1-.24.07A1,1,0,0,1,630,621.44Z"/><path class="cls-1" d="M793.9,484.91a1.49,1.49,0,0,1-.82-.25,1.45,1.45,0,0,1-.56-.66l-1.68-3.91-1.68-3.9a1.48,1.48,0,0,1,0-1.15,1.46,1.46,0,0,1,.8-.82,1.48,1.48,0,0,1,1.15,0,1.46,1.46,0,0,1,.82.8l1.68,3.91,1.69,3.9a1.53,1.53,0,0,1,0,1.15,1.46,1.46,0,0,1-.8.82,1.66,1.66,0,0,1-.29.1Z"/><path class="cls-1" d="M840.13,505.17l-.23,0-.22,0-4.22-1.35-4.22-1.36a1.46,1.46,0,0,1-.87-.74,1.5,1.5,0,0,1-.1-1.14,1.49,1.49,0,0,1,1.89-1l4.21,1.35,4.22,1.35a1.49,1.49,0,0,1,1,1.89,1.48,1.48,0,0,1-.55.76A1.51,1.51,0,0,1,840.13,505.17Z"/><path class="cls-1" d="M818.8,533.48a1.53,1.53,0,0,1-.75-.2,1.61,1.61,0,0,1-.56-.57l-2.21-4-2.22-4a1.52,1.52,0,0,1-.13-1.14,1.49,1.49,0,0,1,.72-.9,1.5,1.5,0,0,1,2,.59l2.21,4,2.21,4a1.51,1.51,0,0,1-.58,2,1.78,1.78,0,0,1-.36.14A1.57,1.57,0,0,1,818.8,533.48Z"/><polygon class="cls-1" points="776.76 531.58 772.74 523.53 768.72 515.49 763.78 528.03 758.84 540.57 767.8 536.08 776.76 531.58"/><path class="cls-1" d="M648.55,188.78a1.53,1.53,0,0,1-.8-.24,1.51,1.51,0,0,1-.57-.65l-3-6.67-3-6.67a1.52,1.52,0,0,1,.75-2,1.58,1.58,0,0,1,1.15,0,1.51,1.51,0,0,1,.84.79l3,6.67,3,6.67a1.51,1.51,0,0,1-.76,2,2.64,2.64,0,0,1-.3.1A1.55,1.55,0,0,1,648.55,188.78Z"/><path class="cls-1" d="M658.29,161.11a1.52,1.52,0,0,1-1.06-.44,1.51,1.51,0,0,1-.44-1.06V152.8a1.51,1.51,0,0,1,.44-1.06,1.51,1.51,0,0,1,2.13,0,1.5,1.5,0,0,1,.43,1.06v6.81a1.5,1.5,0,0,1-.43,1.06A1.53,1.53,0,0,1,658.29,161.11Z"/><path class="cls-3" d="M407.16,353.54a11.45,11.45,0,0,0,3.86-4.15,5.42,5.42,0,0,0,.52-4.24,4.52,4.52,0,0,0-1.41-2,6.21,6.21,0,0,0-1.21-.78,7.7,7.7,0,0,0-5.88-.12,18.22,18.22,0,0,0-6.57,4.13c-2.63,0-5.48,0-8.34.08s-5.71.08-8.33.08a14.92,14.92,0,0,0-7.15-3.55c-2.14-.31-3.89.19-4.9,1.31s-1.37,3.41-.7,5.9a14.51,14.51,0,0,0,5.27,7.51l3,15.67,3,15.67a4.33,4.33,0,0,0,1.5,2.55,4.39,4.39,0,0,0,2.79,1h9.56l2.94,37.61,2.94,37.61a3.13,3.13,0,0,0,3.14,2.9h15.9a3.16,3.16,0,0,0,2.2-.88,3.22,3.22,0,0,0,.95-2.17l.59-19.71.59-19.71,21.11-.89,21.1-.88,4.12,20,4.12,20a2.47,2.47,0,0,0,2.47,2l2.67,0,2.67,0-7.4-58.31-7.4-58.32-28.87.91Z"/><path class="cls-8" d="M413.6,191.7a20.2,20.2,0,1,1-5.92-14.29A20.1,20.1,0,0,1,413.6,191.7Z"/><path class="cls-6" d="M407.37,472a1.25,1.25,0,0,1-1.25-1.25V408.83a1.25,1.25,0,1,1,2.5,0v61.92a1.25,1.25,0,0,1-1.25,1.25Z"/><path class="cls-6" d="M384.89,387a1.26,1.26,0,1,1-.37-.89A1.25,1.25,0,0,1,384.89,387Z"/><path class="cls-6" d="M390.26,387a1.25,1.25,0,0,1-.37.89,1.26,1.26,0,0,1-.89.37,1.23,1.23,0,0,1-.89-.37,1.26,1.26,0,0,1,0-1.78,1.23,1.23,0,0,1,.89-.37,1.26,1.26,0,0,1,.89.37A1.25,1.25,0,0,1,390.26,387Z"/><path class="cls-6" d="M392.18,393.88a1.32,1.32,0,0,1-.44-.08,1.19,1.19,0,0,1-.4-.24,1.27,1.27,0,0,1-.08-1.77l4.3-4.74,4.31-4.74a1.25,1.25,0,0,1,.87-.41,1.28,1.28,0,0,1,.9.32,1.26,1.26,0,0,1,.4.87,1.24,1.24,0,0,1-.32.9l-4.3,4.74-4.31,4.74a1.18,1.18,0,0,1-.43.31A1.24,1.24,0,0,1,392.18,393.88Z"/><path class="cls-2" d="M396.85,371.12a14.45,14.45,0,0,0,3.12,1.5,10.09,10.09,0,0,0,5.7.3c2.9-.77,5.43-3.09,7.23-6.51a28.53,28.53,0,0,0,2.88-13.14l-4.31.13-4.31.14a11.45,11.45,0,0,0,3.86-4.15,5.42,5.42,0,0,0,.52-4.24,4.52,4.52,0,0,0-1.41-2,6.21,6.21,0,0,0-1.21-.78,7.7,7.7,0,0,0-5.88-.12,18.22,18.22,0,0,0-6.57,4.13l-3.72,0-3.87.05a37,37,0,0,0,1.14,15C391.37,365.76,393.67,369.12,396.85,371.12Z"/><path class="cls-2" d="M431.66,382.43c3.91.5,7.74-2.13,10.69-5a41.39,41.39,0,0,0,5.38-6.63,20.54,20.54,0,0,0,6.13,3.51,14.61,14.61,0,0,0,13.69-1.61l-1.33-10.47-1.33-10.47-23.39.73-23.39.74c-.46,8.4,1.13,15.48,3.73,20.57S428.05,382,431.66,382.43Z"/><path class="cls-2" d="M437.74,408.83a23.38,23.38,0,0,0-12.19-11.38c-4.71-1.86-9.55-1.8-12.95.11-3.85,2.16-6,6.08-6.74,10.38a23.84,23.84,0,0,0,1.24,12.65,30.54,30.54,0,0,0,5.67,9.09,30.91,30.91,0,0,0,8.42,6.63l.12-4,.12-4,17.38-.73,17.37-.73c.07-3-.31-7.8-2.82-11.69S446.21,408.25,437.74,408.83Z"/><path class="cls-2" d="M381.15,346.57H379.8a14.92,14.92,0,0,0-7.15-3.55c-2.14-.31-3.89.19-4.9,1.31s-1.37,3.41-.7,5.9a14.51,14.51,0,0,0,5.27,7.51L373.9,366l1.57,8.22c4.44-2.69,6.21-7.82,6.7-13.17A53.33,53.33,0,0,0,381.15,346.57Z"/><path class="cls-6" d="M482.09,488.53a1.21,1.21,0,0,1-.82-.31,1.3,1.3,0,0,1-.42-.78l-16.7-131.63L447.44,224.17a1.28,1.28,0,0,1,.25-.92,1.25,1.25,0,0,1,.83-.47,1.24,1.24,0,0,1,1.4,1.08l16.71,131.63,16.71,131.63a1.26,1.26,0,0,1-.26.93,1.23,1.23,0,0,1-.83.47h-.16Z"/><path class="cls-1" d="M234.65,300.66a1.5,1.5,0,0,1-1.45-1.12l-1.32-5.05-1.32-5a1.45,1.45,0,0,1,.16-1.14,1.51,1.51,0,0,1,.91-.7,1.54,1.54,0,0,1,1.14.16,1.51,1.51,0,0,1,.69.92l1.32,5,1.32,5a1.48,1.48,0,0,1-1.07,1.83l-.19,0Z"/><path class="cls-10" d="M632.41,431.26a3.21,3.21,0,1,1-.94-2.26A3.2,3.2,0,0,1,632.41,431.26Z"/><path class="cls-10" d="M639.63,445.45a4.81,4.81,0,1,1-1.41-3.41A4.81,4.81,0,0,1,639.63,445.45Z"/><path class="cls-10" d="M590.81,330.71a3.21,3.21,0,1,1-.94-2.26A3.2,3.2,0,0,1,590.81,330.71Z"/><path class="cls-10" d="M598,344.9a4.81,4.81,0,1,1-1.41-3.41A4.81,4.81,0,0,1,598,344.9Z"/></svg>