<svg id="Layer_1" data-name="Layer 1" xmlns="http://www.w3.org/2000/svg" viewBox="0 0 1000 1000"><defs><style>.cls-1{fill:#e9cf81;}.cls-2{fill:#bab653;}.cls-3{fill:#353519;}.cls-4{fill:#666538;}.cls-5{fill:#2b3d0a;}.cls-6{fill:#deb8fc;}.cls-7{fill:#f98638;}.cls-8{fill:#f4ece5;}.cls-9{fill:#ffaa9f;}.cls-10{fill:#ad4d4d;}</style></defs><path class="cls-1" d="M645.29,219.11l-15.58,8-15.59,8a3.29,3.29,0,0,0-1.26,4.7l9.52,14.69,9.52,14.69a3.28,3.28,0,0,1-2.92,5.05l-17.49-.91L594,272.35a3.28,3.28,0,0,0-3.44,3.44l.91,17.48.91,17.48a3.27,3.27,0,0,1-5,2.92l-14.69-9.52L558,294.64a3.27,3.27,0,0,0-4.69,1.25l-8,15.59-8,15.59a3.28,3.28,0,0,1-5.83,0l-8-15.59-8-15.59a3.27,3.27,0,0,0-4.69-1.25l-14.69,9.51-14.69,9.52a3.27,3.27,0,0,1-5.05-2.92l.91-17.48.91-17.48a3.28,3.28,0,0,0-3.44-3.44l-17.48.91-17.49.91a3.28,3.28,0,0,1-2.92-5.05l9.52-14.69L456,239.74a3.29,3.29,0,0,0-1.26-4.7l-15.59-8-15.58-8a3.27,3.27,0,0,1,0-5.83l15.58-8,15.59-8a3.29,3.29,0,0,0,1.26-4.7L446.45,178l-9.51-14.69a3.27,3.27,0,0,1,2.91-5l17.49.91,17.48.91a3.28,3.28,0,0,0,3.44-3.44l-.91-17.48-.91-17.48a3.27,3.27,0,0,1,5.05-2.92l14.69,9.52,14.69,9.52a3.28,3.28,0,0,0,4.69-1.26l8-15.59,8-15.59a3.28,3.28,0,0,1,5.83,0l8,15.59,8,15.59a3.28,3.28,0,0,0,4.69,1.26l14.69-9.52,14.7-9.52a3.27,3.27,0,0,1,5,2.92l-.91,17.48-.91,17.49A3.27,3.27,0,0,0,594,160l17.49-.91,17.48-.91a3.28,3.28,0,0,1,2.92,5L622.38,178l-9.52,14.69a3.29,3.29,0,0,0,1.26,4.7l15.59,8,15.58,8a3.27,3.27,0,0,1,0,5.83Z"/><path class="cls-2" d="M258.19,417.09a113.39,113.39,0,0,1,.69-27.3c1.17-8.73,3-16.78,4.47-23.22A239.84,239.84,0,0,1,271.16,340c2.77-7.76,5.59-14.4,8.08-19.79l-15.75-3.79-15.75-3.79c-2,4.74-4.36,10.59-6.76,17.42s-4.87,14.66-7.13,23.33c-3.82,14.65-7.19,27.22-8.8,39.14s-1.47,23.19,1.74,35.26A87,87,0,0,0,232.9,444a100.63,100.63,0,0,0,14.2,21.21l10.13,12.37L267.39,490c34.06,41.62,52.26,63.88,62.69,76.75s13.08,16.33,16.05,20.33c17.59,23.67,30.84,41.4,40.39,56.68s15.38,28.12,18.12,42c7.19,36.38-7.72,74.89-27.95,107.8s-45.78,60.22-59.89,74.21h50.32c4.74-4.52,13.29-13.22,22.13-23.2s18-21.22,23.84-30.83a239.48,239.48,0,0,0,18.7-39.6c7.26-19.71,13.5-44.39,12.59-69.43-.87-23.93-8.14-44.2-20.24-64.64s-29-41.06-49.21-65.7c-4.45-5.43-12.3-15.54-22.89-28.62s-23.93-29.13-39.36-46.47C295.85,480.34,283,467,274,454.76S259.79,431.45,258.19,417.09Z"/><path class="cls-2" d="M742.65,575.9l39-.35,39-.34A49.55,49.55,0,0,0,851,557.4a48.88,48.88,0,0,0,10.87-33.11c-.64-12.63-6.11-21.74-14.63-27.8s-20.1-9.08-32.94-9.49l-12.85.34-12.86.34c4.39,0,8.75.33,13.13.66a100.23,100.23,0,0,0,13.21.35,74.9,74.9,0,0,0,21.27-4.11c6.88-2.52,13.15-6.39,17.56-12.13s6.11-13.42,5.48-20.91a38.39,38.39,0,0,0-8-20.43c-6.67-8.3-16.32-13-26.77-15.55s-21.69-2.85-31.55-2.32c-.21,0-1.73.06-3.2.16s-2.91.24-2.93.43a1.8,1.8,0,0,1-.31.05c-.15,0-.31,0-.32,0s5.85-1.62,13.44-4.78,16.88-8.09,23.62-15.34a46,46,0,0,0,9.81-16.67c2.1-6.47,2.56-13.52,0-20.06a27.41,27.41,0,0,0-7.87-10.77,36.74,36.74,0,0,0-6.91-4.62c-13.49-7.18-29.49-5.88-42.36-2.59s-22.62,8.57-23.62,9.32c2.86-20.35,1.1-38.53-4-52.53S734.94,272,724.6,268.39a29.93,29.93,0,0,0-14.23-1.24,30.79,30.79,0,0,0-7.23,1.94C693,273.32,685.25,283.48,681,297.52s-5,32-1.12,51.7a133.15,133.15,0,0,0-29.13-4.37c-14.2-.41-30,2.09-38.49,13.12a27.36,27.36,0,0,0-2.1,3.15,27.71,27.71,0,0,0-1.77,3.71,37.93,37.93,0,0,0-1.93,10.53,30.12,30.12,0,0,0,.71,7.55c1.73,7.73,6.59,14.75,13.8,20.52s16.78,10.28,27.93,13c5.13.46,9.52,1.12,12.62,1.66s4.93,1,4.93,1q-4.63-.3-9-1t-8.52-1.67c-9.91-.88-22.58-1-34.13,1.85s-22,8.76-27.36,19.93a34.1,34.1,0,0,0-3,20,36.25,36.25,0,0,0,8.52,18.43,51.11,51.11,0,0,0,17.12,12.66c7.68,3.59,17.55,6.22,30.2,6.83l9.53-.25,9.52-.26c-3.48.33-6.8.52-10,.6s-6.2.05-9.08-.09l-13.61.36L613,496.8a42.94,42.94,0,0,0-28.46,11.81,40.83,40.83,0,0,0-12.79,27.78A41.59,41.59,0,0,0,614.42,580l31.29-1.12L677,577.71l.41,133.47.42,133.47h65.09c0-23.34-.09-78.86-.13-134.38S742.7,599.24,742.65,575.9Z"/><path class="cls-3" d="M742.63,575.91h-36.7q9.2,16.86,18.41,33.72t18.41,33.73l-.06-33.73Z"/><path class="cls-4" d="M786.83,415.33H769.78a1.5,1.5,0,0,1-1.5-1.5,1.46,1.46,0,0,1,.44-1.06,1.49,1.49,0,0,1,1.06-.44h17.05a1.49,1.49,0,0,1,1.06.44,1.51,1.51,0,0,1,.44,1.06,1.49,1.49,0,0,1-.44,1.06A1.45,1.45,0,0,1,786.83,415.33Z"/><path class="cls-4" d="M685.64,356.3a1.54,1.54,0,0,1-.55-.11,1.5,1.5,0,0,1-.49-.31l-2.89-2.79-2.89-2.79a1.51,1.51,0,0,1-.46-1.05,1.56,1.56,0,0,1,.42-1.07,1.51,1.51,0,0,1,1.06-.46,1.48,1.48,0,0,1,1.07.42l2.88,2.79,2.89,2.79a1.45,1.45,0,0,1,.46,1,1.49,1.49,0,0,1-.92,1.41A1.43,1.43,0,0,1,685.64,356.3Z"/><path class="cls-2" d="M656.57,495.57l-9.52.26-9.53.25c2.88.14,5.9.17,9.08.09S653.09,495.9,656.57,495.57Z"/><path class="cls-2" d="M639.18,402.69q4.53,1.1,9.36,1.83t9.92,1.06s-2-.47-5.42-1.07S644.81,403.19,639.18,402.69Z"/><path class="cls-4" d="M867.2,639.22l-5.45.14-5.46.15a.12.12,0,0,1-.13-.11.13.13,0,0,1,.09-.14,30.23,30.23,0,0,0,10.85-6.47,19.5,19.5,0,0,0,5.64-9.33,19,19,0,0,0-.55-10.38,23.4,23.4,0,0,0-2.49-5.32,23.87,23.87,0,0,0-12.79-9.56,32.71,32.71,0,0,0-18-.5,25.72,25.72,0,0,0,14.34-9,23,23,0,0,0,.77-28.24,22.08,22.08,0,0,0-25.41-8.17,25.83,25.83,0,0,0-12.27,8.8,27.92,27.92,0,0,0,2.75-16.52,25.24,25.24,0,0,0-7.22-14.48A26,26,0,0,0,797,523a23.23,23.23,0,0,0-15.52,3.2c-5.52,3.54-9.2,9.74-10.32,16.79a30.56,30.56,0,0,0,5.08,22,.24.24,0,0,1,0,.33.26.26,0,0,1-.33,0,21.67,21.67,0,0,0-16.2-3.91,18,18,0,0,0-15,24A21.65,21.65,0,0,0,756.2,598.8a0,0,0,0,1,0,0h0a27,27,0,0,0-20.34,3.86c-5.48,3.62-9.25,9.07-10,14.84a21.18,21.18,0,0,0,4.11,14.91A26.68,26.68,0,0,0,744,642.49l-5.61.15-5.61.15a28,28,0,0,0-27.25,28.74h0a28,28,0,0,0,28.74,27.25l23.09-.62,23.09-.61,1.92,87.8,1.92,87.8h42.25l-2-88.36-2-88.36,23.09-.61,23.09-.62a28,28,0,0,0,27.25-28.73h0a28,28,0,0,0-28.74-27.25Z"/><polygon class="cls-3" points="822.51 696.43 811.26 696.43 800.01 696.43 811.55 711.95 823.09 727.46 822.8 711.95 822.51 696.43"/><path class="cls-5" d="M765.87,600.07h-9.68a1.25,1.25,0,0,1-.89-2.13,1.25,1.25,0,0,1,.89-.37h9.68a1.22,1.22,0,0,1,.88.37,1.24,1.24,0,0,1,0,1.77A1.26,1.26,0,0,1,765.87,600.07Z"/><path class="cls-5" d="M857.29,641.07H827.11a1.25,1.25,0,0,1-.89-.37,1.25,1.25,0,0,1,.89-2.13h30.18a1.25,1.25,0,0,1,1.25,1.25,1.24,1.24,0,0,1-.37.88A1.22,1.22,0,0,1,857.29,641.07Z"/><path class="cls-5" d="M813.22,566.74a1.15,1.15,0,0,1-.37-.06,1.26,1.26,0,0,1-.35-.17,1.23,1.23,0,0,1-.51-.81,1.2,1.2,0,0,1,.21-.93l1.55-2.19,1.54-2.19a1.29,1.29,0,0,1,.81-.51,1.25,1.25,0,0,1,.93.21,1.22,1.22,0,0,1,.51.81,1.24,1.24,0,0,1-.21.94L815.79,564l-1.55,2.19a1.29,1.29,0,0,1-.45.39A1.26,1.26,0,0,1,813.22,566.74Z"/><path class="cls-5" d="M597.37,811.62a1.26,1.26,0,0,1-.43-.08,1.23,1.23,0,0,1-.4-.23L570.93,788.7l-25.61-22.61a1.25,1.25,0,0,1,1.66-1.88l25.61,22.61,25.61,22.61a1.26,1.26,0,0,1,.11,1.77,1.27,1.27,0,0,1-.43.31A1.3,1.3,0,0,1,597.37,811.62Z"/><path class="cls-4" d="M236.06,345.41,248,364.25l11.93,18.83q1.13-6.3,2.35-11.77c.81-3.65,1.63-7,2.42-10.05,1.16-4.47,2.29-8.34,3.18-11.27s1.56-4.93,1.8-5.66q1.74-5.16,3.43-9.55c1.12-2.92,2.19-5.57,3.19-7.93l-17.85,1.46-17.85,1.46q-1.14,3.92-2.26,7.82T236.06,345.41Z"/><path class="cls-6" d="M746.43,677q-1.08,15.42-2.17,30.83t-2.17,30.82a21.72,21.72,0,0,0,21.67,23.24h69Q816,739.49,799.24,717.12L765.72,672.4A10.38,10.38,0,0,0,746.43,677Z"/><path class="cls-7" d="M599.88,216.19A65.47,65.47,0,1,1,580.7,169.9,65.25,65.25,0,0,1,599.88,216.19Z"/><polygon class="cls-7" points="755.83 723.46 718.3 723.46 680.76 723.46 680.76 716.12 680.76 708.78 718.3 708.78 755.83 708.78 755.83 716.12 755.83 723.46"/><polygon class="cls-7" points="680.76 723.46 675.93 742.65 671.1 761.85 708.74 761.85 746.38 761.85 751.11 742.65 755.83 723.46 718.3 723.46 680.76 723.46"/><polygon class="cls-3" points="755.83 723.46 760.45 742.65 765.07 761.85 755.72 761.85 746.38 761.85 751.11 742.65 755.83 723.46"/><path class="cls-3" d="M812.68,714.61l7.15-14,7.15-14a6.89,6.89,0,0,0,.93-5.56,5.62,5.62,0,0,0-8-3.93,6.93,6.93,0,0,0-3.7,3.83l-12.84,24.12L790.58,729.2a13.43,13.43,0,0,0,4.75,17.72l3.31,2.07,3.32,2.07-2.09,5.39-2.08,5.39h44.48L856,734.36l13.7-27.49a9.48,9.48,0,0,0,.67-5,5.33,5.33,0,0,0-2.63-4.12,4.48,4.48,0,0,0-4.18,0,7.08,7.08,0,0,0-3,3l-8,15.09-8,15.09a7.37,7.37,0,0,1-4.3,4.11,6.13,6.13,0,0,1-5.24-.36,6,6,0,0,1-2.57-3.43,7.47,7.47,0,0,1,.19-4.79l7-15.71,7-15.7a6.66,6.66,0,0,0,.71-5.42,5.59,5.59,0,0,0-3.12-3.64,5.52,5.52,0,0,0-4.33.24,6.7,6.7,0,0,0-3.38,3.59l-7.75,15L821,720a8,8,0,0,1-3.34,3.36,4.39,4.39,0,0,1-3.51.4,4.7,4.7,0,0,1-2.48-3.41A7.86,7.86,0,0,1,812.68,714.61Z"/><path class="cls-5" d="M787.4,724.71a1.3,1.3,0,0,1-.58-.14,1.2,1.2,0,0,1-.46-.41l-13.64-20.23L759.08,683.7a1.24,1.24,0,0,1-.19-.93,1.21,1.21,0,0,1,.53-.8,1.26,1.26,0,0,1,.94-.19,1.22,1.22,0,0,1,.79.53l13.64,20.22,13.64,20.23a1.23,1.23,0,0,1,.2.94,1.35,1.35,0,0,1-.53.8,1.5,1.5,0,0,1-.34.16A1.49,1.49,0,0,1,787.4,724.71Z"/><polygon class="cls-8" points="727.61 761.85 690.92 761.85 654.23 761.85 654.23 751.06 654.23 740.28 690.92 740.28 727.61 740.28 727.61 751.06 727.61 761.85"/><polygon class="cls-9" points="841.62 873.15 738.23 873.15 634.84 873.15 629.28 817.5 623.72 761.85 739.19 761.85 854.66 761.85 848.14 817.5 841.62 873.15"/><path class="cls-2" d="M200.73,552.65a124.24,124.24,0,0,0,2.33,22.83,110.75,110.75,0,0,0,9.76,28.44c6.1,12,14.61,22.45,24.35,31.69s20.71,17.3,31.72,24.66c10.83,7.23,22.3,13.5,33.68,19.88s22.68,12.89,33.16,20.58a229.53,229.53,0,0,1,28.76,25.06,256.36,256.36,0,0,1,30.17,37.71c.83-1.9,1.67-3.9,2.49-6s1.62-4.33,2.39-6.65,1.43-4.53,2-6.69,1.12-4.24,1.58-6.24a196.41,196.41,0,0,0-31.77-35.54,306,306,0,0,0-38.24-28.61c-14.67-9.41-30.2-17.59-45.05-26.69s-29-19.12-41-32.22a90.31,90.31,0,0,1-12.66-17.69,111.71,111.71,0,0,1-8.41-20c-.34-1-2.45-7.55-4-13.84s-2.66-12.35-.92-12.51l-14.81,1.35Z"/><path class="cls-4" d="M201.15,561.69l13.21,10,13.22,10q-.93-2.6-1.81-5.36t-1.73-5.7c-.81-2.81-1.52-5.55-2.16-8.22s-1.18-5.25-1.67-7.75l-9.53,3.49Z"/><path class="cls-5" d="M852.88,778.58H625.26a1.27,1.27,0,0,1-.88-.36,1.26,1.26,0,0,1,.88-2.14H852.88a1.25,1.25,0,0,1,.88,2.14A1.27,1.27,0,0,1,852.88,778.58Z"/><path class="cls-2" d="M416.43,632.11A135.8,135.8,0,0,1,409.78,604c-1.62-13.7-.72-29.2,8.46-38.88a29.38,29.38,0,0,1,4.94-4.32,17.66,17.66,0,0,1,8.86-3.18c4.52-.28,9.11,1.41,13.28,4.63a39.21,39.21,0,0,1,10.81,13.89c-3.8-15.32-3.22-29.2.17-39.89s9.61-18.18,17.09-20.72a19.74,19.74,0,0,1,7.55-.94c3.82.21,8.89,1.37,15.06,4.78a76,76,0,0,1,5.64-18.74c4.28-9.28,11.5-18.39,23.23-17.69A21.52,21.52,0,0,1,539,489.43a23.34,23.34,0,0,1,6.54,14.3,41.64,41.64,0,0,1-1.58,16.1A34.24,34.24,0,0,1,533,536a39.26,39.26,0,0,1,11.81,12.42,23.55,23.55,0,0,1,2.95,8.09c1.42,9-2.58,19.19-11.08,28.26s-21.49,17-38.05,21.4a63.16,63.16,0,0,1,13.08,8.12c6,4.88,11.75,11.78,11.81,20.29a20.55,20.55,0,0,1-1.71,8.19,27.48,27.48,0,0,1-2.63,4.73c-8,11.88-27.31,16.29-45.42,17.64a226,226,0,0,1-38.14-.7q-1.47-3.12-3.15-6.38c-1.12-2.17-2.31-4.39-3.58-6.63-2.05-3.63-4.14-7-6.23-10.27S418.49,634.92,416.43,632.11Z"/><path class="cls-4" d="M668.74,397.84a1.49,1.49,0,0,1-1.06-.44,1.51,1.51,0,0,1-.44-1.06V387.4a1.5,1.5,0,0,1,1.5-1.5,1.51,1.51,0,0,1,1.06.44,1.49,1.49,0,0,1,.44,1.06v8.94a1.5,1.5,0,0,1-1.5,1.5Z"/><path class="cls-4" d="M773.74,445.55a1.49,1.49,0,0,1-1.06-.44,1.46,1.46,0,0,1-.44-1.06v-8.94a1.5,1.5,0,0,1,1.5-1.5,1.46,1.46,0,0,1,1.06.44,1.49,1.49,0,0,1,.44,1.06v8.94a1.5,1.5,0,0,1-1.5,1.5Z"/><path class="cls-4" d="M691.56,494.32a1.49,1.49,0,0,1-1.06-.44,1.46,1.46,0,0,1-.44-1.06v-8.94a1.5,1.5,0,0,1,1.5-1.5,1.46,1.46,0,0,1,1.06.44,1.49,1.49,0,0,1,.44,1.06v8.94a1.5,1.5,0,0,1-1.5,1.5Z"/><path class="cls-8" d="M230.14,480.88a31.71,31.71,0,0,0-11.58-12.79,30.83,30.83,0,0,0-33.77.6,31.83,31.83,0,0,0-11.57,14.18,28.41,28.41,0,0,0-8-.72,23.14,23.14,0,0,0-13.44,4.8,23.83,23.83,0,0,0-8.52,15.18,24.84,24.84,0,0,0,3.47,17.14,23.8,23.8,0,0,0,12.08,9.37,29.21,29.21,0,0,0,8.22,1.77,35.46,35.46,0,0,0,1.4,9.73A29.52,29.52,0,0,0,177.9,555a30,30,0,0,0,18.43,6.7,35.67,35.67,0,0,0,20.23-5.76,29,29,0,0,0,17.78,2.48,25.48,25.48,0,0,0,14.79-8.3,25.12,25.12,0,0,0,5.85-16.2,31.14,31.14,0,0,0-1.12-9,26.49,26.49,0,0,0,7.55-15.28,25.6,25.6,0,0,0-15.23-27A26.52,26.52,0,0,0,230.14,480.88Z"/><path class="cls-7" d="M239.9,514.68c-.61,6.69-5,12.4-11.72,16.22s-15.59,5.74-25.17,4.87-18-4.37-23.89-9.33-9.21-11.38-8.6-18.07,5-12.4,11.72-16.22,15.6-5.74,25.18-4.87,18,4.37,23.88,9.33S240.51,508,239.9,514.68Z"/><path class="cls-1" d="M252.3,812.23a26.82,26.82,0,0,0,18.42-10.18,24.31,24.31,0,0,0-4.05-34.82,27,27,0,0,0-18-5.76,30.17,30.17,0,0,0,17.94-16.42,27.16,27.16,0,0,0-15.52-37.31,30.3,30.3,0,0,0-22.32.38,33.92,33.92,0,0,0,4.39-7.6,31.21,31.21,0,0,0-5.39-33,35.6,35.6,0,0,0-7.82-6.86,31.86,31.86,0,0,0-19-2.41,28.44,28.44,0,0,0-23.66,28.86,32,32,0,0,0,8.17,21,30.06,30.06,0,0,0-23.88,1.77c-6.88,3.61-12.1,9.74-13.86,17a26.47,26.47,0,0,0,3.82,20.33,30,30,0,0,0,18.1,13,32.91,32.91,0,0,0-19.45,3.94,26,26,0,0,0-11.86,13.5,26.48,26.48,0,0,0-1.37,12.16,23.85,23.85,0,0,0,5.38,12.56A24.26,24.26,0,0,0,154.13,810a27.32,27.32,0,0,0,7.57,1.17,29.26,29.26,0,0,0-22.61,28.48h0a29.26,29.26,0,0,0,29.25,29.24H242a29.26,29.26,0,0,0,29.25-29.24h0a29.28,29.28,0,0,0-19-27.39Z"/><path class="cls-2" d="M216.21,610a48.7,48.7,0,0,0-25.34-3.42,37.5,37.5,0,0,0-21.1,10.06,35.6,35.6,0,0,0-8.24,12.58,42.55,42.55,0,0,0-2.53,9.88,50.93,50.93,0,0,0-27.74,3.32,44.57,44.57,0,0,0-20.47,17.09A43.71,43.71,0,0,0,104.35,678a48.8,48.8,0,0,0,1.86,19.77,47.63,47.63,0,0,0,40.43,33.3,45.88,45.88,0,0,0,7.27.2,44.14,44.14,0,0,0,7.76-1.12c11-2.61,20.76-9.48,27.88-19.12a64.25,64.25,0,0,0,12.16-35.75,40.4,40.4,0,0,0,8.33-3.58,36.27,36.27,0,0,0,10-8.35c6.69-8.05,8.41-17.39,8.4-24.94a49.74,49.74,0,0,0-2.07-14.21l-5.08-7.07Z"/><path class="cls-8" d="M489.87,736.35,449,774l-40.85,37.69a34,34,0,0,0-6,7.36,31.16,31.16,0,0,0-3.61,8.76c0,.19-.09.38-.13.57l-.12.58a40.23,40.23,0,0,0-.7,11.4,28.59,28.59,0,0,0,20.2,25.84,33.57,33.57,0,0,0,8.71,1.61H592.83V798.13H548.72a79,79,0,0,0,8.36-18.7,79.8,79.8,0,0,0,3.25-25.25,85.49,85.49,0,0,0-2.44-17.83h-68Z"/><path class="cls-7" d="M310.58,807.64V842.7a7.33,7.33,0,0,0,3.3,6.11l12.32,8.1,12.32,8.1a1.49,1.49,0,0,1-.82,2.74H254.44a5.74,5.74,0,0,1-5.73-5.73V807.64h61.87Z"/><path class="cls-7" d="M340.67,807.64V842.7a7.33,7.33,0,0,0,3.3,6.11l12.32,8.1,12.32,8.1a1.49,1.49,0,0,1-.82,2.74h-78.9a5.74,5.74,0,0,1-5.73-5.73V807.64h57.51Z"/><path class="cls-4" d="M340.68,641.75V807.64H283.16V641.75s14.38-.19,28.76-.28S340.68,641.38,340.68,641.75Z"/><path class="cls-10" d="M550,577a24.84,24.84,0,1,1-7.28-17.57A24.79,24.79,0,0,1,550,577Z"/><path class="cls-10" d="M585.7,599.43a30.15,30.15,0,1,1-8.83-21.32A30,30,0,0,1,585.7,599.43Z"/><path class="cls-10" d="M607.72,633.28a28.12,28.12,0,1,1-8.23-19.88A28.07,28.07,0,0,1,607.72,633.28Z"/><path class="cls-3" d="M486.67,623.35s-8.17,1.08-16.95,11.21-18.15,29.31-20.58,65.5l-2.86,39.43-2.86,39.44,23.23-21.29,23.22-21.29h68l.83,4.55.83,4.56-20.28,22.62L519,790.7l20.27,19.78,20.28,19.77,22.74-21.68L605,786.9A60.76,60.76,0,0,0,619.33,766a57.82,57.82,0,0,0,4.32-24.86c0-.27,0-.54,0-.81s0-.54-.06-.82a61.49,61.49,0,0,0-.89-6.76c-.4-2.13-.89-4.12-1.43-6l-7.07-29.21-7.06-29.21a74.6,74.6,0,0,0-13.25-27c-10.31-13.3-28-26.15-57.5-24.42l-24.84,3.21Z"/><path class="cls-6" d="M474.88,629.47l25.24,19.38,9.42,7.22h0l-2.87-9.32c-1.83-6-4.47-14.54-7.68-25l-6.16.8-6.16.79c-.25,0-.55.1-.87.18s-.69.18-1.08.3l-.85.29-.76.31c-.74.3-1.38.6-1.88.85s-.87.44-1,.53l-.86.49c-.39.23-.87.53-1.41.88s-.9.61-1.41,1S475.45,629,474.88,629.47Z"/><path class="cls-6" d="M509.55,656.06,518,637.14l8.45-18.92c1.9-.37,3.69-.64,5.34-.85s3.19-.34,4.56-.43c2.46-.16,4.73-.19,6.78-.16s3.85.16,5.39.29c2.2.19,4.11.46,5.57.69s2.47.44,2.88.52c1.46.31,2.82.64,4.06,1s2.36.68,3.35,1L537,638.16Z"/><path class="cls-4" d="M248.71,641.75V807.64h61.64l-.09-82.95-.09-83H248.71Z"/><path class="cls-6" d="M509.55,656.06q1.54,8.66,3.08,17.3l3.09,17.3a2.45,2.45,0,0,0,3.29,1.85l4.88-1.89,4.87-1.89a2.45,2.45,0,0,0,1.12-3.69l-10.17-14.49Z"/><path class="cls-6" d="M509.55,656.06l-.84,17.27-.84,17.27a2.08,2.08,0,0,1-1,1.68,2.11,2.11,0,0,1-1.93.17l-5.28-2.19-5.29-2.18a2.1,2.1,0,0,1-1-3l8.09-14.52Z"/><path class="cls-9" d="M536.64,601a29,29,0,1,1-8.5-20.52A29,29,0,0,1,536.64,601Z"/><path class="cls-2" d="M519,790.7h0c.87-.87,0,0-1.3,1.32L513.78,796s-1,.94-2.62,2.45-4,3.59-6.85,5.85c-5.82,4.66-11.71,7.53-17.82,10.69s-12.44,6.59-19.11,12.39c-1.09.95-2.5,2.22-4.1,3.84a77.86,77.86,0,0,0-5.26,5.88,14.16,14.16,0,0,0-2.85,5,4.13,4.13,0,0,0,.3,3.67,2.9,2.9,0,0,0,.53.51,3.58,3.58,0,0,0,.92.45,6,6,0,0,0-1.28,3.85,4.76,4.76,0,0,0,1.4,3.32,4.66,4.66,0,0,0,3,1.21,6.83,6.83,0,0,0,1.78-.16,7.06,7.06,0,0,0,2.46,3.53c1.91,1.4,5.17,2.09,10.57-.79a86.25,86.25,0,0,1,10.27-4.69c6.12-2.37,14.24-4.76,22.18-4.9a6,6,0,0,1,2.75.91c1.08.79,1.58,2.27-.75,5-1.18,1.39-2.38,2.77-3.55,4.17s-2.35,2.81-3.48,4.25l-.71.91-.72.91a6.72,6.72,0,0,0-1.73,4.5,4.28,4.28,0,0,0,1.52,3.39,3.28,3.28,0,0,0,1.25.55,4.48,4.48,0,0,0,1.47.07,5,5,0,0,0,1.52-.4,7.23,7.23,0,0,0,1.36-.82q6.9-4.71,14.05-9.9t14.48-10.9c4.42-3.44,8.69-6.88,12.82-10.28s8.1-6.8,11.93-10.15l-20.28-19.77Z"/><path class="cls-5" d="M461.86,856.12a1.21,1.21,0,0,1-.61-.16,1.19,1.19,0,0,1-.47-.45,1.33,1.33,0,0,1-.14-1,1.24,1.24,0,0,1,.57-.76c.45-.27,5.93-3.53,12.93-7.22s15.53-7.83,22.07-9.82a1.26,1.26,0,0,1,1,.09,1.24,1.24,0,0,1,.6.74,1.2,1.2,0,0,1-.09.95,1.26,1.26,0,0,1-.74.61c-6.4,2-14.95,6.12-21.94,9.81s-12.39,6.92-12.5,7a1.3,1.3,0,0,1-.32.14A1.12,1.12,0,0,1,461.86,856.12Z"/><path class="cls-5" d="M456.93,847.9a1.28,1.28,0,0,1-1.08-.61,1.24,1.24,0,0,1-.14-.95,1.27,1.27,0,0,1,.58-.77c.45-.26,6-3.54,12.72-7.1s14.61-7.39,19.74-8.75a1.25,1.25,0,0,1,.95.13,1.24,1.24,0,0,1,.45,1.7,1.19,1.19,0,0,1-.76.58c-5,1.32-12.87,5.19-19.56,8.74s-12.16,6.79-12.27,6.85a1.23,1.23,0,0,1-.31.14A1.22,1.22,0,0,1,456.93,847.9Z"/><path class="cls-5" d="M458,838.31a1.25,1.25,0,0,1-.65-.18,1.29,1.29,0,0,1-.47-.51,1.25,1.25,0,0,1,.56-1.68c.39-.2,5.24-2.62,10.73-5.24s11.62-5.43,14.59-6.39a1.24,1.24,0,0,1,1,.07,1.22,1.22,0,0,1,.62.73,1.24,1.24,0,0,1-.07.95,1.27,1.27,0,0,1-.73.63c-2.88.93-9.07,3.78-14.57,6.4s-10.3,5-10.4,5.09l-.28.1A1.27,1.27,0,0,1,458,838.31Z"/><path class="cls-5" d="M493.33,609.33a1.9,1.9,0,0,1-.55,1.34,1.9,1.9,0,0,1-2.69,0,1.91,1.91,0,0,1,0-2.68,1.9,1.9,0,0,1,2.69,0A1.9,1.9,0,0,1,493.33,609.33Z"/><path class="cls-5" d="M508.24,607.06a1.88,1.88,0,0,1-1.89,1.89,1.92,1.92,0,0,1-1.35-.55,1.9,1.9,0,1,1,3.24-1.34Z"/><path class="cls-10" d="M500.8,621.46a10.28,10.28,0,0,1-4.52-1.12,9.56,9.56,0,0,1-1.9-1.21,1.25,1.25,0,1,1,1.61-1.91,8.07,8.07,0,0,0,2,1.17,6.68,6.68,0,0,0,7.89-1.9,7.71,7.71,0,0,0,1.14-1.82,1.26,1.26,0,0,1,.69-.67,1.21,1.21,0,0,1,.95,0,1.27,1.27,0,0,1,.67.68,1.23,1.23,0,0,1,0,1,10.31,10.31,0,0,1-1.63,2.57,9.3,9.3,0,0,1-4.14,2.79,8.94,8.94,0,0,1-1.43.34A9.12,9.12,0,0,1,500.8,621.46Z"/><path class="cls-1" d="M373.59,478.45c.94,7.42-3.87,14.86-12.42,20.89S340.35,510,326.36,511.75s-27,.38-36.8-3.32-16.3-9.7-17.24-17.12,3.87-14.86,12.42-20.89,20.82-10.64,34.8-12.42,27-.37,36.8,3.33S372.65,471,373.59,478.45Z"/><path class="cls-6" d="M300.61,516.48a64.77,64.77,0,0,0-27.12,4.81c-13.9,5.83-28.49,18.52-31.26,46l3.24,37.26,3.24,37.25h92l14.26-45.33L369.2,551.1s-1.22-8.62-10.41-17.26S332.45,516.55,300.61,516.48Z"/><path class="cls-5" d="M352,869a1.09,1.09,0,0,1-.43-.08,1.12,1.12,0,0,1-.39-.23,1.2,1.2,0,0,1-.42-.85,1.29,1.29,0,0,1,.3-.91,2,2,0,0,0,.45-1.27,1.59,1.59,0,0,0-.11-.5,1.63,1.63,0,0,0-.17-.35l-18.91-7.42L313.42,850a7.35,7.35,0,0,1-1.25-.56,6.17,6.17,0,0,1-1.09-.81,6,6,0,0,1-1.82-3.66,40.87,40.87,0,0,1-.23-6.1V837c0-.65,0-1.34,0-2.07,0-.91,0-1.75,0-2.46s0-1.33-.05-1.79V643.18a1.24,1.24,0,0,1,2.13-.88,1.21,1.21,0,0,1,.37.88V830.64c0,.45,0,1.05.05,1.78s0,1.57,0,2.5c0,.73,0,1.43,0,2.08v1.86a43.31,43.31,0,0,0,.16,5.4,3.78,3.78,0,0,0,1.1,2.52,3.33,3.33,0,0,0,.66.49,4,4,0,0,0,.82.35l19.22,7.54,19.23,7.55.09.09.1.1a4.21,4.21,0,0,1,1.1,2.67,4.39,4.39,0,0,1-1.05,3,1.34,1.34,0,0,1-.44.32A1.26,1.26,0,0,1,352,869Z"/><path class="cls-10" d="M307.07,643h-.14a1.25,1.25,0,0,1-1.1-1.39l6.56-56.93L319,527.74a1.26,1.26,0,0,1,.46-.84,1.22,1.22,0,0,1,.93-.25,1.2,1.2,0,0,1,.83.46,1.24,1.24,0,0,1,.26.92L314.87,585l-6.56,56.93a1.2,1.2,0,0,1-.41.79A1.23,1.23,0,0,1,307.07,643Z"/><path class="cls-4" d="M481.36,477.35c.29.12.58.23.89.33s.61.2.94.28a18.93,18.93,0,0,0,5.1.68A11.66,11.66,0,0,0,495.8,476a11.94,11.94,0,0,0,3.88-6.91,13.89,13.89,0,0,0-.86-8,13.3,13.3,0,0,0-4.55-5.56,14.3,14.3,0,0,0-6.86-2.52,17.7,17.7,0,0,0,5.35-1.13,13.57,13.57,0,0,0,5.71-4.1,14.49,14.49,0,0,0,3.17-8.95,16.35,16.35,0,0,0-3-9.57A18.23,18.23,0,0,0,495,425.9a14,14,0,0,0-8.43-2.64,14.32,14.32,0,0,0-9.45,4.26,18.16,18.16,0,0,0-5.19,10.35,15,15,0,0,0-6.53-7.5,13.27,13.27,0,0,0-9.23-1.53,13.06,13.06,0,0,0-6.5,3.51A13.43,13.43,0,0,0,446,439a13.44,13.44,0,0,0,1.42,9.44l-.51-.43-.51-.43a13.23,13.23,0,0,0-18.65,1.53h0a13.23,13.23,0,0,0,1.53,18.65l5,4.29,5.06,4.29-12.66,14.91L414,506.19l7.28,6.18,7.27,6.17,12.66-14.91,12.66-14.91,5.05,4.29L464,497.3a13.21,13.21,0,0,0,18.65-1.52h0a13.23,13.23,0,0,0-1.28-18.43Z"/><path class="cls-7" d="M343.14,560.68,359.8,535.1l16.66-25.58a46.18,46.18,0,0,1,17.86-16.37,35.38,35.38,0,0,1,39,3.68,38.35,38.35,0,0,1,6.7,6.54,37.43,37.43,0,0,1,4,6.46,32.94,32.94,0,0,1,3.29,12.43,36.81,36.81,0,0,1-3.94,18.29,37.89,37.89,0,0,1-8.32,11.37L369.21,610l-65.86,58.08a11.11,11.11,0,0,1-14.4.24l-3.8-3.13-3.79-3.14a11.1,11.1,0,0,1-1.87-15.14l31.83-43.11Q327.22,582.23,343.14,560.68Z"/><path class="cls-5" d="M390.64,588.27a1.27,1.27,0,0,1-.47-.09,1.22,1.22,0,0,1-.41-.27L379,577.19l-10.72-10.72a1.25,1.25,0,0,1-.37-.88,1.29,1.29,0,0,1,.37-.89,1.24,1.24,0,0,1,.88-.36,1.28,1.28,0,0,1,.89.36l10.72,10.72,10.71,10.72a1.21,1.21,0,0,1,.37.88,1.25,1.25,0,0,1-.37.89,1.22,1.22,0,0,1-.41.27A1.27,1.27,0,0,1,390.64,588.27Z"/><path class="cls-5" d="M423.94,563a1.27,1.27,0,0,1-.47-.09,1.22,1.22,0,0,1-.41-.27L410.37,550.1l-12.7-12.52a1.25,1.25,0,0,1-.37-.88,1.25,1.25,0,0,1,1.24-1.26,1.26,1.26,0,0,1,.89.36l12.69,12.52,12.7,12.53a1.24,1.24,0,0,1,0,1.76,1.07,1.07,0,0,1-.42.28A1.1,1.1,0,0,1,423.94,563Z"/><path class="cls-6" d="M242.23,567.24l-3.46,20.89L235.31,609a41.15,41.15,0,0,0,.4,15.09c1.79,7.76,6.77,15.94,19.5,17.64h51.86v-41l-12.55-.15L282,600.41l2.17-13.7L286.31,573l-22-2.89Z"/><path class="cls-10" d="M293.08,643a1.24,1.24,0,0,1-.88-.37,1.22,1.22,0,0,1-.37-.88V600.54a1.22,1.22,0,0,1,.37-.88,1.24,1.24,0,0,1,1.77,0,1.26,1.26,0,0,1,.36.88v41.21a1.25,1.25,0,0,1-1.25,1.25Z"/><path class="cls-9" d="M307.07,600.71a22.26,22.26,0,0,0,7.1-.52,23.42,23.42,0,0,0,13.39-8.42,18.93,18.93,0,0,1,3.41-3.13c2-1.36,4.4-2.29,6.35-.6a4.35,4.35,0,0,1,1.46,2.82,5,5,0,0,1-.69,3.16l-3.68,6.05-3.68,6a8.2,8.2,0,0,0-.41,3.7c.28,1.86,1.54,3.75,5.45,3.87h21.37a8.3,8.3,0,0,1,3.87.52,3.22,3.22,0,0,1,2,1.89,2.2,2.2,0,0,1,.09.65,2.84,2.84,0,0,1-.19,1,4.12,4.12,0,0,1,.85.74,3.24,3.24,0,0,1,.8,1.94,3.19,3.19,0,0,1-.61,2,3.67,3.67,0,0,1-1.78,1.34,3.38,3.38,0,0,1,.18.75,3,3,0,0,1,0,.6,3.84,3.84,0,0,1-1.5,2.48,8.67,8.67,0,0,1-3.43,1.6,141.51,141.51,0,0,1-15.18,5.71,145.75,145.75,0,0,1-35.13,6.85v-41Z"/><path class="cls-10" d="M339.13,621.12a1.26,1.26,0,0,1-.84-.33,1.22,1.22,0,0,1-.41-.81,1.27,1.27,0,0,1,1.14-1.36l11.87-1.07,11.87-1.07a1.24,1.24,0,0,1,1.36,1.13A1.27,1.27,0,0,1,363,619L351.11,620l-11.87,1.07h-.11Z"/><path class="cls-10" d="M339.69,627.93a1.3,1.3,0,0,1-.82-.31,1.27,1.27,0,0,1-.41-.78,1.24,1.24,0,0,1,1.08-1.4L350.75,624,362,622.52a1.32,1.32,0,0,1,.93.25,1.25,1.25,0,0,1,.47.83,1.23,1.23,0,0,1-.25.93,1.21,1.21,0,0,1-.83.47l-11.21,1.46-11.22,1.46h-.17Z"/><path class="cls-9" d="M399.62,577.11h-35.3a7.47,7.47,0,0,0-1.63.18,5.65,5.65,0,0,0-1.53.57,5.39,5.39,0,0,0-2.06,1.94,6.69,6.69,0,0,0-.84,3.88,4.45,4.45,0,0,0-3.17.93,4.07,4.07,0,0,0-1,5.49,4.55,4.55,0,0,0,2.29,1.83,8.14,8.14,0,0,0,.23,3.37c.51,1.72,1.85,3.48,5.11,3.68a9.78,9.78,0,0,0,1.08,3.38,5.88,5.88,0,0,0,5.57,3.28h30.21A36.33,36.33,0,0,0,414.69,602c4.93-2.5,9-6.39,10.66-11.94a23.29,23.29,0,0,0,1-8.11,19.77,19.77,0,0,0-2-7.87,15.46,15.46,0,0,0-7.51-7,46.35,46.35,0,0,0-10.05-3c-1.81-.38-3.6-.82-5.41-1.22s-3.61-.75-5.45-1a29.4,29.4,0,0,0-3-.22,11,11,0,0,0-3,.33,2.88,2.88,0,0,0-1.92,1.66,3.71,3.71,0,0,0-.09,2.59,5.1,5.1,0,0,0,2.22,2.72,15.19,15.19,0,0,0,3.29,1.51c1.4.49,2.83.9,4.28,1.27s2.92.67,4.37,1a5.5,5.5,0,0,1,2.07.8,1.63,1.63,0,0,1,.72,1.92c-.27.92-1.2,1.34-2.25,1.53A13,13,0,0,1,399.62,577.11Z"/><path class="cls-10" d="M388,600.23H361.75A1.23,1.23,0,0,1,360.5,599a1.25,1.25,0,0,1,1.25-1.25H388a1.24,1.24,0,0,1,.88.37,1.22,1.22,0,0,1,.37.88,1.25,1.25,0,0,1-.37.89A1.27,1.27,0,0,1,388,600.23Z"/><path class="cls-10" d="M387.44,593.15h-31a1.25,1.25,0,0,1-.88-2.14,1.27,1.27,0,0,1,.88-.36h31a1.25,1.25,0,0,1,.89,2.13A1.25,1.25,0,0,1,387.44,593.15Z"/><path class="cls-10" d="M386.62,584.94H358.26a1.25,1.25,0,0,1-.89-.37,1.25,1.25,0,0,1,.89-2.13h28.36a1.27,1.27,0,0,1,.88.36,1.26,1.26,0,0,1-.88,2.14Z"/><polygon class="cls-7" points="300.61 516.48 298.65 527.89 296.7 539.3 308.45 533.59 320.19 527.89 310.4 522.18 300.61 516.48"/><polygon class="cls-7" points="320.19 527.89 329.49 525.02 338.78 522.15 339.48 533.74 340.19 545.32 330.19 536.6 320.19 527.89"/><path class="cls-7" d="M592.83,867.85h35.06a7.33,7.33,0,0,1,6.12,3.3l8.09,12.32,8.1,12.32A1.5,1.5,0,0,0,653,895V804.5a5.74,5.74,0,0,0-5.73-5.73H592.83v69.08Z"/><path class="cls-10" d="M505,600.75a44.11,44.11,0,0,0,18.27,4.89,47.66,47.66,0,0,0,13.21-1.21c.07-.56.12-1.13.16-1.7s0-1.15,0-1.73A29,29,0,0,0,486,581.69a47.16,47.16,0,0,0,7,9.93A43.64,43.64,0,0,0,505,600.75Z"/><path class="cls-10" d="M307.07,602h0l-13.28-.16-13.28-.16,2.29-14.41,2.29-14.41a1.2,1.2,0,0,1,.5-.81,1.26,1.26,0,0,1,.93-.23,1.27,1.27,0,0,1,.81.5,1.26,1.26,0,0,1,.23.93l-2.06,13-2.06,13,11.83.14,11.83.14a1.23,1.23,0,0,1,1.23,1.26,1.2,1.2,0,0,1-.37.87A1.24,1.24,0,0,1,307.07,602Z"/><path class="cls-5" d="M325,554.7l-.29-.13-.29-.12a47.27,47.27,0,0,1-11-6.65,44.68,44.68,0,0,1-16.14-28.08,46.37,46.37,0,0,1-.34-11.15,1.25,1.25,0,0,1,.45-.85,1.23,1.23,0,0,1,.91-.28,1.25,1.25,0,0,1,1.14,1.35,43.19,43.19,0,0,0,.31,10.54,42.13,42.13,0,0,0,14.84,26.19,44.49,44.49,0,0,0,10.26,6.37,49.94,49.94,0,0,0,10.3-8.58,44.2,44.2,0,0,0,11.85-28.15,46.57,46.57,0,0,0-.85-11.33,1.23,1.23,0,0,1,.18-.94,1.25,1.25,0,0,1,.8-.53,1.27,1.27,0,0,1,.94.18,1.29,1.29,0,0,1,.53.8,49.12,49.12,0,0,1,.89,11.95,47.27,47.27,0,0,1-2,11.66,47.78,47.78,0,0,1-10.92,18.54,52.44,52.44,0,0,1-11,8.88l-.27.16Z"/><path class="cls-5" d="M319.14,565.12a1.86,1.86,0,0,1-.33,0,1.23,1.23,0,0,1-.31-.14,1.21,1.21,0,0,1-.57-.76,1.24,1.24,0,0,1,.14-.95L321,558.4l2.88-4.84a1.62,1.62,0,0,1,.5-.51,1.45,1.45,0,0,1,.68-.23,1.54,1.54,0,0,1,.71.1,1.58,1.58,0,0,1,.58.41l3.93,4.42,3.93,4.43a1.31,1.31,0,0,1,.32.91,1.25,1.25,0,0,1-2.19.75l-3.49-3.93L325.3,556l-2.54,4.27-2.55,4.27a1.17,1.17,0,0,1-.46.45A1.32,1.32,0,0,1,319.14,565.12Z"/><path class="cls-9" d="M349,500.91a27,27,0,1,1-7.9-19.07A26.91,26.91,0,0,1,349,500.91Z"/><path class="cls-5" d="M317,504.78a1.9,1.9,0,0,1-3.24,1.34,1.88,1.88,0,0,1-.55-1.34,1.88,1.88,0,0,1,1.89-1.89,1.89,1.89,0,0,1,1.9,1.89Z"/><path class="cls-5" d="M333,502.89a1.9,1.9,0,0,1-3.23,1.34,1.88,1.88,0,0,1,0-2.68,1.89,1.89,0,0,1,1.34-.56,1.92,1.92,0,0,1,1.34.56A1.9,1.9,0,0,1,333,502.89Z"/><path class="cls-10" d="M323.84,517.3A10.08,10.08,0,0,1,319,516a10.89,10.89,0,0,1-2-1.42,1.31,1.31,0,0,1-.38-.88,1.23,1.23,0,0,1,.35-.89,1.2,1.2,0,0,1,.87-.38,1.25,1.25,0,0,1,.9.35,8.28,8.28,0,0,0,2,1.29,6.7,6.7,0,0,0,8-1.41A7.61,7.61,0,0,0,330,510.9a1.3,1.3,0,0,1,.72-.63,1.29,1.29,0,0,1,1,.07,1.27,1.27,0,0,1,.62.73,1.21,1.21,0,0,1-.07.95,10,10,0,0,1-1.78,2.47,9.3,9.3,0,0,1-4.31,2.52,8.36,8.36,0,0,1-1.15.23A10.56,10.56,0,0,1,323.84,517.3Z"/><path class="cls-10" d="M311.48,500.11a19.3,19.3,0,0,0,8.63-4.83,20.25,20.25,0,0,0,3.48-4.33,13.2,13.2,0,0,0,3.7.35,11.77,11.77,0,0,0,6.29-2,11.64,11.64,0,0,0,3.62-4.08,13.45,13.45,0,0,0,1.54-5.39,26.67,26.67,0,0,0-43.14,17.41,23,23,0,0,0,6.49,2.84A18.67,18.67,0,0,0,311.48,500.11Z"/><path class="cls-5" d="M550,836.65a1.27,1.27,0,0,1-.47-.09,1.22,1.22,0,0,1-.41-.27L530.56,818,512,799.66a1.21,1.21,0,0,1-.37-.88,1.28,1.28,0,0,1,.36-.89,1.25,1.25,0,0,1,.88-.37,1.28,1.28,0,0,1,.89.36l18.53,18.32,18.53,18.31a1.3,1.3,0,0,1,.38.88,1.23,1.23,0,0,1-.37.89,1.25,1.25,0,0,1-.41.28A1.27,1.27,0,0,1,550,836.65Z"/><path class="cls-4" d="M558.25,739.56a1.27,1.27,0,0,1-.8-.29,1.22,1.22,0,0,1-.43-.74l-4.14-23.25L548.75,692a1.2,1.2,0,0,1,.2-.93,1.22,1.22,0,0,1,.81-.52,1.21,1.21,0,0,1,.93.21,1.24,1.24,0,0,1,.52.8l4.13,23.25,4.14,23.25a1.27,1.27,0,0,1-1,1.45h-.22Z"/><path class="cls-4" d="M488.18,737.7a12.05,12.05,0,0,1-8.74-3.58c-5.29-5.22-7.18-15.31-7.73-24.26a114.44,114.44,0,0,1,.31-17.38,1.19,1.19,0,0,1,.45-.84,1.3,1.3,0,0,1,.92-.28,1.26,1.26,0,0,1,.84.46,1.25,1.25,0,0,1,.27.92,119.26,119.26,0,0,0-.31,16.32c.46,8.66,2.14,18.49,7,23.28a9.7,9.7,0,0,0,3.85,2.39,10.89,10.89,0,0,0,4.68.38,1.24,1.24,0,0,1,1.39,1.09,1.23,1.23,0,0,1-.25.92,1.27,1.27,0,0,1-.84.47c-.31,0-.62.06-.93.08Z"/><path class="cls-1" d="M487.08,769.25l1.05-.39c.35-.14.7-.29,1.06-.46a22.27,22.27,0,0,0,5.09-3.28A13.74,13.74,0,0,0,499,757a14,14,0,0,0-1.78-9.17,16.4,16.4,0,0,0-6.86-6.52,15.55,15.55,0,0,0-8.33-1.52,16.74,16.74,0,0,0-8.08,3,21,21,0,0,0,3.94-5.08,16.08,16.08,0,0,0,2-8.05,17,17,0,0,0-4-10.46,19.27,19.27,0,0,0-10-6.34,21.81,21.81,0,0,0-5.88-.22,16.52,16.52,0,0,0-9.59,4,17,17,0,0,0-5.25,11A21.48,21.48,0,0,0,448.48,741a17.77,17.77,0,0,0-11.59-1.76,15.67,15.67,0,0,0-9.47,5.67,15.5,15.5,0,0,0-3.15,8.11,15.77,15.77,0,0,0,1.76,8.83,15.55,15.55,0,0,0,3.59,4.51,16,16,0,0,0,4.89,2.9h-1.57a15.59,15.59,0,0,0-15.59,15.59h0a15.59,15.59,0,0,0,15.59,15.6h15.63v67.41h22.5V800.42H486.7a15.59,15.59,0,0,0,15.59-15.6h0a15.57,15.57,0,0,0-15.21-15.57Z"/><path class="cls-4" d="M653,497.32h-28.6a1.49,1.49,0,0,1-1.06-.44,1.46,1.46,0,0,1-.44-1.06,1.45,1.45,0,0,1,.44-1.06,1.49,1.49,0,0,1,1.06-.44H653a1.5,1.5,0,0,1,1.5,1.5,1.51,1.51,0,0,1-.44,1.06A1.49,1.49,0,0,1,653,497.32Z"/><path class="cls-6" d="M716.35,518.66a24.79,24.79,0,1,1-7.26-17.53A24.76,24.76,0,0,1,716.35,518.66Z"/><path class="cls-6" d="M798.53,468.84a24.79,24.79,0,1,1-7.26-17.53A24.74,24.74,0,0,1,798.53,468.84Z"/><path class="cls-6" d="M693.53,421.13a24.79,24.79,0,1,1-7.26-17.53A24.74,24.74,0,0,1,693.53,421.13Z"/><path class="cls-1" d="M629.2,769.25l1-.39c.35-.14.71-.29,1.07-.46a22.49,22.49,0,0,0,5.09-3.28,13.79,13.79,0,0,0,4.74-8.1,14,14,0,0,0-1.79-9.17,16.34,16.34,0,0,0-6.86-6.52,15.5,15.5,0,0,0-8.32-1.52,16.82,16.82,0,0,0-8.09,3,20.73,20.73,0,0,0,3.94-5.08,16.08,16.08,0,0,0,2-8.05,17,17,0,0,0-4-10.46,19.27,19.27,0,0,0-10-6.34,21.81,21.81,0,0,0-5.88-.22,16.5,16.5,0,0,0-9.58,4,17,17,0,0,0-5.25,11A21.48,21.48,0,0,0,590.61,741,17.78,17.78,0,0,0,579,739.21a15.67,15.67,0,0,0-9.47,5.67,15.51,15.51,0,0,0-3.16,8.11,15.86,15.86,0,0,0,1.77,8.83,15.52,15.52,0,0,0,3.58,4.51,16.15,16.15,0,0,0,4.89,2.9h-1.56a15.6,15.6,0,0,0-15.6,15.59h0a15.6,15.6,0,0,0,15.6,15.6H590.7v67.41h22.49V800.42h15.63a15.6,15.6,0,0,0,15.6-15.6h0a15.57,15.57,0,0,0-15.22-15.57Z"/><path class="cls-1" d="M358.13,769.25l1-.39c.36-.14.71-.29,1.07-.46a22.49,22.49,0,0,0,5.09-3.28,13.74,13.74,0,0,0,4.74-8.1,14,14,0,0,0-1.79-9.17,16.28,16.28,0,0,0-6.86-6.52,15.5,15.5,0,0,0-8.32-1.52,16.82,16.82,0,0,0-8.09,3,21,21,0,0,0,3.95-5.08,16.18,16.18,0,0,0,2-8.05,17,17,0,0,0-4-10.46,19.26,19.26,0,0,0-10-6.34,21.76,21.76,0,0,0-5.87-.22,16.5,16.5,0,0,0-9.59,4,17,17,0,0,0-5.25,11A21.48,21.48,0,0,0,319.53,741a17.77,17.77,0,0,0-11.59-1.76,15.67,15.67,0,0,0-9.47,5.67,15.51,15.51,0,0,0-3.16,8.11,15.86,15.86,0,0,0,1.77,8.83,15.55,15.55,0,0,0,3.59,4.51,16.1,16.1,0,0,0,4.88,2.9H304a15.6,15.6,0,0,0-15.6,15.59h0a15.6,15.6,0,0,0,15.6,15.6h15.63v67.41h22.5V800.42h15.63a15.6,15.6,0,0,0,15.59-15.6h0a15.57,15.57,0,0,0-15.21-15.57Z"/><path class="cls-5" d="M753.62,724.71H682.49a1.24,1.24,0,0,1-.88-.37,1.23,1.23,0,0,1,0-1.76,1.24,1.24,0,0,1,.88-.37h71.13a1.24,1.24,0,0,1,.88.37,1.23,1.23,0,0,1,0,1.76A1.24,1.24,0,0,1,753.62,724.71Z"/><path class="cls-4" d="M118,717.26a1.44,1.44,0,0,1-.5-.1,1.35,1.35,0,0,1-.42-.3,1.21,1.21,0,0,1-.33-.9,1.25,1.25,0,0,1,.39-.87L166.68,669,216.18,623a1.29,1.29,0,0,1,.9-.33,1.23,1.23,0,0,1,1.2,1.29,1.23,1.23,0,0,1-.39.87l-49.5,46.07-49.5,46.06a1.16,1.16,0,0,1-.41.25A1.12,1.12,0,0,1,118,717.26Z"/><path class="cls-4" d="M436.56,645.61a1.33,1.33,0,0,1-.34-.05,1,1,0,0,1-.33-.15,1.29,1.29,0,0,1-.55-.79,1.27,1.27,0,0,1,.17-.94l50.2-77.57,50.19-77.56a1.21,1.21,0,0,1,.79-.54,1.22,1.22,0,0,1,.94.17,1.24,1.24,0,0,1,.54.79,1.22,1.22,0,0,1-.17.94l-50.19,77.56L437.61,645a1.23,1.23,0,0,1-.46.42A1.2,1.2,0,0,1,436.56,645.61Z"/><path class="cls-8" d="M374.19,200.08A28.88,28.88,0,0,0,362,188.64a31.38,31.38,0,0,0-16.35-3.16,35.32,35.32,0,0,0,.77-4.15,36,36,0,0,0,.26-4.31,35,35,0,0,0-64.4-18.93,37.26,37.26,0,0,0-73.52,12.09,36.32,36.32,0,0,0,1.26,5.43,35,35,0,0,0-49.15,32,34.65,34.65,0,0,0,.89,7.87,34.3,34.3,0,0,0,2.53,7.24A31.41,31.41,0,0,0,152.57,281a31.41,31.41,0,1,0,45.82,41.8c3.46,8.13,12.11,13.62,23.47,15.91s25.44,1.38,39.75-3.29c13.12-4.27,24.22-11,32-18.67s12.26-16.33,12.13-24.46a36.07,36.07,0,0,0,17.38,3.9,38.05,38.05,0,0,0,18-5.13,37.65,37.65,0,0,0,17.05-20.8,34.14,34.14,0,0,0-1.66-25.78c.89-.32,1.77-.69,2.64-1.09s1.73-.85,2.58-1.34a32.5,32.5,0,0,0,15-18.87A29.29,29.29,0,0,0,374.19,200.08Z"/><path class="cls-7" d="M321.51,212.22c4.51,10.43.73,23.27-9,35.6S287,272,267.61,280.36s-38.79,11.75-54.45,10.42S185.55,283.4,181,273s-.73-23.27,9-35.6,25.49-24.15,44.88-32.54,38.79-11.76,54.45-10.42S317,201.79,321.51,212.22Z"/><path class="cls-3" d="M453.89,488.72l-4.34-3.82-4.34-3.82-.69,9.74-.69,9.74,5-5.92Q451.36,491.67,453.89,488.72Z"/><path class="cls-5" d="M450.25,453.4a1.25,1.25,0,0,1-.46-.09,1.45,1.45,0,0,1-.4-.26l-1.45-1.39-1.44-1.38a1.22,1.22,0,0,1-.38-.88,1.26,1.26,0,0,1,.34-.89,1.22,1.22,0,0,1,.88-.38,1.26,1.26,0,0,1,.89.34l1.44,1.39,1.45,1.38a1.22,1.22,0,0,1,.38.88,1.26,1.26,0,0,1-.34.89,1.36,1.36,0,0,1-.43.29A1.29,1.29,0,0,1,450.25,453.4Z"/><path class="cls-5" d="M488.46,454.88h-.18l-2-.29-2-.29a1.24,1.24,0,0,1-1.05-1.42,1.26,1.26,0,0,1,1.42-1.06l2,.29,2,.29a1.26,1.26,0,0,1,1.06,1.42,1.24,1.24,0,0,1-.43.77A1.23,1.23,0,0,1,488.46,454.88Z"/><path class="cls-5" d="M393.43,762.9a1.24,1.24,0,0,1-.33,0,1.69,1.69,0,0,1-.31-.13,1.22,1.22,0,0,1-.57-.77,1.28,1.28,0,0,1,.13-1s.52-.87,1.12-2.08a24.26,24.26,0,0,0,1.7-4.14,1.26,1.26,0,0,1,.6-.75,1.25,1.25,0,0,1,1-.11,1.28,1.28,0,0,1,.75.59,1.31,1.31,0,0,1,.11,1,27.42,27.42,0,0,1-1.84,4.51c-.65,1.3-1.19,2.22-1.24,2.3a1.24,1.24,0,0,1-.46.45A1.21,1.21,0,0,1,393.43,762.9Z"/><path class="cls-4" d="M313.4,770.48H304a1.21,1.21,0,0,1-.88-.37,1.22,1.22,0,0,1-.37-.88A1.25,1.25,0,0,1,304,768h9.41a1.25,1.25,0,0,1,1.25,1.25,1.26,1.26,0,0,1-1.25,1.25Z"/><path class="cls-4" d="M342.07,746.34a1.19,1.19,0,0,1-1-.49,1.25,1.25,0,0,1,.22-1.75l2-1.53,2-1.52a1.24,1.24,0,0,1,.92-.25,1.21,1.21,0,0,1,.83.48,1.24,1.24,0,0,1,.25.92,1.21,1.21,0,0,1-.48.83l-2,1.52-2,1.53a1.33,1.33,0,0,1-.37.2A1.27,1.27,0,0,1,342.07,746.34Z"/><path class="cls-4" d="M487.08,771h-8.49a1.24,1.24,0,0,1-.88-.37,1.22,1.22,0,0,1-.37-.88,1.25,1.25,0,0,1,.37-.89,1.27,1.27,0,0,1,.88-.36h8.49a1.25,1.25,0,0,1,1.25,1.25,1.26,1.26,0,0,1-1.25,1.25Z"/><path class="cls-4" d="M450.38,744.48a1.29,1.29,0,0,1-.89-.36l-1.58-1.59-1.59-1.59a1.25,1.25,0,0,1,.88-2.13,1.25,1.25,0,0,1,.89.37l1.58,1.58,1.59,1.59a1.25,1.25,0,0,1,.37.88,1.29,1.29,0,0,1-.37.89,1.22,1.22,0,0,1-.41.27A1.27,1.27,0,0,1,450.38,744.48Z"/><path class="cls-4" d="M582.67,770.28h-8.21a1.25,1.25,0,0,1-.89-2.13,1.25,1.25,0,0,1,.89-.37h8.21a1.25,1.25,0,0,1,.89.37,1.25,1.25,0,0,1-.89,2.13Z"/><path class="cls-4" d="M612.37,745.94a1.27,1.27,0,0,1-.63-.17,1.38,1.38,0,0,1-.47-.49,1.26,1.26,0,0,1-.1-.95,1.21,1.21,0,0,1,.61-.74L614.7,742l2.92-1.59a1.26,1.26,0,0,1,1-.1,1.21,1.21,0,0,1,.74.61,1.22,1.22,0,0,1,.1,1,1.25,1.25,0,0,1-.6.74l-2.92,1.59L613,745.78a1.19,1.19,0,0,1-.29.12A1.65,1.65,0,0,1,612.37,745.94Z"/><path class="cls-4" d="M176.2,812.39H161.7a1.22,1.22,0,0,1-.88-.37,1.21,1.21,0,0,1-.37-.88,1.26,1.26,0,0,1,1.25-1.25h14.5a1.26,1.26,0,0,1,1.25,1.25,1.21,1.21,0,0,1-.37.88A1.22,1.22,0,0,1,176.2,812.39Z"/><path class="cls-4" d="M217,715.78a1.24,1.24,0,0,1-.63-.17,1.15,1.15,0,0,1-.47-.48,1.23,1.23,0,0,1-.11-1,1.27,1.27,0,0,1,.6-.75l5.87-3.2,5.86-3.21a1.25,1.25,0,0,1,1-.1,1.25,1.25,0,0,1,.84,1.55,1.19,1.19,0,0,1-.6.74l-5.86,3.21-5.87,3.21a1,1,0,0,1-.29.11A1,1,0,0,1,217,715.78Z"/><path class="cls-4" d="M179.33,761.43H168.24a1.25,1.25,0,0,1-.89-2.13,1.25,1.25,0,0,1,.89-.37h11.09a1.25,1.25,0,0,1,.89.37,1.25,1.25,0,0,1-.89,2.13Z"/></svg>