<svg id="Layer_1" data-name="Layer 1" xmlns="http://www.w3.org/2000/svg" viewBox="0 0 1000 1000"><defs><style>.cls-1{fill:#f4ece5;}.cls-2{fill:#f98638;}.cls-3{fill:#666538;}.cls-4{fill:#353519;}.cls-5{fill:#2b3d0a;}.cls-6{fill:#bab653;}.cls-7{fill:#deb8fc;}.cls-8{fill:#e9cf81;}.cls-9{fill:#e2b2ff;}.cls-10{fill:#ad4d4d;}</style></defs><path class="cls-1" d="M233.85,177.33c.8,4.79,3.05,17.92,7.08,34.15s9.82,35.56,17.69,52.77c2,4.27,4.1,9,6.81,14.1a162.38,162.38,0,0,0,10.23,16.87c3.13,4.53,5.21,7.13,7.62,10.11s5.12,6.31,9.54,12.29,8,11.4,11.08,16.25,5.45,9,7.25,12.29q3.92,8.7,7.59,18t7,19.35a386.25,386.25,0,0,1,18.35,93.55,423.21,423.21,0,0,1-1.78,78.15L335,558.77l-7.25,3.51c-.28-15.38-.86-34.47-2.09-55.88s-3.09-45.12-5.94-69.75c-1.12-9.65-2.46-20.12-4.89-31.35a194.92,194.92,0,0,0-11.43-36c-3.31-7.7-6.95-14.76-10.07-20.39s-5.72-9.83-7-11.81a250.69,250.69,0,0,0-14.65-20.82c-4.13-5.25-7.2-8.71-8.38-10.08-6.05-7.05-13.16-18.48-21-37.91s-16.26-46.84-25-85.85l8.24-2.57Z"/><path class="cls-1" d="M338.22,191.8l8.88-4.31,8.87-4.31c-1.4,4.44-2.92,9.72-4.34,15.76s-2.76,12.82-3.79,20.27c-.75,5.38-1.67,12.19-2.11,20.09a153,153,0,0,0,.74,26.66,138.73,138.73,0,0,0,8,32.69,238.47,238.47,0,0,0,11.43,25.13,182.54,182.54,0,0,0,17.34,27.93,163.92,163.92,0,0,1,16.3,26.05,193.3,193.3,0,0,1,11.62,28.67,200.25,200.25,0,0,1,5.71,22.75l-8.47,4.11-8.47,4.11A175.34,175.34,0,0,0,395,412.75,166.41,166.41,0,0,0,383.1,382c-5.75-11.38-10.57-17.6-15.65-24.32a164.31,164.31,0,0,1-17.29-27.26,226.5,226.5,0,0,1-11-24.08,154.92,154.92,0,0,1-8.71-34.45,163.39,163.39,0,0,1-1.31-26.2c.21-7.45.87-13.43,1.32-17.39A193.9,193.9,0,0,1,333.89,208C335.25,201.84,336.76,196.43,338.22,191.8Z"/><path class="cls-2" d="M387.45,211l-42.3-8.56-42.3-8.56a1.75,1.75,0,0,1-1.33-1.36,2.22,2.22,0,0,1,.5-2l13.53-15,13.53-15a28.46,28.46,0,0,1,11.42-7.77,24.29,24.29,0,0,1,13.08-1h0a24.25,24.25,0,0,1,10.89,5.33A27.69,27.69,0,0,1,372,167.34l8.76,20.37,8.76,20.36a2.22,2.22,0,0,1-.22,2.13A1.79,1.79,0,0,1,387.45,211Z"/><path class="cls-2" d="M289.56,164.23l-61.32,17.46-61.31,17.46a2.6,2.6,0,0,1-2.67-.86,3.2,3.2,0,0,1-.69-2.95l7.69-28.51,7.69-28.5a41.52,41.52,0,0,1,9.77-17.76,36.38,36.38,0,0,1,16.5-10.11h0a36.25,36.25,0,0,1,17.89-.45,40.79,40.79,0,0,1,16.73,8.21L265,138.65l25.21,20.43a3.21,3.21,0,0,1,1.14,2.91A2.61,2.61,0,0,1,289.56,164.23Z"/><path class="cls-3" d="M387.69,324.8l-4.76,1.29-4.76,1.28a.12.12,0,0,1-.14-.06.12.12,0,0,1,.05-.15,27.24,27.24,0,0,0,8.15-8,17.68,17.68,0,0,0,3-9.39,17.23,17.23,0,0,0-2.69-9A20.4,20.4,0,0,0,370,291,29.57,29.57,0,0,0,354,294.36a23.21,23.21,0,0,0,10.69-10.92,20.77,20.77,0,0,0-5.31-24.95,20,20,0,0,0-24-1.78,23.15,23.15,0,0,0-8.9,10.32,25.14,25.14,0,0,0-1.1-15.08,22.82,22.82,0,0,0-9.4-11.19,23.61,23.61,0,0,0-14.52-3.08,21.06,21.06,0,0,0-12.95,6.1c-4.09,4.29-6,10.51-5.5,16.93a27.65,27.65,0,0,0,9.12,18.2.21.21,0,0,1,0,.29.23.23,0,0,1-.29.09,19.57,19.57,0,0,0-15.05,0,16.31,16.31,0,0,0-8.08,24.21,19.53,19.53,0,0,0,12.94,9.35l0,0h0a24.41,24.41,0,0,0-17,7.7c-4,4.34-6.2,9.92-5.66,15.15A19.14,19.14,0,0,0,265.74,348a24.12,24.12,0,0,0,14.53,5.83l-4.9,1.33-4.89,1.32a25.27,25.27,0,0,0-17.83,31h0a25.3,25.3,0,0,0,31,17.83l20.14-5.44,20.14-5.43,20.3,76.66,20.3,76.66,18.54-4.48,18.55-4.48L381.1,461.63,360.58,384.5l20.14-5.43,20.14-5.44a25.28,25.28,0,0,0,17.83-31h0a25.28,25.28,0,0,0-31-17.83Z"/><polygon class="cls-4" points="360.58 384.5 350.71 386.88 340.83 389.27 354.25 400.44 367.67 411.61 364.13 398.06 360.58 384.5"/><path class="cls-5" d="M281.67,314.13a1.32,1.32,0,0,1-.77-.26,1.28,1.28,0,0,1-.44-.7,1.23,1.23,0,0,1,.15-.94,1.21,1.21,0,0,1,.77-.56l4.25-1,4.25-1a1.23,1.23,0,0,1,.94.15,1.24,1.24,0,0,1,.42,1.72,1.27,1.27,0,0,1-.77.56l-4.25,1-4.25,1a.4.4,0,0,1-.15,0Z"/><path class="cls-5" d="M352.62,335.08a1.22,1.22,0,0,1-.77-.27,1.19,1.19,0,0,1-.45-.69,1.23,1.23,0,0,1,.15-.94,1.24,1.24,0,0,1,.77-.57l13.25-3.2,13.25-3.19a1.22,1.22,0,0,1,.94.14,1.26,1.26,0,0,1,.56.78,1.22,1.22,0,0,1-.14.94,1.27,1.27,0,0,1-.78.57l-13.24,3.19L352.91,335l-.15,0Z"/><path class="cls-5" d="M324.67,272.78l-.23,0-.23-.07a1.24,1.24,0,0,1-.7-1.62l.89-2.25.9-2.25a1.19,1.19,0,0,1,.66-.68,1.23,1.23,0,0,1,1,0,1.26,1.26,0,0,1,.69.67,1.27,1.27,0,0,1,0,1l-.89,2.24-.9,2.25a1.25,1.25,0,0,1-1.16.79Z"/><path class="cls-6" d="M209.78,388h-.12l-.11,0a316.73,316.73,0,0,1,2.6,32.45c.48,10.86.9,21.72,2.24,32.5a125.24,125.24,0,0,0,7.91,31.75c4.12,10.06,9.92,19.24,18,26.54a60.16,60.16,0,0,0,12.81,8.87,63,63,0,0,0,14.62,5.41c4.62,1.09,9.8,1,14.84,1.4s9.93,1.17,14,4c12.68,8.82,12.58,21.41,9,34.56s-10.69,26.85-12,37.9c-1,8.33.24,16.91,2.64,25.21a129.84,129.84,0,0,0,9.77,23.56A186.56,186.56,0,0,0,317.4,671.2c4.2,6.13,8.72,12,13.42,17.78.88,1.08,3.1,3.81,6.39,7.59s7.65,8.62,12.81,13.91,10.81,10.74,15.29,15,7.69,7.21,7.69,7.21h0l11.57-4.83L396.14,723h0s-11.82-9.63-26.38-24.26-31.89-34.24-42.91-54.21a63.3,63.3,0,0,1-7.63-24.72,59.7,59.7,0,0,1,2.92-25.07c3.75-10.86,7.47-22.79,8.61-34.63s-.32-23.6-6.95-34.09a49.41,49.41,0,0,0-29.42-21.3,136.28,136.28,0,0,0-15.12-2.37c-5.05-.68-10-1.55-14.69-3.6a35.86,35.86,0,0,1-10.42-7.16,48.79,48.79,0,0,1-7.86-10.06,74.27,74.27,0,0,1-8.62-22.88,154,154,0,0,1-2.85-24.61c-.38-8.22-.43-16.49-.85-24.71a144.18,144.18,0,0,0-3-24.43l-10.61,1.53Z"/><path class="cls-4" d="M211.14,404.74l11.74,11.85,11.73,11.85s-.15-6.71-.41-13.89-.64-14.8-1.1-16.61l-7.81-6.31-7.82-6.31L214.31,395Z"/><path class="cls-7" d="M168.12,326.87a23.24,23.24,0,0,0-13,.38,21.2,21.2,0,0,0-10.34,7.26,22.94,22.94,0,0,0-4.59,12.62,18,18,0,0,0,4.26,12.94,18.31,18.31,0,0,0,8.58,5.42,21.89,21.89,0,0,0,10.7.4,20.94,20.94,0,0,0-12.34,7.88,20.13,20.13,0,0,0-4,13.76,20.49,20.49,0,0,0,6.22,13A19.24,19.24,0,0,0,166.45,406a18.92,18.92,0,0,0,12.12-4.33,24.4,24.4,0,0,0,4.81-5,27.08,27.08,0,0,0,1.84,7.67,22.55,22.55,0,0,0,9.33,11.27,23.83,23.83,0,0,0,14,3.16,20.4,20.4,0,0,0,13.06-5.95,20,20,0,0,0,5-9.17,24.51,24.51,0,0,0,.72-6.3A30.76,30.76,0,0,0,238,408.73a23.18,23.18,0,0,0,13.79,3.6,24.14,24.14,0,0,0,6.84-1.44,18.34,18.34,0,0,0,9.33-7.41,18.81,18.81,0,0,0,2.57-12.4,22.83,22.83,0,0,0-1.74-6.46,21.88,21.88,0,0,0,15.32,2.27,19.67,19.67,0,0,0,12.15-8.07,18.83,18.83,0,0,0,2.84-13.51,23,23,0,0,0-5.69-12,21,21,0,0,0-7.62-5.18,24.25,24.25,0,0,0-5.67-1.5,26.52,26.52,0,0,0,6-3.64,19.88,19.88,0,0,0,6.28-8.51c2.15-5.8,1.22-12.52-1.82-18.22a24.06,24.06,0,0,0-14.42-12.11,22.44,22.44,0,0,0-14.19,1,29.77,29.77,0,0,0-7.12,4,31.75,31.75,0,0,0,1.22-8.05,22.25,22.25,0,0,0-2.91-11.82c-3.86-6.53-11.39-10.6-19.37-11.72s-16.43.73-22.14,6.05a23.62,23.62,0,0,0-6.69,12.07,33.71,33.71,0,0,0-.84,8.67,27.1,27.1,0,0,0-9-10.6,22.48,22.48,0,0,0-12.51-4.06,24.61,24.61,0,0,0-16.42,6.53c-4.41,4-7.26,9.45-7,15.15A18.55,18.55,0,0,0,163.16,322,26.91,26.91,0,0,0,168.12,326.87Z"/><path class="cls-2" d="M207.75,333.83a24.82,24.82,0,0,0-10.47-3.12,12.81,12.81,0,0,0-10,3.82A12,12,0,0,0,185,348.21a14.57,14.57,0,0,0,11.29,8.6c-.26,0-.78.44-1.28,1s-1,1.11-1.11,1.27a12.4,12.4,0,0,0-3.28,9.6,11.81,11.81,0,0,0,5.25,8.64c2.94,2,6.79,2.21,10.42,1.3a17.78,17.78,0,0,0,9.13-5.46,37.94,37.94,0,0,0,2.92-4.36c.88-1.48,1.52-2.68,1.52-2.68,2.34,4.23,3.79,6.62,4.67,8a10.81,10.81,0,0,0,1.16,1.61,17.27,17.27,0,0,0,3.94,2.74,14.35,14.35,0,0,0,8.88,1.58,13.86,13.86,0,0,0,2.34-.6,14.25,14.25,0,0,0,8.57-8.59,11.3,11.3,0,0,0-.55-9.63,24.63,24.63,0,0,0-2.53-3.36c-.89-1-1.63-1.77-1.63-1.77l1.36-.35,1.2-.32a13.82,13.82,0,0,0,8.34-6.72,13.64,13.64,0,0,0,1.19-10.73,12.33,12.33,0,0,0-9.53-8.35,15.77,15.77,0,0,0-12.69,2.81,13.84,13.84,0,0,0,.49-2.2,14.76,14.76,0,0,0,.11-3,14.53,14.53,0,0,0-3-7.75,16.39,16.39,0,0,0-3.11-3.16,17.08,17.08,0,0,0-7.94-3.17,12.89,12.89,0,0,0-8.82,1.91,13.21,13.21,0,0,0-4.89,6.17,14.93,14.93,0,0,0-1.05,4,13.23,13.23,0,0,0,0,2.43,15,15,0,0,0,.28,1.87c.06.36.17,1.37.35,2.32S207.43,333.66,207.75,333.83Z"/><path class="cls-6" d="M284.89,508.68s-.2-18.14,1.46-40.56S291.54,419,299,401.84a19.15,19.15,0,0,1,21.18-11.5,18.9,18.9,0,0,1,16.07,17.82,59.2,59.2,0,0,1-1.63,17,123.86,123.86,0,0,1-8.2,23.41L313.3,482,300.16,515.5a28.62,28.62,0,0,0-3.89-2.41A53.92,53.92,0,0,0,284.89,508.68Z"/><path class="cls-3" d="M294.64,505.91h-.15l-.15,0a1.24,1.24,0,0,1-.77-.57,1.23,1.23,0,0,1-.15-.94l12.12-49.86,12.12-49.85a1.21,1.21,0,0,1,.56-.77,1.25,1.25,0,0,1,1.87,1.36L308,455.1,295.85,505a1.25,1.25,0,0,1-.45.69A1.21,1.21,0,0,1,294.64,505.91Z"/><path class="cls-1" d="M662.6,181.93c-1.1,3.74-4.08,14-6.86,27.17s-5.38,29.16-5.73,44.36c-.08,3.77-.18,7.91,0,12.58a130.42,130.42,0,0,0,1.48,15.79c.67,4.37,1.26,7,2,10s1.49,6.36,2.58,12.23,1.81,11.06,2.31,15.63.77,8.44.93,11.44q-.21,7.65-.84,15.7c-.43,5.36-1,10.84-1.76,16.43a310.38,310.38,0,0,1-19.55,74.07,340,340,0,0,1-28.7,55.87H595.46c5.19-11.22,11.47-25.22,18.09-41.13s13.59-33.7,20.17-52.51c2.58-7.37,5.28-15.41,7.47-24.38a156.44,156.44,0,0,0,4.35-30c.31-6.73.16-13.11-.12-18.28s-.69-9.11-.89-11a201.34,201.34,0,0,0-3.29-20.2c-1.14-5.24-2.15-8.82-2.52-10.23-1.9-7.21-3-18-1.84-34.75s4.67-39.57,12-70.86l6.86,1Z"/><path class="cls-1" d="M711.22,301.77h15.86c-2.57,2.71-5.52,6-8.67,9.86s-6.5,8.31-9.85,13.33c-2.43,3.63-5.49,8.23-8.58,13.78a123.71,123.71,0,0,0-8.81,19.54,111.22,111.22,0,0,0-5.7,26.43,193.79,193.79,0,0,0-.55,22.18,146.16,146.16,0,0,0,2.74,26.28,132.36,132.36,0,0,1,2.65,24.54,155.35,155.35,0,0,1-1.67,24.81A158,158,0,0,1,684.79,501H669.66a142.09,142.09,0,0,0,5.07-19.56A134,134,0,0,0,676.94,455,112.47,112.47,0,0,0,674.15,432a132.82,132.82,0,0,1-2.93-25.77,182.8,182.8,0,0,1,.51-21.27,124.38,124.38,0,0,1,5.79-28,131.6,131.6,0,0,1,8.24-19.41c2.77-5.31,5.34-9.4,7-12.11a157.33,157.33,0,0,1,9.61-13.51C705.55,308,708.54,304.61,711.22,301.77Z"/><path class="cls-2" d="M742.35,331.92l-28.82-19.29-28.82-19.29a1.38,1.38,0,0,1-.57-1.42,1.77,1.77,0,0,1,1-1.34l14.63-7,14.64-7a22.77,22.77,0,0,1,10.86-2.29,19.55,19.55,0,0,1,10,3.26h0a19.47,19.47,0,0,1,6.47,7.28,22.38,22.38,0,0,1,2.43,9.91l.28,17.81.29,17.81a1.79,1.79,0,0,1-.82,1.52A1.42,1.42,0,0,1,742.35,331.92Z"/><path class="cls-2" d="M707.47,192,657,183.12l-50.46-8.89a2.1,2.1,0,0,1-1.62-1.56,2.61,2.61,0,0,1,.53-2.38L621,152.38l15.56-17.9a33.42,33.42,0,0,1,13.29-9.41,29.2,29.2,0,0,1,15.48-1.52h0a29,29,0,0,1,13.09,5.94,32.66,32.66,0,0,1,9.21,11.81l11.06,23.61,11.06,23.61a2.57,2.57,0,0,1-.2,2.5A2.1,2.1,0,0,1,707.47,192Z"/><path class="cls-6" d="M501.19,271.38l25.15-.22,25.16-.22A31.88,31.88,0,0,0,571,259.46a31.47,31.47,0,0,0,7-21.34c-.41-8.13-3.94-14-9.43-17.91s-13-5.85-21.22-6.12a25.7,25.7,0,0,0,14.6-.91,22,22,0,0,0,10.83-8.47A21.63,21.63,0,0,0,576,190.08a24.32,24.32,0,0,0-4.82-12c-4.3-5.35-10.52-8.4-17.25-10a72.28,72.28,0,0,0-20.34-1.49c-.13,0-1.11,0-2.06.1a5.47,5.47,0,0,0-1.89.28l-.2,0c-.1,0-.2,0-.21,0s3.77-1,8.66-3.07,10.88-5.22,15.23-9.89a29.74,29.74,0,0,0,6.32-10.74,19.11,19.11,0,0,0,0-12.94,17.72,17.72,0,0,0-5.07-6.94,23.85,23.85,0,0,0-4.46-3c-8.69-4.63-19-3.79-27.29-1.67a61.45,61.45,0,0,0-15.23,6c1.84-13.11.71-24.83-2.55-33.85s-8.65-15.34-15.31-17.67a19.26,19.26,0,0,0-9.17-.79,19.56,19.56,0,0,0-4.66,1.24c-6.51,2.73-11.53,9.28-14.28,18.33s-3.25,20.59-.72,33.32a86,86,0,0,0-18.78-2.82c-9.15-.26-19.31,1.35-24.81,8.46a17,17,0,0,0-1.35,2,18.25,18.25,0,0,0-1.14,2.39,24.17,24.17,0,0,0-1.24,6.79,19.35,19.35,0,0,0,.45,4.86c1.12,5,4.25,9.51,8.9,13.23a46.23,46.23,0,0,0,18,8.37h0c-6.39-.57-14.55-.66-22,1.2s-14.15,5.64-17.63,12.84a22,22,0,0,0-1.92,12.86,23.33,23.33,0,0,0,5.49,11.88,33,33,0,0,0,11,8.16,51.29,51.29,0,0,0,19.47,4.4l6.14-.16,6.14-.16c-2.25.21-4.39.33-6.43.38s-4,0-5.85-.06l-8.77.24-8.77.23A27.7,27.7,0,0,0,399.3,228a26.3,26.3,0,0,0-8.24,17.9A26.8,26.8,0,0,0,418.54,274l20.17-.73,20.16-.72.27,86,.26,86h42c0-15-.06-50.83-.09-86.61S501.22,286.43,501.19,271.38Z"/><polygon class="cls-4" points="501.02 271.22 489.19 271.22 477.36 271.22 489.19 289.49 501.02 307.77 501.02 289.49 501.02 271.22"/><path class="cls-3" d="M529.66,168.43h-11a1.45,1.45,0,0,1-1.06-.44,1.49,1.49,0,0,1-.44-1.06,1.51,1.51,0,0,1,.44-1.06,1.49,1.49,0,0,1,1.06-.44h11a1.49,1.49,0,0,1,1.06.44,1.51,1.51,0,0,1,.44,1.06,1.49,1.49,0,0,1-.44,1.06A1.45,1.45,0,0,1,529.66,168.43Z"/><path class="cls-3" d="M464.44,130.38a1.49,1.49,0,0,1-.55-.1,1.54,1.54,0,0,1-.49-.32l-1.86-1.79-1.86-1.8a1.51,1.51,0,0,1-.46-1.05,1.47,1.47,0,0,1,.42-1.07,1.51,1.51,0,0,1,1.05-.46,1.47,1.47,0,0,1,1.07.42l1.86,1.8,1.86,1.79a1.47,1.47,0,0,1,.46,1.06,1.45,1.45,0,0,1-.42,1.06,1.52,1.52,0,0,1-.5.35A1.66,1.66,0,0,1,464.44,130.38Z"/><path class="cls-6" d="M445.71,219.62l-6.14.16-6.14.16c1.85.09,3.8.12,5.85.06S443.46,219.83,445.71,219.62Z"/><path class="cls-3" d="M443.42,221.27H425a1.45,1.45,0,0,1-1.06-.44,1.49,1.49,0,0,1-.44-1.06,1.51,1.51,0,0,1,.44-1.06,1.49,1.49,0,0,1,1.06-.44h18.43a1.53,1.53,0,0,1,1.07.44,1.5,1.5,0,0,1,.43,1.06,1.49,1.49,0,0,1-1.5,1.5Z"/><path class="cls-6" d="M411.8,366.44a75.26,75.26,0,0,0,3.11,20.62,61,61,0,0,0,9.21,18.75,52.52,52.52,0,0,0,9.68,10,48,48,0,0,0,12,7,30.4,30.4,0,0,0,14.5,2.15,53.84,53.84,0,0,0,14.29-3.77,30.89,30.89,0,0,1,10.22-2.3,15.83,15.83,0,0,1,9.85,2.92,23.26,23.26,0,0,1,6.74,8,45.41,45.41,0,0,1,3.77,9.82l2.3,8.09,2.31,8.08,8.09-2.16,8.09-2.16c.46-.12-.66-4.38-2-8.81s-2.79-9-3.08-9.77a71.75,71.75,0,0,0-5.78-11.82A51,51,0,0,0,507,410.82a35.61,35.61,0,0,0-7.78-5.69,27.46,27.46,0,0,0-9.12-3.06,28.37,28.37,0,0,0-10.81.84c-3.55.87-7,2.13-10.48,3.15a33.25,33.25,0,0,1-10.89,1.39,25.75,25.75,0,0,1-10.59-2.7c-10.31-5.24-15-15.2-17.05-26.27s-1.41-23.26-1.08-33c.17-4.77.39-10,.69-15.64s.66-11.68,1.13-18.09l-8.45-.83-8.46-.83q-.87,9.16-1.45,18.84t-.79,19.84c-.07,3-.1,6-.11,8.93S411.76,363.56,411.8,366.44Z"/><path class="cls-4" d="M429,366.41l-.05-4.5,0-4.49v-.69c0-.19,0-.35,0-.52,0-.39,0-.91,0-1.66s0-1.71.07-3c.17-5.13.39-8.23.55-10.84s.28-4.73.23-7.92c0-2-.11-2.87-.2-3.95s-.2-2.37-.31-5.19c-.12-3.12-.16-6-.15-8.42s.06-4.59.12-6.27l-9.78.84-9.79.85c0,2.86.11,6.61.18,10.57s.15,8.11.22,11.82c.16,8.76.28,15.39.54,21.26s.63,11,1.3,16.73c.18,1.51.36,2.88.52,4.08s.3,2.22.42,3l12-8.75,4.12-3Z"/><path class="cls-6" d="M437.73,402.51A22.78,22.78,0,0,0,424.47,395a23.59,23.59,0,0,0-11.21.53c-.1-.55-.22-1.09-.36-1.63A18.53,18.53,0,0,0,389,381.13a20.25,20.25,0,0,0-3.68,1.66,17.23,17.23,0,0,0-18.49-11.71,13.73,13.73,0,0,0-11.64,17.11A17.26,17.26,0,0,0,374,401c.28,0,.55-.11.82-.16a20.25,20.25,0,0,0,.72,5.5,18.53,18.53,0,0,0,23.94,12.79A19.53,19.53,0,0,0,403,417.5a18.44,18.44,0,0,0,2,2.84,23.71,23.71,0,0,0,28.34,5.37,14.65,14.65,0,0,0,4.4-23.2Z"/><path class="cls-3" d="M430.06,413.27h-.15l-.15,0c-3.85-1-7.7-2-11.52-3.15s-7.6-2.41-11.32-3.75A229.84,229.84,0,0,1,380.74,395,233,233,0,0,1,356,380.51a1.25,1.25,0,0,1-.53-.8,1.28,1.28,0,0,1,.19-.94,1.26,1.26,0,0,1,.8-.52,1.23,1.23,0,0,1,.94.18,231.43,231.43,0,0,0,24.48,14.37A227.34,227.34,0,0,0,407.76,404q5.53,2,11.21,3.7c3.77,1.14,7.58,2.19,11.39,3.12a1.32,1.32,0,0,1,.77.57,1.29,1.29,0,0,1,.14.95,1.25,1.25,0,0,1-.45.69A1.27,1.27,0,0,1,430.06,413.27Z"/><path class="cls-1" d="M441.82,249.77c12.75-21.87,13.05-36.1,7.55-39.28s-16.79,4.7-27.25,27.06c.47-25.54-6.7-37.55-13.22-36.2s-12.39,16.05-9.35,43.94c-13.46-25-26.79-33.69-32.82-30.8s-4.78,17.36,10.93,38.7c-21.87-12.74-36.11-13.05-39.28-7.55s4.7,16.79,27.06,27.25c-25.54-.46-37.55,6.7-36.2,13.22s16,12.39,43.94,9.35c-25,13.46-33.69,26.79-30.8,32.83s17.36,4.78,38.7-10.93c-12.74,21.87-13.05,36.1-7.55,39.28s16.79-4.7,27.25-27.06c-.46,25.53,6.7,37.54,13.22,36.2s12.39-16,9.35-43.94c13.46,25,26.79,33.69,32.83,30.8s4.78-17.37-10.93-38.71c21.87,12.75,36.1,13.05,39.28,7.56s-4.71-16.8-27.06-27.26c25.53.47,37.54-6.7,36.2-13.21s-16.05-12.4-43.94-9.35c25-13.47,33.69-26.8,30.8-32.83S463.16,234.06,441.82,249.77Z"/><path class="cls-7" d="M426.05,280.2a16.8,16.8,0,1,1-8-10.1A16.77,16.77,0,0,1,426.05,280.2Z"/><path class="cls-3" d="M642.31,282.48l-4.93.13-4.93.13c-.07,0-.11,0-.11-.09a.11.11,0,0,1,.08-.13,27.29,27.29,0,0,0,9.8-5.84,17.72,17.72,0,0,0,5.09-8.43,17.13,17.13,0,0,0-.5-9.37,21,21,0,0,0-2.25-4.8A21.54,21.54,0,0,0,633,245.44a29.58,29.58,0,0,0-16.28-.45,23.25,23.25,0,0,0,12.95-8.11,20.75,20.75,0,0,0,.7-25.5,19.93,19.93,0,0,0-23-7.37A23.19,23.19,0,0,0,596.35,212,25.19,25.19,0,0,0,598.83,197,22.78,22.78,0,0,0,592.31,184a23.48,23.48,0,0,0-13.38-6.4,21,21,0,0,0-14,2.89c-5,3.2-8.32,8.8-9.32,15.17a27.57,27.57,0,0,0,4.59,19.82.23.23,0,0,1-.33.32,19.56,19.56,0,0,0-14.63-3.53,17.18,17.18,0,0,0-11.77,7.2,17.38,17.38,0,0,0-1.78,14.43A19.55,19.55,0,0,0,542.07,246a0,0,0,0,1,0,0h0a24.39,24.39,0,0,0-18.36,3.48c-5,3.27-8.36,8.19-9.07,13.4a19.07,19.07,0,0,0,3.71,13.46,24.11,24.11,0,0,0,12.75,9.09l-5.07.13-5.07.14a25.29,25.29,0,0,0-24.6,26h0a25.29,25.29,0,0,0,25.95,24.61l20.85-.56,20.85-.55,1.74,79.28,1.73,79.28h38.16l-1.84-79.78L602,334.15l20.85-.56,20.85-.55a25.29,25.29,0,0,0,24.61-26h0a25.29,25.29,0,0,0-26-24.61Z"/><polygon class="cls-4" points="601.95 334.15 591.79 334.15 581.63 334.15 592.05 348.16 602.48 362.17 602.21 348.16 601.95 334.15"/><path class="cls-5" d="M550.8,247.26h-8.74a1.25,1.25,0,0,1-.89-.37,1.25,1.25,0,0,1,.89-2.13h8.74a1.24,1.24,0,0,1,.88,2.13A1.21,1.21,0,0,1,550.8,247.26Z"/><path class="cls-5" d="M633.36,284.27H606.1a1.25,1.25,0,0,1-1.25-1.25,1.26,1.26,0,0,1,1.25-1.25h27.26a1.24,1.24,0,0,1,.88.37,1.22,1.22,0,0,1,.37.88,1.25,1.25,0,0,1-.37.89A1.27,1.27,0,0,1,633.36,284.27Z"/><path class="cls-5" d="M593.56,217.15a1.5,1.5,0,0,1-.37-.05,1.29,1.29,0,0,1-.35-.18,1.23,1.23,0,0,1-.51-.81,1.21,1.21,0,0,1,.21-.93l1.4-2,1.39-2a1.25,1.25,0,0,1,1.74-.3,1.25,1.25,0,0,1,.3,1.74l-1.39,2-1.4,2a1.22,1.22,0,0,1-.45.4A1.25,1.25,0,0,1,593.56,217.15Z"/><path class="cls-8" d="M544,348.08c.32-.1.63-.22,1-.34s.64-.27,1-.42a20,20,0,0,0,4.6-3A12.35,12.35,0,0,0,554.8,337a12.66,12.66,0,0,0-1.61-8.28,14.77,14.77,0,0,0-6.2-5.88,14,14,0,0,0-7.52-1.38,15.16,15.16,0,0,0-7.3,2.67,18.7,18.7,0,0,0,3.56-4.59,14.46,14.46,0,0,0,1.81-7.26,15.38,15.38,0,0,0-3.59-9.45,17.4,17.4,0,0,0-9-5.72,19.35,19.35,0,0,0-5.31-.2,14.84,14.84,0,0,0-8.65,3.66,15.24,15.24,0,0,0-4.74,10,19.33,19.33,0,0,0,2.92,12A16.11,16.11,0,0,0,498.69,321a14.13,14.13,0,0,0-2.15,27.11h-1.41A14.08,14.08,0,0,0,481,362.15h0a14.08,14.08,0,0,0,14.09,14.08h14.11V437.1h20.32V376.23h14.11a14.07,14.07,0,0,0,14.08-14.08h0A14.07,14.07,0,0,0,544,348.08Z"/><path class="cls-3" d="M503.62,349.32h-8.49a1.25,1.25,0,0,1-.89-.37,1.25,1.25,0,0,1,.89-2.13h8.49a1.25,1.25,0,0,1,.89,2.13A1.25,1.25,0,0,1,503.62,349.32Z"/><path class="cls-3" d="M529.51,327.52a1.16,1.16,0,0,1-.54-.13,1.28,1.28,0,0,1-.45-.36,1.24,1.24,0,0,1,.23-1.75l1.79-1.38,1.79-1.38a1.24,1.24,0,0,1,.92-.25,1.26,1.26,0,0,1,1.08,1.4,1.21,1.21,0,0,1-.48.83l-1.79,1.38-1.78,1.38a1.18,1.18,0,0,1-.37.19A1.09,1.09,0,0,1,529.51,327.52Z"/><path class="cls-6" d="M803.2,350.77A113.69,113.69,0,0,1,800.61,382a92,92,0,0,1-11.93,29.05,79.65,79.65,0,0,1-13.51,16,72.3,72.3,0,0,1-17.34,11.74,45.88,45.88,0,0,1-21.54,4.69c-7.06-.19-14.16-1.85-21.81-4.22a40.12,40.12,0,0,0-15.77-1.79,33,33,0,0,0-14.28,4.74,29.41,29.41,0,0,0-9.61,10,53.26,53.26,0,0,0-5.46,12.9c-.42,1.47-2,8.95-3.46,16.06s-2.76,13.87-2.6,13.9L651.71,493l-11.6-2.13s.55-4.15,1.58-9.9a184.52,184.52,0,0,1,4.46-19.5,103.9,103.9,0,0,1,6.11-16,78.2,78.2,0,0,1,12.59-18.55A53.29,53.29,0,0,1,676,417.6a41.56,41.56,0,0,1,13.36-5.51,42.82,42.82,0,0,1,16.31.18c5.4,1,10.77,2.48,16,3.66a49.9,49.9,0,0,0,16.47,1,38.82,38.82,0,0,0,15.62-5.12c14.93-8.9,21-24.3,22.92-41.12s-.22-35-1.7-49.59c-.73-7.15-1.58-15-2.6-23.39s-2.17-17.46-3.52-27l12.6-2.09,12.6-2.09q2.24,13.65,4.08,28.11t3.18,29.69q.6,6.76,1.06,13.38T803.2,350.77Z"/><path class="cls-3" d="M777.38,362.76q-.18-6-.37-11.9t-.38-11.9c0-.41,0-.74-.07-1s0-.54,0-.78c0-.58-.09-1.37-.19-2.49s-.22-2.57-.41-4.49c-.8-8-1.56-15.06-2.12-20.06s-.93-8-.93-8c-.52-4.27-1.11-9.06-1.77-14.31s-1.41-11-2.23-17.13l12.6-2.09,12.6-2.09c1.18,6.67,2.19,12.85,3.05,18.44s1.58,10.6,2.18,14.94c.12.91,1.29,9.59,2.37,20.93a344.87,344.87,0,0,1,1.84,36.88c0,2.71-.18,5.57-.44,8.62s-.66,6.27-1.26,9.72c-.39,2.22-.8,4.25-1.22,6.05s-.81,3.38-1.17,4.69l-11-12Z"/><path class="cls-6" d="M883.19,413a22.25,22.25,0,0,0-12.7-12.94A27.48,27.48,0,0,0,837.31,411a32.16,32.16,0,0,0-5-4,29.56,29.56,0,0,0-42,10.4c-.43.76-.83,1.55-1.2,2.35a37.77,37.77,0,0,0-17.12-5.19,36.4,36.4,0,0,0-23.45,6.39c-6.17,4.46-10.21,10.89-10.66,18.23s2.79,14.21,8.37,19.38a37.85,37.85,0,0,0,46,2.8,29.34,29.34,0,0,0,4.13-3.62,31.71,31.71,0,0,0,4.93,3.89,29.55,29.55,0,0,0,42-10.41,32.51,32.51,0,0,0,3.26-8.2c.4.19.8.37,1.22.54a27.48,27.48,0,0,0,34.09-12.41A22.22,22.22,0,0,0,883.19,413Z"/><path class="cls-3" d="M759,439.87h-2.39a1.24,1.24,0,0,1-.88-.37,1.27,1.27,0,0,1-.36-.88,1.29,1.29,0,0,1,.37-.88,1.24,1.24,0,0,1,.88-.37h0c6.28.05,12.59-.08,18.89-.36s12.57-.74,18.81-1.34a364.76,364.76,0,0,0,44.52-7.16,370.36,370.36,0,0,0,43.58-12.66,1.25,1.25,0,0,1,1,.05,1.22,1.22,0,0,1,.64.71,1.27,1.27,0,0,1,0,1,1.32,1.32,0,0,1-.71.64,375.28,375.28,0,0,1-43.87,12.74,367.91,367.91,0,0,1-44.83,7.21c-5.88.57-11.81,1-17.75,1.29S764.9,439.87,759,439.87Z"/><path class="cls-7" d="M720.07,294.65h0l0,0,0,0A28.81,28.81,0,0,0,750.57,339h.08a28.81,28.81,0,0,0,52.93,9.73h0l0,0,0,0a28.81,28.81,0,0,0,44.3-30.55v-.07h0a28.81,28.81,0,0,0,9.73-52.93h0l0,0,0,0a28.81,28.81,0,0,0-30.55-44.3h-.07a28.8,28.8,0,0,0-52.93-9.72h0l0,0,0,0a28.81,28.81,0,0,0-44.3,30.55v.07h0a28.81,28.81,0,0,0-9.72,52.93Z"/><path class="cls-1" d="M757.1,280.64a31.49,31.49,0,1,0,9.75-22.05A31.39,31.39,0,0,0,757.1,280.64Z"/><path class="cls-3" d="M638.23,443.15A21.32,21.32,0,0,1,637.9,428a19.18,19.18,0,0,1,9.38-10.8,19,19,0,0,1,11.9-1.57,21.24,21.24,0,0,1,11.13,5.9A40.63,40.63,0,0,1,679.93,406c4.36-4.38,9.68-7.58,15.26-8.36a29,29,0,0,1,18.39,3.69,32.89,32.89,0,0,1,7.75,6A40.8,40.8,0,0,1,731,424.64a30.67,30.67,0,0,1-.57,18.16,50.43,50.43,0,0,1-5.13,10.09,30.59,30.59,0,0,1-5.55,6.72,30.71,30.71,0,0,1,18.15,12.16,27.39,27.39,0,0,1,4.91,19.9,27,27,0,0,1-7.9,15.05,30.55,30.55,0,0,1-15.89,8.18L678.64,479Z"/><path class="cls-4" d="M769.24,667.42A260.4,260.4,0,1,1,693,483.29,259.63,259.63,0,0,1,769.24,667.42Z"/><path class="cls-3" d="M342.57,493.07a1.27,1.27,0,0,1-.68-.21,1.16,1.16,0,0,1-.47-.57l-13.61-32.82L314.2,426.64a1.25,1.25,0,0,1,0-.95,1.23,1.23,0,0,1,.68-.68,1.25,1.25,0,0,1,.95,0,1.23,1.23,0,0,1,.68.68l13.61,32.82,13.61,32.83a1.25,1.25,0,0,1,0,1,1.23,1.23,0,0,1-.68.68,1.09,1.09,0,0,1-.24.07Z"/><path class="cls-1" d="M325.76,382.68A26.24,26.24,0,1,1,307.21,375,26.16,26.16,0,0,1,325.76,382.68Z"/><path class="cls-9" d="M287.2,413a7.34,7.34,0,0,1-2.88-.58,7.52,7.52,0,0,1-2.49-1.72,1.27,1.27,0,0,1-.35-.89,1.25,1.25,0,0,1,.39-.87,1.26,1.26,0,0,1,1.77,0,4.89,4.89,0,0,0,2.61,1.44,4.83,4.83,0,0,0,2.92-.33,4.78,4.78,0,0,0,2.1-1.9,5,5,0,0,0,.7-2.8,1.74,1.74,0,0,1,.15-.82,1.79,1.79,0,0,1,.52-.67,1.81,1.81,0,0,1,1.6-.32,5.26,5.26,0,0,0,3.47-.21,4.13,4.13,0,0,0,2.48-5,5.34,5.34,0,0,0-1.61-2.55,1.2,1.2,0,0,1-.42-.85,1.29,1.29,0,0,1,.3-.91,1.24,1.24,0,0,1,.86-.42,1.29,1.29,0,0,1,.91.3,7.77,7.77,0,0,1,2.39,3.88,6.55,6.55,0,0,1-3.45,7.66,7.75,7.75,0,0,1-4.72.75,7.5,7.5,0,0,1-1.28,3.68,7.27,7.27,0,0,1-3,2.5,6.76,6.76,0,0,1-1.48.49A7.23,7.23,0,0,1,287.2,413Zm6.36-7Z"/><path class="cls-3" d="M624.67,471.82h-.11a1.23,1.23,0,0,1-.85-.43,1.28,1.28,0,0,1-.29-.91l5.75-70.21,5.76-70.21a1.24,1.24,0,0,1,.44-.85,1.21,1.21,0,0,1,.91-.29,1.28,1.28,0,0,1,.85.43,1.29,1.29,0,0,1,.29.92l-5.75,70.2-5.76,70.21a1.26,1.26,0,0,1-.4.82A1.21,1.21,0,0,1,624.67,471.82Z"/><path class="cls-3" d="M624.66,471.82l-.24,0a1,1,0,0,1-.23-.08,1.24,1.24,0,0,1-.68-.67,1.28,1.28,0,0,1,0-1l13.59-32.83,13.59-32.84a1.22,1.22,0,0,1,.67-.67,1.19,1.19,0,0,1,1,0,1.24,1.24,0,0,1,.68,1.63l-13.59,32.83-13.59,32.84a1.24,1.24,0,0,1-.47.56A1.2,1.2,0,0,1,624.66,471.82Z"/><path class="cls-7" d="M690,381.51A26.24,26.24,0,1,1,682.26,363,26.14,26.14,0,0,1,690,381.51Z"/><path class="cls-3" d="M291,545.4c-11.11-1.87-19.94-7.23-25.68-14.34a32.2,32.2,0,0,1-7.07-24.91A43.47,43.47,0,0,1,266,487.57c4.32-5.94,10.32-11,17.87-13.25a28,28,0,0,1,18.37.8,30.9,30.9,0,0,1,8.5,4.95,25,25,0,0,1,11.52-11.53c4.6-2.19,9.52-2.62,13.5-1a13.36,13.36,0,0,1,6.81,6.76,19.33,19.33,0,0,1,1.47,10.9l-26.55,30.08Z"/><path class="cls-3" d="M657.23,379.17a7.47,7.47,0,0,1-3.35-.83,7.83,7.83,0,0,1-2.71-2.33,7.52,7.52,0,0,1-3.51,1.69,7.19,7.19,0,0,1-7.35-3.09,7.44,7.44,0,0,1-1.27-4.32,1.27,1.27,0,0,1,.38-.87,1.22,1.22,0,0,1,.87-.35h0a1.25,1.25,0,0,1,.87.38,1.21,1.21,0,0,1,.35.89,5,5,0,0,0,.83,2.87,4.72,4.72,0,0,0,5.14,2A5,5,0,0,0,650,373.7a1.8,1.8,0,0,1,.69-.48,1.82,1.82,0,0,1,.84-.1,1.74,1.74,0,0,1,1.36.9,5.32,5.32,0,0,0,2.6,2.31,4.38,4.38,0,0,0,3.24.06,4.33,4.33,0,0,0,2.09-1.88,5.3,5.3,0,0,0,.66-2.94,1.25,1.25,0,0,1,1.16-1.33,1.26,1.26,0,0,1,.91.31,1.23,1.23,0,0,1,.42.86,7.71,7.71,0,0,1-1,4.43,6.77,6.77,0,0,1-3.26,2.86,5.77,5.77,0,0,1-1.19.35A6.23,6.23,0,0,1,657.23,379.17Z"/><path class="cls-7" d="M682,289.63a40.8,40.8,0,0,0-64.94-33,45.09,45.09,0,0,0-7.9,8.26,40.84,40.84,0,0,0-7.52,17.47c-1.95,11.52,1.63,21.33,5.84,28.38a51.11,51.11,0,0,0,9.58,11.8,40.66,40.66,0,0,0,5.14,3.21,40.9,40.9,0,0,0,13.13,4.26,41.6,41.6,0,0,0,5.84.41A40.83,40.83,0,0,0,682,289.63Z"/><path class="cls-3" d="M670.27,294.25a12.78,12.78,0,0,1-7.49-2.54,14,14,0,0,1-4.94-6.65,16.27,16.27,0,0,1-8.71,1.63,13.41,13.41,0,0,1-7.65-3.28,13.13,13.13,0,0,1-3.81-6.14,16.06,16.06,0,0,1-.67-4.51,1.29,1.29,0,0,1,.37-.88,1.24,1.24,0,0,1,.88-.37h0a1.22,1.22,0,0,1,.88.37,1.2,1.2,0,0,1,.36.89,13.58,13.58,0,0,0,.55,3.74,10.68,10.68,0,0,0,3.09,5,11,11,0,0,0,6.56,2.68,13.77,13.77,0,0,0,7.48-1.64,2,2,0,0,1,1.71-.08,2.05,2.05,0,0,1,.72.51,1.93,1.93,0,0,1,.44.76,11.49,11.49,0,0,0,4.79,6.33,9.67,9.67,0,0,0,7.32,1.44,9.56,9.56,0,0,0,5.26-3.34,11.49,11.49,0,0,0,2.52-6.15,1.21,1.21,0,0,1,.45-.84,1.25,1.25,0,0,1,2,1.09,14.07,14.07,0,0,1-3.14,7.55,12.12,12.12,0,0,1-6.58,4.13c-.41.09-.81.15-1.22.2S670.68,294.25,670.27,294.25Z"/><path class="cls-6" d="M327,713.65a25.09,25.09,0,0,0-2-7.68c-1-2.48-2.24-4.9-3.29-7.36A50.27,50.27,0,0,1,317.64,682a34.77,34.77,0,0,1,2.81-16.5,31.48,31.48,0,0,1,12.37-13.41c5.33-3.11,11.29-4.19,16.16-1.26,5.38,3.24,11.76,3.79,17.88,2.41a33.44,33.44,0,0,0,16.36-9.21,49,49,0,0,0,9.95-15.71,102.38,102.38,0,0,0,5.31-18.18,40.39,40.39,0,0,1,2.68-8.94c1.31-2.75,3.18-5,6-6.06a11.37,11.37,0,0,1,4.18-.6,34.28,34.28,0,0,1,4.29.45l7.61,1.13,7.6,1.14a14,14,0,0,0,13.19-5.25A13.86,13.86,0,0,0,446,578a75.72,75.72,0,0,0-8.32-14.63,151.07,151.07,0,0,0-10.72-13.22c-6.29-7-13-14.21-18.28-22s-9.27-16.19-10.11-25.57c-.49-5.56.14-11.31.3-16.93s-.14-11.13-2.52-16.18a32.9,32.9,0,0,0-6.05-8.38c-2.39-2.54-5-4.93-7.35-7.5a35.45,35.45,0,0,1-3.81-4.92,24,24,0,0,1-2.68-5.55A260.57,260.57,0,0,0,266.89,763.91,218,218,0,0,0,289,753.05a215.71,215.71,0,0,0,20.77-13.29A57.65,57.65,0,0,0,322,728.39C325.31,724,327.4,719.09,327,713.65Z"/><path class="cls-6" d="M533,528.24c2.89.67,5.81,1.25,8.74,1.73s5.88.88,8.84,1.18q-1.44,13.76-2.87,27.51t-2.86,27.52a10.17,10.17,0,0,0,0,2.34,8.38,8.38,0,0,0,.58,2.25c1.57,3.74,4.94,4.52,8.71,4.82s7.94.13,11.1,1.95c2.08,10,4.66,19.89,7.2,29.8s5.06,19.82,7,29.83a11.62,11.62,0,0,0,1.39,3.68,9.68,9.68,0,0,0,2.63,2.89c3.31,2.4,6.64,1.86,9.65,0s5.67-5.14,7.65-8.15q5.64-8.61,11.29-17.23l11.3-17.22c1-1.49,2-3,3.07-4.38a19.15,19.15,0,0,1,3.76-3.71c3.16-2.31,7-3.22,10.89-4.09s7.77-1.73,11-3.91a19,19,0,0,0,6.85-8.88,41,41,0,0,0,2.61-11.43c.38-3.84.53-7.77,1-11.62A34.89,34.89,0,0,1,665.45,562a33.31,33.31,0,0,1,4.64-6.91c1.79-2.14,3.76-4.16,5.67-6.2a174.22,174.22,0,0,0,25.16-34.72c1.27-2.3,2.5-4.65,3.74-7s2.48-4.7,3.77-7A261.71,261.71,0,0,0,637.52,441a258.85,258.85,0,0,0-89.08-31q-11.38,16.55-21.24,34.1t-18,35.91l-.08.18-.08.17a34.72,34.72,0,0,0,24,47.87Z"/><path class="cls-6" d="M502.25,885.76a59,59,0,0,0-4.44-10.86,36.26,36.26,0,0,0-7-9.26c-1.45-1.35-3.06-2.6-4.51-4a14.14,14.14,0,0,1-3.5-4.68,12.56,12.56,0,0,1-.92-4.58,33,33,0,0,1,.26-4.76q.8-7.17,2.17-14.27c.91-4.72,2-9.41,3.3-14a72.13,72.13,0,0,0,1.86-7.54,19,19,0,0,0,0-7.58,17.72,17.72,0,0,0-2-4.88,34.29,34.29,0,0,0-3.13-4.33,65.54,65.54,0,0,0-25.11-18.62c-1.42-.6-2.88-1.16-4.27-1.82a16.62,16.62,0,0,1-3.89-2.43,15.42,15.42,0,0,1-4.65-8.54,48.58,48.58,0,0,1-.83-10.29q0-14.28,0-28.57t0-28.56a91.8,91.8,0,0,0-.39-10.22,30.84,30.84,0,0,0-2.52-9.74,19.18,19.18,0,0,0-6.56-7.77,13.17,13.17,0,0,0-9.45-2.33c-4.07.66-7.17,3.22-9.6,6.58a48.34,48.34,0,0,0-5.65,11.38l-11.67,31.37-11.67,31.37c-.53,1.41-1.06,2.84-1.71,4.21a17.7,17.7,0,0,1-2.36,3.83c-3.68,4.42-9.15,5.71-15,6.51s-12.07,1.12-17.26,3.59a25.78,25.78,0,0,0-9.66,8.49,64.46,64.46,0,0,0-6.37,11.68A216.74,216.74,0,0,0,325,814.69a219.55,219.55,0,0,0-6.23,30.77,259.59,259.59,0,0,0,187.54,82.35,162.31,162.31,0,0,0-.24-21.28A98.86,98.86,0,0,0,502.25,885.76Z"/><path class="cls-6" d="M584.74,774.44a21.19,21.19,0,0,0-6,10,67,67,0,0,0-2.14,12l-3.15,29-3.15,29a12.08,12.08,0,0,0,4.56,10.82,11.44,11.44,0,0,0,11.47,1.7,12.48,12.48,0,0,0,1.28-.61,11.29,11.29,0,0,0,1.21-.78,16.92,16.92,0,0,0,3.75-4.07c1.08-1.53,2.07-3.15,3.23-4.61,4.29-5.4,10.39-8.22,17.08-10.14s14-3,20.6-4.82a68.51,68.51,0,0,0,32.79-20.54A51.67,51.67,0,0,0,674,810.07a34.19,34.19,0,0,0,3.62-13,26.14,26.14,0,0,0-3.51-14.81,19.41,19.41,0,0,0-11.73-9.19,7.84,7.84,0,0,1-3.18-1.7,6.83,6.83,0,0,1-2-3,4.59,4.59,0,0,1,.61-4.35,14.84,14.84,0,0,1,3.26-3,59.39,59.39,0,0,0,17.09-20,16.6,16.6,0,0,0,1.21-2.77,6.36,6.36,0,0,0-1.59-6.81,18.28,18.28,0,0,0-3.57-2.87A77.6,77.6,0,0,0,643.07,717a24.84,24.84,0,0,0-3.65-.3,9.08,9.08,0,0,0-8.68,5.72,31.94,31.94,0,0,0-2.4,7.43c-.76,3.46-1.9,13.73-3.56,23.52s-3.84,19.1-6.7,20.61c-1.51.81-4.71,0-8-1.15s-6.68-2.44-8.57-2.62a29.21,29.21,0,0,0-8.87.35A17.15,17.15,0,0,0,584.74,774.44Z"/><path class="cls-6" d="M683.31,634.49a16.13,16.13,0,0,0-1,4.9,31.68,31.68,0,0,0,.11,5.06,31.18,31.18,0,0,0,1.93,8.69,13.61,13.61,0,0,0,13.11,9.24,29.39,29.39,0,0,0,8.59-1.12,27.54,27.54,0,0,0,6.55-2.57A13.1,13.1,0,0,0,717.5,654a12.38,12.38,0,0,0,1.47-4.09,20.17,20.17,0,0,0,.27-4.39,22.56,22.56,0,0,0-.79-5.3,16.3,16.3,0,0,0-2.2-4.84c-3.21-4.72-10.15-8.18-16.94-8.84S685.89,628,683.31,634.49Z"/><path class="cls-10" d="M245.94,147a6.41,6.41,0,0,1-2.71,5.05,11.28,11.28,0,0,1-13.08,0,6.05,6.05,0,0,1,0-10.09,11.23,11.23,0,0,1,13.08,0A6.39,6.39,0,0,1,245.94,147Z"/><path class="cls-10" d="M259.71,156.93a3.91,3.91,0,0,1-1.66,3.09,6.92,6.92,0,0,1-8,0,3.7,3.7,0,0,1,0-6.17,6.87,6.87,0,0,1,8,0A3.89,3.89,0,0,1,259.71,156.93Z"/><path class="cls-10" d="M347.38,166.35a4.17,4.17,0,0,1-2,3.14,6.92,6.92,0,0,1-4.32,1,7,7,0,0,1-4.14-1.65,3.92,3.92,0,0,1,.47-6.53,7.05,7.05,0,0,1,4.32-1.05,7,7,0,0,1,4.14,1.66A4.16,4.16,0,0,1,347.38,166.35Z"/><path class="cls-10" d="M333.12,174.91a2.81,2.81,0,0,1-1.34,2.11,4.93,4.93,0,0,1-5.7-.4,2.64,2.64,0,0,1,.31-4.4,4.93,4.93,0,0,1,5.7.4A2.83,2.83,0,0,1,333.12,174.91Z"/><path class="cls-10" d="M683.13,162.3a6.42,6.42,0,0,1-3.88,4.22,11.28,11.28,0,0,1-12.68-3.24,6.06,6.06,0,0,1,2.5-9.78,11.26,11.26,0,0,1,12.68,3.24A6.42,6.42,0,0,1,683.13,162.3Z"/><path class="cls-10" d="M687.7,177.34a4.09,4.09,0,0,1-2.48,2.69,7.22,7.22,0,0,1-8.1-2.06,4.13,4.13,0,0,1-.88-3.56,4.07,4.07,0,0,1,2.48-2.69,6.79,6.79,0,0,1,4.38-.26,6.9,6.9,0,0,1,3.72,2.32A4.13,4.13,0,0,1,687.7,177.34Z"/><polygon class="cls-3" points="367.53 802.19 361.88 820.3 356.23 838.42 367.53 838.42 378.82 838.42 373.17 820.3 367.53 802.19"/><polygon class="cls-3" points="387.75 827.19 382.1 845.31 376.46 863.42 387.75 863.42 399.04 863.42 393.4 845.31 387.75 827.19"/><polygon class="cls-3" points="408.19 802.19 402.54 820.3 396.89 838.42 408.19 838.42 419.48 838.42 413.83 820.3 408.19 802.19"/><polygon class="cls-3" points="604.34 491.33 598.69 509.45 593.04 527.56 604.34 527.56 615.63 527.56 609.98 509.45 604.34 491.33"/><polygon class="cls-3" points="624.56 517.6 618.91 535.71 613.27 553.83 624.56 553.83 635.85 553.83 630.21 535.71 624.56 517.6"/><polygon class="cls-3" points="644.99 491.86 639.35 509.98 633.7 528.09 644.99 528.09 656.29 528.09 650.64 509.98 644.99 491.86"/><polygon class="cls-3" points="409.58 725.13 405.23 739.07 400.89 753.01 409.58 753.01 418.27 753.01 413.92 739.07 409.58 725.13"/><polygon class="cls-3" points="426.53 706.87 422.19 720.81 417.84 734.75 426.53 734.75 435.22 734.75 430.88 720.81 426.53 706.87"/><polygon class="cls-3" points="605.87 802.89 601.53 816.83 597.18 830.77 605.87 830.77 614.56 830.77 610.22 816.83 605.87 802.89"/><polygon class="cls-3" points="623.66 787.71 619.32 801.65 614.97 815.59 623.66 815.59 632.35 815.59 628 801.65 623.66 787.71"/><polygon class="cls-3" points="340.96 502.37 336.27 517.4 331.58 532.44 340.96 532.44 350.33 532.44 345.65 517.4 340.96 502.37"/><polygon class="cls-3" points="284.96 697.65 280.27 712.68 275.58 727.72 284.96 727.72 294.33 727.72 289.64 712.68 284.96 697.65"/><polygon class="cls-3" points="359.09 481.66 354.4 496.7 349.72 511.74 359.09 511.74 368.46 511.74 363.78 496.7 359.09 481.66"/><path class="cls-1" d="M381.23,591.63A48.15,48.15,0,0,0,333.14,546H211.65a48.16,48.16,0,0,0-48,44.58,48.14,48.14,0,0,0-48.14,48.15h0a48.14,48.14,0,0,0,48.15,48.14H371.1a48.14,48.14,0,0,0,48.15-48.14h0a48.15,48.15,0,0,0-38-47.08Z"/><path class="cls-1" d="M829.27,736.39c.05-.61.08-1.22.11-1.84s0-1.24,0-1.87h0a48.14,48.14,0,0,0-48.14-48.14H616.13A48.16,48.16,0,0,0,568,732.68h0a48.16,48.16,0,0,0,48.15,48.15h49.18c0,.15,0,.31,0,.46s0,.3,0,.46h0a48.14,48.14,0,0,0,48.14,48.14h99.66a48.14,48.14,0,0,0,48.15-48.14h0a48.18,48.18,0,0,0-32-45.36Z"/></svg>