<svg id="Layer_1" data-name="Layer 1" xmlns="http://www.w3.org/2000/svg" viewBox="0 0 1000 1000"><defs><style>.cls-1{fill:#e9cf81;}.cls-2{fill:#353519;}.cls-3{fill:#f4ece5;}.cls-4{fill:#bab653;}.cls-5{fill:#666538;}.cls-6{fill:#deb8fc;}.cls-7{fill:#2b3d0a;}.cls-8{fill:#f98638;}.cls-9{fill:#ad4d4d;}.cls-10{fill:#ffaa9f;}</style></defs><path class="cls-1" d="M821.77,878H138.2V388.45A341.78,341.78,0,0,1,480,46.66h0A341.78,341.78,0,0,1,821.77,388.45V878Z"/><path class="cls-2" d="M138.2,876.55s21.26-134.19,56.49-285.11S279.13,272.88,335,206c9.79-11.71,20.12-17.15,28-19.65a38.67,38.67,0,0,1,13.34-2.09c10.36.18,19.34,4.64,26.49,9.92a97.24,97.24,0,0,1,15.51,14.9c23.34,26.82,56.81,125.11,85.39,220.44S556,617.17,559.85,632.13c.75-14.2,4.32-73.6,19-132.21s40.4-116.42,85.46-127.44a67.41,67.41,0,0,1,9.72-1.42,71,71,0,0,1,21.68,1.42C748.85,385.05,779.57,486.8,797.4,597.9s22.77,231.55,24.37,281.52L480,878Z"/><path class="cls-3" d="M322.67,253.51h-67c-12.38,16.3-23.22,31.56-32.57,45.34s-17.21,26.07-23.61,36.44c-19.41,31.41-34,55.19-44,76.45s-15.56,40-16.88,61.33A181.51,181.51,0,0,0,140,510.29a166.72,166.72,0,0,0,20.87,60.92C184.83,612.07,222.77,634,256,645.74a242.8,242.8,0,0,0,66.68,13.56V601.4a181.7,181.7,0,0,1-33.76-6.66,170,170,0,0,1-41.83-18.91,175.44,175.44,0,0,1-16.71-11.53,90.45,90.45,0,0,1-16.54-17.1,89.52,89.52,0,0,1-10.94-19.67,100.59,100.59,0,0,1-5.64-19.73,106.88,106.88,0,0,1-1-30.86,113.91,113.91,0,0,1,7.57-30c6.26-15.6,13.63-32.26,22.32-49.69s18.71-35.62,30.26-54.25c11.07-17.87,22.37-34.24,33.54-49.14S312.12,265.54,322.67,253.51Z"/><path class="cls-4" d="M677,421.35A173.25,173.25,0,0,1,681.73,469a140.3,140.3,0,0,1-9.9,46.92A121.56,121.56,0,0,1,656,543.73a110.34,110.34,0,0,1-22.8,22.42,70.05,70.05,0,0,1-31.06,13c-10.65,1.68-21.78,1.13-33.93-.32A61.68,61.68,0,0,0,544,580.48a50.41,50.41,0,0,0-20.14,11.06,45,45,0,0,0-11.67,17.69,81.18,81.18,0,0,0-4.64,20.89c-.23,2.32-.55,14-.77,25.08s-.3,21.59-.06,21.59h-36s-.32-6.39-.36-15.31A283.69,283.69,0,0,1,471.65,631a157.15,157.15,0,0,1,4.76-25.7,119.75,119.75,0,0,1,13.79-31.34,82.47,82.47,0,0,1,14.11-17.06,63.36,63.36,0,0,1,18.56-12c7.86-3.22,16.15-4.17,24.54-4.23s16.86.76,25.11,1.08a76.18,76.18,0,0,0,25-3,59.16,59.16,0,0,0,22-12c20-17.5,24.82-42.3,23.09-68.09s-10-52.58-16.24-74c-3.07-10.54-6.51-22.05-10.35-34.43s-8.09-25.62-12.76-39.63l18.35-6.62L640,297.28q7.13,19.89,13.88,41.1t13,43.72q2.76,10,5.28,19.81T677,421.35Z"/><path class="cls-5" d="M641.53,446.48q-1.93-8.88-3.85-17.76T633.83,411c-.15-.61-.28-1.1-.39-1.53l-.29-1.16c-.22-.86-.52-2-1-3.68s-1-3.81-1.86-6.63c-3.42-11.86-6.5-22.19-8.73-29.55s-3.6-11.76-3.6-11.76c-2-6.27-4.16-13.3-6.61-21s-5.14-16.1-8.07-25.11l18.35-6.62L640,297.28c3.61,9.7,6.83,18.71,9.67,26.87s5.3,15.48,7.39,21.83c.44,1.33,4.59,14,9.34,30.78s10.1,37.49,13,54.89c.67,4.09,1.27,8.42,1.71,13.06s.74,9.61.79,15c0,3.44,0,6.6-.15,9.42s-.3,5.3-.48,7.37l-19.85-15Z"/><path class="cls-4" d="M814.33,492.79a34,34,0,0,0-22.65-15.92,42,42,0,0,0-46.86,25.45,48.47,48.47,0,0,0-8.68-4.6,45.14,45.14,0,0,0-60.26,27.22c-.44,1.27-.82,2.56-1.16,3.86a57.67,57.67,0,0,0-27.15-3.06c-13.63,1.65-25.41,7.67-33.45,16.07s-12.34,19.16-11,30.32,8.1,20.58,17.92,26.8,22.7,9.25,36.33,7.6,25.41-7.68,33.45-16.08a44.33,44.33,0,0,0,5.21-6.57,49.14,49.14,0,0,0,8.48,4.48,45.14,45.14,0,0,0,60.27-27.23,49,49,0,0,0,2.63-13.22c.66.17,1.32.33,2,.47a42,42,0,0,0,47.78-28A34,34,0,0,0,814.33,492.79Z"/><path class="cls-5" d="M631.23,567.42a1.24,1.24,0,0,1-.79-.29,1.27,1.27,0,0,1-.44-.75,1.25,1.25,0,0,1,1-1.44c9.45-1.68,18.9-3.61,28.29-5.77S678,554.59,687.23,552a556.56,556.56,0,0,0,65-23.07,565.51,565.51,0,0,0,62-31.07,1.26,1.26,0,0,1,1.71.46,1.28,1.28,0,0,1,.13,1,1.25,1.25,0,0,1-.58.76,570.54,570.54,0,0,1-62.31,31.2,557.83,557.83,0,0,1-65.27,23.17c-9.24,2.65-18.61,5.07-28,7.25s-18.93,4.12-28.42,5.8h-.22Z"/><path class="cls-6" d="M536.64,360h0l0,.05,0,.06c-8.22,18.43-2.91,37.07,9.07,49.05s30.62,17.29,49.05,9.06l0,0,0,0h0C602,437,619,446.46,635.91,446.46S669.79,437,677,418.18h0l0,0,.06,0c18.42,8.23,37.07,2.91,49-9.06s17.3-30.62,9.07-49.05l0-.06,0-.05h0c18.86-7.21,28.28-24.15,28.28-41.09S754,285,735.17,277.82h0l0-.05,0,0c8.23-18.43,2.91-37.07-9.07-49.05s-30.62-17.29-49-9.06l-.06,0,0,0h0c-7.21-18.85-24.15-28.28-41.09-28.28s-33.89,9.43-41.1,28.28h0l0,0,0,0c-18.43-8.23-37.07-2.92-49.05,9.06s-17.29,30.62-9.07,49.05l0,0,0,.05h0c-18.85,7.21-28.28,24.15-28.28,41.1S517.79,352.8,536.64,360Z"/><path class="cls-3" d="M588.39,328.74A48.12,48.12,0,1,0,597,292.93,48,48,0,0,0,588.39,328.74Z"/><path class="cls-3" d="M783.66,533.53c-1.22,4.14-4.51,15.53-7.6,30.09s-5.95,32.28-6.33,49.11c-.1,4.19-.2,8.77,0,13.94a144.45,144.45,0,0,0,1.63,17.48c.75,4.84,1.41,7.74,2.17,11.05s1.66,7,2.87,13.55,2,12.25,2.56,17.31.85,9.35,1,12.66q-.23,8.47-.93,17.39t-1.94,18.2a343.57,343.57,0,0,1-21.66,82,376.71,376.71,0,0,1-31.78,61.87H709.31c5.75-12.42,12.7-27.93,20-45.54s15.06-37.33,22.35-58.16c2.85-8.16,5.84-17.06,8.26-27a172.24,172.24,0,0,0,4.82-33.23c.35-7.45.18-14.51-.13-20.23s-.76-10.1-1-12.16A218.38,218.38,0,0,0,760,659.52c-1.26-5.81-2.38-9.77-2.79-11.33-2.11-8-3.35-19.91-2-38.49s5.17-43.81,13.29-78.46l7.6,1.14Z"/><path class="cls-5" d="M760.82,702.26l-4.55.13-4.56.12a.09.09,0,0,1-.1-.09.1.1,0,0,1,.07-.12,25.06,25.06,0,0,0,9.05-5.39,16.3,16.3,0,0,0,4.71-7.79,15.75,15.75,0,0,0-.47-8.66A19.07,19.07,0,0,0,762.9,676a19.91,19.91,0,0,0-10.67-8,27.33,27.33,0,0,0-15-.42,21.5,21.5,0,0,0,12-7.48,19.2,19.2,0,0,0,.64-23.56,18.43,18.43,0,0,0-21.2-6.81,21.46,21.46,0,0,0-10.23,7.34,23.22,23.22,0,0,0,2.29-13.78,21.09,21.09,0,0,0-6-12.09,21.79,21.79,0,0,0-12.37-5.91A19.42,19.42,0,0,0,689.32,608a20.26,20.26,0,0,0-8.61,14A25.45,25.45,0,0,0,685,640.33a.22.22,0,0,1,0,.28.21.21,0,0,1-.28,0,18.1,18.1,0,0,0-13.51-3.26,15.06,15.06,0,0,0-12.51,20,18.06,18.06,0,0,0,9.59,11.21s0,0,0,0h0a22.55,22.55,0,0,0-17,3.22c-4.58,3-7.72,7.57-8.38,12.38a17.69,17.69,0,0,0,3.43,12.44A22.29,22.29,0,0,0,658.08,705l-4.68.12-4.68.12a23.36,23.36,0,0,0-22.73,24h0A23.36,23.36,0,0,0,650,752l19.26-.52,19.26-.51,1.6,63.53,1.6,63.53h35.25l-1.7-64-1.7-64,19.26-.51,19.26-.51a23.36,23.36,0,0,0,22.73-24h0a23.36,23.36,0,0,0-24-22.73Z"/><path class="cls-7" d="M753.55,703H728.38a1.25,1.25,0,0,1-.89-2.14,1.28,1.28,0,0,1,.89-.36h25.17a1.25,1.25,0,0,1,1.25,1.25,1.24,1.24,0,0,1-.37.88A1.22,1.22,0,0,1,753.55,703Z"/><path class="cls-2" d="M723.54,750H704.77q4.88,6.54,9.73,13.09t9.73,13.09q-.16-6.54-.34-13.09T723.54,750Z"/><path class="cls-7" d="M673.78,668.82H665.7a1.24,1.24,0,0,1-.88-2.13,1.21,1.21,0,0,1,.88-.37h8.08a1.25,1.25,0,0,1,.88,2.14A1.27,1.27,0,0,1,673.78,668.82Z"/><path class="cls-7" d="M716.79,640.78a1.5,1.5,0,0,1-.37,0,1.16,1.16,0,0,1-.35-.18,1.19,1.19,0,0,1-.51-.81,1.21,1.21,0,0,1,.21-.93l1.29-1.82,1.29-1.83a1.24,1.24,0,0,1,1.74-.29,1.21,1.21,0,0,1,.51.8,1.27,1.27,0,0,1-.21.94l-1.29,1.82-1.29,1.82a1.17,1.17,0,0,1-.46.4A1.21,1.21,0,0,1,716.79,640.78Z"/><path class="cls-5" d="M421.05,463.71l-6.91.18-6.91.18a.14.14,0,0,1-.16-.13.16.16,0,0,1,.11-.18,38,38,0,0,0,13.74-8.19,24.59,24.59,0,0,0,7.14-11.81,24,24,0,0,0-.7-13.15,29.87,29.87,0,0,0-3.14-6.72A30.27,30.27,0,0,0,408,411.78a41.43,41.43,0,0,0-22.83-.64,32.6,32.6,0,0,0,18.16-11.36,29.15,29.15,0,0,0,1-35.76,28,28,0,0,0-32.18-10.34,32.61,32.61,0,0,0-15.53,11.15,35.35,35.35,0,0,0,3.48-20.92A32,32,0,0,0,351,325.57a33,33,0,0,0-18.77-9,29.43,29.43,0,0,0-19.66,4.06c-7,4.48-11.65,12.33-13.06,21.26a38.66,38.66,0,0,0,6.43,27.79.31.31,0,0,1,0,.42.33.33,0,0,1-.42,0,27.44,27.44,0,0,0-20.51-5,24.13,24.13,0,0,0-16.5,10.1c-3.79,5.76-4.56,13.26-2.49,20.23a27.41,27.41,0,0,0,14.57,17,0,0,0,0,1,0,0h0a34.22,34.22,0,0,0-25.75,4.89C247.81,422,243,428.94,242,436.24c-.86,6.35,1.12,13.13,5.21,18.88a33.76,33.76,0,0,0,17.87,12.73L258,468l-7.1.19a35.45,35.45,0,0,0-34.5,36.39h0a35.47,35.47,0,0,0,36.38,34.5l29.24-.78,29.24-.78c1.49,111.44,2.64,196.54,3.41,253.79S315.84,878,315.84,878h13.82l40.14,0c-.86-37.27-1.76-104.1-2.67-170.93s-1.8-133.67-2.66-170.94l29.23-.78,29.24-.78a35.45,35.45,0,1,0-1.89-70.88Z"/><path class="cls-7" d="M290.75,412.82H278.5a1.25,1.25,0,0,1-1.25-1.25,1.23,1.23,0,0,1,1.25-1.25h12.25a1.23,1.23,0,0,1,1.25,1.25,1.25,1.25,0,0,1-1.25,1.25Z"/><path class="cls-7" d="M409.5,464.72H371.29a1.21,1.21,0,0,1-.88-.37,1.22,1.22,0,0,1-.37-.88,1.25,1.25,0,0,1,1.25-1.25H409.5a1.25,1.25,0,0,1,1.25,1.25,1.22,1.22,0,0,1-.37.88A1.21,1.21,0,0,1,409.5,464.72Z"/><path class="cls-3" d="M827.51,658.24h17.55c-2.84,3-6.11,6.64-9.59,10.92s-7.2,9.19-10.92,14.75c-2.69,4-6.07,9.12-9.49,15.27a134.9,134.9,0,0,0-9.76,21.64A123.22,123.22,0,0,0,799,750.09a213.12,213.12,0,0,0-.61,24.55,161.06,161.06,0,0,0,3,29.1,147.66,147.66,0,0,1,2.93,27.19,172,172,0,0,1-1.85,27.47,176.73,176.73,0,0,1-4.26,20.42H781.49a159.1,159.1,0,0,0,5.61-21.65,148.38,148.38,0,0,0,2.44-29.23,125.05,125.05,0,0,0-3.08-25.55,145.49,145.49,0,0,1-3.25-28.54,201.33,201.33,0,0,1,.57-23.55,137.31,137.31,0,0,1,6.41-30.95,145.59,145.59,0,0,1,9.12-21.49c3.07-5.88,5.91-10.41,7.81-13.41a174.74,174.74,0,0,1,10.64-15C821.22,665.12,824.54,661.38,827.51,658.24Z"/><path class="cls-8" d="M862,691.62l-31.92-21.36L798.15,648.9a1.56,1.56,0,0,1-.64-1.57,2,2,0,0,1,1.1-1.49l16.21-7.75,16.2-7.75a25.13,25.13,0,0,1,12-2.53,21.6,21.6,0,0,1,11.1,3.6h0a21.49,21.49,0,0,1,7.16,8.07,24.59,24.59,0,0,1,2.69,11l.32,19.73.31,19.72a2,2,0,0,1-.9,1.68A1.57,1.57,0,0,1,862,691.62Z"/><path class="cls-4" d="M207.81,657.07A86.78,86.78,0,0,0,205.43,681a70.45,70.45,0,0,0,5,23.52,61.28,61.28,0,0,0,8,13.94,55.58,55.58,0,0,0,11.43,11.24,35.11,35.11,0,0,0,15.57,6.5,61.94,61.94,0,0,0,17-.16,30.81,30.81,0,0,1,12.12.84,25.21,25.21,0,0,1,10.09,5.54,22.56,22.56,0,0,1,5.85,8.87,40.54,40.54,0,0,1,2.33,10.47c.11,1.16.28,7,.38,12.57s.16,10.82,0,10.82h18s.16-3.2.18-7.67a141.39,141.39,0,0,0-.66-15.3,79,79,0,0,0-2.38-12.88,60.29,60.29,0,0,0-6.92-15.71,41,41,0,0,0-7.07-8.55,31.82,31.82,0,0,0-9.3-6,32.53,32.53,0,0,0-12.3-2.12c-4.2,0-8.45.38-12.59.54a38.49,38.49,0,0,1-12.54-1.53,29.68,29.68,0,0,1-11-6c-10-8.76-12.44-21.2-11.58-34.12s5-26.36,8.15-37.1q2.29-7.93,5.19-17.26c1.92-6.2,4.05-12.84,6.39-19.86l-9.2-3.32-9.2-3.32q-3.57,10-7,20.6t-6.51,21.91q-1.38,5-2.65,9.93T207.81,657.07Z"/><path class="cls-5" d="M225.58,669.67q1-4.45,1.93-8.91c.64-3,1.29-5.94,1.93-8.91.08-.3.14-.55.2-.76s.1-.4.14-.58c.11-.44.26-1,.49-1.85s.53-1.91.93-3.32c1.71-6,3.26-11.12,4.38-14.81s1.8-5.9,1.8-5.9c1-3.14,2.09-6.66,3.32-10.53s2.57-8.07,4-12.58l-9.2-3.32-9.2-3.32c-1.8,4.86-3.42,9.38-4.84,13.47s-2.66,7.76-3.71,10.94c-.22.67-2.3,7-4.68,15.43a266.39,266.39,0,0,0-6.49,27.51c-.33,2-.63,4.22-.86,6.55s-.37,4.82-.39,7.5c0,1.72,0,3.31.08,4.72s.14,2.66.23,3.69l9.95-7.51Z"/><path class="cls-4" d="M239.32,717.45a27.82,27.82,0,0,0-16.76-8.06A29,29,0,0,0,209,710.94c-.17-.66-.36-1.31-.58-2a22.64,22.64,0,0,0-30.21-13.65,25.06,25.06,0,0,0-4.36,2.33,21,21,0,0,0-23.48-12.78,16.76,16.76,0,0,0-12.79,21.79,21.05,21.05,0,0,0,23.95,14.06c.34-.07.67-.17,1-.26a24.78,24.78,0,0,0,1.33,6.65A22.62,22.62,0,0,0,194,740.78a24.82,24.82,0,0,0,4.26-2.25,21.86,21.86,0,0,0,2.61,3.3,29,29,0,0,0,35,4.25c4.92-3.12,8.31-7.85,9-13.44S243.35,721.65,239.32,717.45Z"/><path class="cls-5" d="M230.74,730.9h-.1l-.11,0c-4.77-.84-9.54-1.81-14.28-2.91s-9.45-2.31-14.09-3.64a278.51,278.51,0,0,1-32.79-11.64A287.46,287.46,0,0,1,138.07,697a1.25,1.25,0,0,1-.58-.76,1.26,1.26,0,0,1,1.84-1.41,280.88,280.88,0,0,0,63.52,27.08c4.6,1.32,9.27,2.52,14,3.61s9.43,2.05,14.15,2.88a1.29,1.29,0,0,1,.81.52,1.25,1.25,0,0,1,.2.93,1.25,1.25,0,0,1-1.23,1Z"/><path class="cls-8" d="M292.5,542.48c28.08-19.28,36.63-36.43,31.77-43.45s-23.14-3.93-48.72,17.27c15.24-30.81,13.43-49.54,4.72-51.65s-24.31,12.41-36.63,48.1c-2-38.15-13.25-56.39-22.25-56.34s-15.8,18.38-8.94,53.38C193.16,481.71,176,473.16,169,478s-3.93,23.14,17.27,48.71c-30.81-15.24-49.54-13.42-51.65-4.71s12.41,24.3,48.1,36.62c-38.15,2-56.39,13.25-56.34,22.26s18.38,15.79,53.38,8.94c-28.07,19.28-36.62,36.43-31.76,43.46s23.14,3.92,48.71-17.28c-15.24,30.81-13.42,49.55-4.71,51.65s24.3-12.41,36.63-48.1c2,38.15,13.24,56.39,22.25,56.35s15.79-18.39,8.94-53.39c19.29,28.08,36.43,36.63,43.46,31.76s3.93-23.13-17.27-48.71c30.81,15.24,49.54,13.42,51.65,4.72S325.24,586,289.54,573.68c38.16-2,56.4-13.25,56.35-22.26S327.5,535.63,292.5,542.48Z"/><path class="cls-6" d="M258,570.84a24.86,24.86,0,1,1-4.28-18.55A24.74,24.74,0,0,1,258,570.84Z"/><polygon class="cls-5" points="821.77 953.34 479.99 953.34 138.2 953.34 138.2 915.66 138.2 877.98 479.99 877.98 821.77 877.98 821.77 915.66 821.77 953.34"/><path class="cls-5" d="M234.41,684.44l-30.17,96.81-30.17,96.81H296.65l-30.17-96.81L236.3,684.44a1,1,0,0,0-.94-.7A1,1,0,0,0,234.41,684.44Z"/><path class="cls-4" d="M264.46,878c9.3-15.27,12.17-31.5,9.76-45.88s-10.07-26.91-21.87-34.79A66.87,66.87,0,0,0,222.52,787c-11.44-1.11-23.56.72-34,7.38a44.48,44.48,0,0,0-18.06,22.85,49.92,49.92,0,0,0-3,15.38,35,35,0,0,0-9.86-.48A27.11,27.11,0,0,0,141,839.29a27.65,27.65,0,0,0-8.18,17.86A33.61,33.61,0,0,0,138.2,878H264.46Z"/><path class="cls-4" d="M696.46,878a27.49,27.49,0,0,1-13-14.32,23.62,23.62,0,0,1-.07-17.83,23,23,0,0,1,9.12-10.5,27.21,27.21,0,0,1,14.15-4.07,55,55,0,0,1-3.46-14.46c-.79-7.91,0-17.79,6.21-26.3,6.74-9.28,18-14.43,29.39-15.12s23,3,30.49,11.55c6.71,7.64,8.36,17.14,8.29,24.9a54.09,54.09,0,0,1-2.09,14.44,37.17,37.17,0,0,1,27-5.29,33.89,33.89,0,0,1,21.86,14,34.49,34.49,0,0,1,5.7,21.3,38.6,38.6,0,0,1-8.24,21.7H696.46Z"/><path class="cls-3" d="M474.79,408.48Q408.61,525.86,342.44,643.23L210.08,878H326.92c4.49-7.64,10.58-18.32,17.51-31.54s14.7-29,22.55-46.86A1630.49,1630.49,0,0,0,447.84,570c16.84-62.43,24.74-107.14,27.24-123.26a.67.67,0,0,1,1.33,0c3.8,34.33,8.55,65.75,13.62,93.92s10.45,53.07,15.5,74.34c17.1,71.94,40.32,129.56,61.34,171.67s39.85,68.72,48.19,78.63c2.31,2.74,4.44,5.21,6.32,7.33s3.48,3.91,4.75,5.3l59.44,0,59.45,0L611.76,643.27,478.5,408.48a2.13,2.13,0,0,0-3.71,0Z"/><path class="cls-8" d="M378.3,893.22l5,17.53,5,17.53a7.44,7.44,0,0,1-.86,3.48,7.35,7.35,0,0,1-2.38,2.64L373,942.49l-12.11,8.1a1.48,1.48,0,0,0-.6,1.68,1.46,1.46,0,0,0,1.41,1.07h81.83a5.58,5.58,0,0,0,4-1.68,5.76,5.76,0,0,0,1.65-4l-5-27.2-5-27.19H378.3Z"/><path class="cls-8" d="M724.88,877a1.36,1.36,0,0,1-.29,0,1.33,1.33,0,0,1-.28-.1q-13.95-7.11-27.32-15.27t-26-17.24c-56.17-40.57-96.18-91.57-124.69-143.53S500.85,595.9,490.72,551.5a1.29,1.29,0,0,1,.16-1,1.25,1.25,0,0,1,2.28.39c10.08,44.19,27,96.86,55.35,148.57S616.65,802,672.5,842.29q12.5,9,25.79,17.14c8.84,5.39,17.92,10.46,27.15,15.17a1.19,1.19,0,0,1,.62.72,1.24,1.24,0,0,1-.07,1,1.2,1.2,0,0,1-.47.5A1.21,1.21,0,0,1,724.88,877Z"/><path class="cls-8" d="M230.46,878.19a1.28,1.28,0,0,1-1.16-.77,1.23,1.23,0,0,1,0-1,1.26,1.26,0,0,1,.68-.68,266,266,0,0,0,29.37-14.23A260.67,260.67,0,0,0,286.53,844c7-5.19,19.8-14.67,38.25-37.9s42.55-60.2,72.15-120.38c10.64-21.62,20.7-43.78,30.12-66.31s18.21-45.44,26.29-68.56a1.26,1.26,0,0,1,.63-.71,1.23,1.23,0,0,1,1-.05,1.2,1.2,0,0,1,.71.63,1.27,1.27,0,0,1,.06,1c-8.1,23.17-16.9,46.12-26.34,68.69s-19.53,44.78-30.19,66.46c-26.35,53.57-48.12,88.91-66.31,113.08S300.05,837,288,846a263,263,0,0,1-27.43,17.77,270.22,270.22,0,0,1-29.65,14.37l-.24.07Z"/><path class="cls-2" d="M505.53,615.53c-5-21.32-10.43-46.28-15.5-74.52s-9.82-59.73-13.61-94.13a.68.68,0,0,0-1.35,0,1312.25,1312.25,0,0,1-37.3,167.64A1264,1264,0,0,1,367,800.56Q357.3,821,347.25,840.32T326.92,878H625.81c-1.62-1.66-3.34-3.45-5.14-5.36s-3.67-3.94-5.61-6.09c-12.23-13.59-29.85-35.17-49.3-73.95S525.05,697.85,505.53,615.53Z"/><path class="cls-6" d="M490.58,583c1.87-1.17,3.84-2.49,5.88-4s4.15-3.17,6.28-5a95.12,95.12,0,0,0,8-7.86c2.32-2.57,4.3-5,6-7.33L522.33,582q2.8,11.61,5.6,23.22l-18.67-11.12Z"/><path class="cls-3" d="M438.19,601.2c2.46-.22,5.11-.54,7.92-1s5.77-1,8.87-1.78,6.26-1.65,9.07-2.58,5.39-1.9,7.75-2.87q-1.77,11.75-3.55,23.48t-3.56,23.47l-13.25-19.37Z"/><path class="cls-8" d="M381.25,591.67c2.39.91,4.91,1.81,7.57,2.67s5.47,1.7,8.4,2.48c3.25.86,6.39,1.59,9.41,2.21s5.9,1.11,8.65,1.52l-13.42,17.67L388.45,635.9l-3.6-22.11Z"/><path class="cls-6" d="M429.82,495l-1.59,24.24q-.81,12.12-1.6,24.24L443,527.06l16.35-16.43c-3-1.1-6.15-2.39-9.46-3.92s-6.75-3.31-10.27-5.36q-2.69-1.58-5.13-3.16T429.82,495Z"/><path class="cls-8" d="M481.39,516.79q3.33,10.63,6.68,21.27t6.68,21.26l9.15-20.16L513.05,519c-2.41.09-5,.14-7.65.1s-5.48-.14-8.41-.35-5.59-.48-8.19-.81S483.72,517.21,481.39,516.79Z"/><path class="cls-9" d="M745,878.08,734.67,878l-10.35,0V825.57H745v52.51Z"/><polygon class="cls-9" points="230.85 877.98 220.5 877.98 210.16 877.98 210.16 852.38 210.16 826.77 220.5 826.77 230.85 826.77 230.85 852.38 230.85 877.98"/><path class="cls-5" d="M429.23,602.74A123.08,123.08,0,0,1,392.41,597a113.66,113.66,0,0,1-19.49-8.07,1.25,1.25,0,0,1,1.2-2.2A119.68,119.68,0,0,0,407.65,598c18.29,3.39,42.15,3.63,67-7.63a110.53,110.53,0,0,0,46.53-39.78,121.57,121.57,0,0,0,15.79-33.89,137,137,0,0,1-45.81,2.74,134.53,134.53,0,0,1-33.68-8.22,131.14,131.14,0,0,1-22.73-11.38,77.37,77.37,0,0,1-8.42-6,1.31,1.31,0,0,1-.44-.85,1.29,1.29,0,0,1,.3-.91,1.23,1.23,0,0,1,.85-.44,1.24,1.24,0,0,1,.91.3c.23.19,11.54,9.64,30.94,17.06a132.3,132.3,0,0,0,79.52,4.8l1-.25,1-.24-.25,1-.25,1a121.46,121.46,0,0,1-14.84,33.86,112.41,112.41,0,0,1-95.82,53.55Z"/><path class="cls-6" d="M569.21,737.07a66.71,66.71,0,0,0-2.55-9.54,56.31,56.31,0,0,0-6.91-13.45c-.48-.68-1-1.37-1.49-2s-1.07-1.36-1.63-2a57.9,57.9,0,0,0-13.1-11.17,71.9,71.9,0,0,0-19.63-8.65c-1.49-.4-2.82-.68-3.87-.87s-1.8-.29-2.14-.34a52.76,52.76,0,0,0-10.35-.52c-3.06.14-5.79.5-8.4.8-2.13.26-5.9.7-10.59,1.11s-10.33.78-16.2.9c-1.82,0-4.1.05-7,.11s-6.33.17-10.51.37a71.22,71.22,0,0,0-7.22.63,28,28,0,0,0-6.53,1.82,33.35,33.35,0,0,0-4.81,2.47c-1.31.81-2.31,1.54-2.93,2,0,0-1,.72-2.41,2a47.93,47.93,0,0,0-5.06,5.15,38.14,38.14,0,0,0-3.37,4.8c-1.05,1.75-2,3.61-2.92,5.5a80.54,80.54,0,0,0-5.29,14.72,88.72,88.72,0,0,0-2.47,15.47l-.91,13-.92,13,19.9,12,19.89,11.95,42.09-2.54L534,791.06q.6,5.46,1.32,11.07t1.58,11.35q1.59,10.68,3.48,20.8t4,19.67l22.8-3.65L590,846.66a246.65,246.65,0,0,1-7.44-25.12c-1.78-7.46-2.94-13.94-3.74-19.23-1-6.53-2.42-18.08-4.1-30.37S571.1,746.6,569.21,737.07Z"/><path class="cls-8" d="M421.55,893.22l4.92,17.53,4.91,17.53a7.67,7.67,0,0,1-.84,3.48,7.3,7.3,0,0,1-2.33,2.64l-11.82,8.09-11.82,8.1a1.5,1.5,0,0,0-.58,1.68,1.42,1.42,0,0,0,1.37,1.07h79.87a5.39,5.39,0,0,0,3.89-1.68,5.86,5.86,0,0,0,1.61-4l-4.91-27.2-4.91-27.19H421.55Z"/><path class="cls-10" d="M618.45,899.07s-2.23-1.56-5-3.5-6-4.25-7.94-5.75a5.14,5.14,0,0,1-.88-.55,5.08,5.08,0,0,1-.78-.76l.65.53,1,.78a4.59,4.59,0,0,0,2.46.45,3.47,3.47,0,0,0,2.07-.93,3.07,3.07,0,0,0,.67-.92,4.08,4.08,0,0,0,.22-2.94,5,5,0,0,0-.86-1.62c-.62-.78-1.25-1.57-1.87-2.38L606.36,879c-.36-.47-1-1.36-1.84-2.47s-1.76-2.41-2.67-3.73c0,0-.93-1.34-2.28-3.44s-3.11-5-4.81-8.09a36.26,36.26,0,0,1-2.37-5.91c-.81-2.48-1.62-5.43-2.44-8.72l-22.79,3.64L544.36,854c.85,6.2,1.56,11.33,2.12,15.16s1,6.35,1.18,7.33.41,1.79.58,2.45.29,1.09.29,1.09a50.18,50.18,0,0,0,4.25,10.76c1.79,3.37,4,6.84,7,11.41a15.91,15.91,0,0,0,1.88,2.48,7.58,7.58,0,0,0,3,2,8.44,8.44,0,0,0,2.19.47,4.49,4.49,0,0,0,3.14-.93,4.75,4.75,0,0,0,1.55-2.54,6.24,6.24,0,0,0,.19-1.71c.83.94,1.76,1.93,2.8,2.93a44.39,44.39,0,0,0,3.47,3,57.42,57.42,0,0,0,8.65,5.67c3.33,1.72,6.85,2.88,9.74,2.35a5.63,5.63,0,0,0,2.14-.89,4.36,4.36,0,0,0,.75-.64,5,5,0,0,0,1-1.58,6.07,6.07,0,0,0,.38-1.28,19.14,19.14,0,0,0,3.15,1.7,13.25,13.25,0,0,0,3,.89,8.35,8.35,0,0,0,2.29.1,4.09,4.09,0,0,0,2.17-.92,4.57,4.57,0,0,0,1.44-2.36,5.26,5.26,0,0,0-.28-3.6,6.28,6.28,0,0,0-.35-.61,5,5,0,0,0,3.59.82,4.83,4.83,0,0,0,3.13-1.85,5,5,0,0,0,1-3.31A5.18,5.18,0,0,0,618.45,899.07Z"/><path class="cls-4" d="M449.09,796.15c-9.54-6.2-17.93-11.37-25.14-15.66s-13.23-7.66-18-10.28c-.9-.49-2.1-1.19-3.62-1.88a27.76,27.76,0,0,0-5.54-1.86,32.74,32.74,0,0,0-16.85,1,34.62,34.62,0,0,0-15,9.6,33.21,33.21,0,0,0-6.21,10,48.14,48.14,0,0,0-2.36,8.11,46.39,46.39,0,0,0-.6,15.75,92.17,92.17,0,0,0,2.95,13.4c5,18.09,10,35.49,13.7,48.38S378.57,894,378.57,894H481.1l-1-8-1-8a83,83,0,0,0,22.47-2.74c11.46-3,24.57-9.34,32.34-22.4a43.48,43.48,0,0,0,4.43-10.2,49.44,49.44,0,0,0,1.78-9.62c-.56-3.08-1.11-6.19-1.63-9.36s-1-6.38-1.53-9.63q-.88-5.91-1.63-11.65T534,791.06l-42.46,2.55Z"/><path class="cls-7" d="M479.12,879.23a1.29,1.29,0,0,1-.81-.29,1.32,1.32,0,0,1-.43-.76L476,866.93l-1.85-11.26a1.21,1.21,0,0,1,.22-.93,1.25,1.25,0,0,1,.81-.51,1.21,1.21,0,0,1,.93.22,1.27,1.27,0,0,1,.51.81l1.84,11.26,1.85,11.26a1.21,1.21,0,0,1-.22.93,1.25,1.25,0,0,1-.81.51h-.2Z"/><path class="cls-7" d="M405.42,954.59h-.15l-.16,0a3,3,0,0,1-1.53-1,2.85,2.85,0,0,1-.66-1.66,2.89,2.89,0,0,1,.36-1.55,3,3,0,0,1,1.13-1.15l12.18-7.87,12.18-7.88a7,7,0,0,0,.88-.66,5.45,5.45,0,0,0,.66-.71,5.67,5.67,0,0,0,.47-.77,5.37,5.37,0,0,0,.34-.83,4.81,4.81,0,0,0,.17-1.37,5.35,5.35,0,0,0-.23-1.46l-5-17-5-17c-5.06-12.81-9.15-24.48-12.06-33.81s-4.67-16.31-5-19.74a39.85,39.85,0,0,1,0-8.88,21.84,21.84,0,0,1,3.09-9.13,25,25,0,0,1,5.44-5.84,73.83,73.83,0,0,1,6.56-4.56l.45-.3.46-.3c4-2.56,8.12-5,12.74-7.52s9.7-5,15.48-7.73a50,50,0,0,1-9.56-12,53,53,0,0,1-3.94-8.07,34.66,34.66,0,0,1-2.25-12.1,35.15,35.15,0,0,1,2.17-12.29,38.54,38.54,0,0,1,4.49-8.68,1.26,1.26,0,0,1,.8-.52,1.23,1.23,0,0,1,.94.2,1.26,1.26,0,0,1,.52.8,1.28,1.28,0,0,1-.2.94,36.47,36.47,0,0,0-4.2,8.09,32.82,32.82,0,0,0-2,11.45A32.37,32.37,0,0,0,437.12,775a51.9,51.9,0,0,0,3.73,7.63,48.1,48.1,0,0,0,4.66,6.74,48.69,48.69,0,0,0,5.79,5.88l.74.63.75.63-.89.41-.89.41c-6.15,2.84-11.51,5.48-16.36,8.08s-9.17,5.15-13.27,7.8l-.46.3-.46.3a74.48,74.48,0,0,0-6.21,4.3,22.87,22.87,0,0,0-5,5.36,19.34,19.34,0,0,0-2.73,8.24,36.73,36.73,0,0,0,0,8.14c.29,2.67,1.71,8.78,4.47,17.78s6.85,20.91,12.48,35.17l0,.06,0,0,5,17,5,17a8.3,8.3,0,0,1,.34,2.17,7,7,0,0,1-.28,2v.05l0,0a8.28,8.28,0,0,1-.47,1.18,7.9,7.9,0,0,1-.71,1.13,7.16,7.16,0,0,1-.95,1,8.61,8.61,0,0,1-1.23.93l-12.21,7.9-12.22,7.9a.52.52,0,0,0-.22.19.35.35,0,0,0-.07.21.44.44,0,0,0,.1.22.48.48,0,0,0,.23.13,1.25,1.25,0,0,1,.89,1.53,1.23,1.23,0,0,1-.45.68A1.27,1.27,0,0,1,405.42,954.59Z"/><path class="cls-8" d="M833.36,544.68l-55.88-9.84L721.61,525a2.33,2.33,0,0,1-1.8-1.73,2.89,2.89,0,0,1,.59-2.63l17.23-19.83L754.86,481a37,37,0,0,1,14.72-10.41,32.33,32.33,0,0,1,17.14-1.69h0a32.2,32.2,0,0,1,14.5,6.59,36.42,36.42,0,0,1,10.2,13.07l12.24,26.15,12.25,26.15a2.88,2.88,0,0,1-.22,2.77A2.32,2.32,0,0,1,833.36,544.68Z"/><path class="cls-9" d="M571.78,903.15a1.3,1.3,0,0,1-.51-.11,1.24,1.24,0,0,1-.43-.33c-.83-1-1.62-1.94-2.38-3s-1.48-2.06-2.17-3.13-1.31-2.13-1.91-3.23-1.16-2.22-1.68-3.36a1.25,1.25,0,0,1,0-.95,1.24,1.24,0,0,1,1.61-.73,1.21,1.21,0,0,1,.7.65c.49,1.08,1,2.15,1.6,3.2s1.18,2.07,1.82,3.07,1.34,2,2.06,3,1.48,1.91,2.27,2.82a1.29,1.29,0,0,1,.3.91,1.25,1.25,0,0,1-.43.85,1.29,1.29,0,0,1-.39.23A1.26,1.26,0,0,1,571.78,903.15Z"/><path class="cls-9" d="M600.76,912.46a1.19,1.19,0,0,1-.37-.06,1.26,1.26,0,0,1-.35-.17q-2.89-2.07-5.72-4.28c-1.87-1.47-3.72-3-5.52-4.54-2.31-2-4.59-4.07-6.8-6.22s-4.37-4.36-6.44-6.63a1.21,1.21,0,0,1-.33-.9,1.26,1.26,0,0,1,.4-.87,1.27,1.27,0,0,1,1.77.08q3.06,3.35,6.34,6.52t6.7,6.13c1.77,1.52,3.58,3,5.43,4.47s3.72,2.85,5.62,4.2a1.26,1.26,0,0,1-.16,2.14A1.4,1.4,0,0,1,600.76,912.46Z"/><path class="cls-9" d="M612.21,907.61a1.48,1.48,0,0,1-.35-.05,1.4,1.4,0,0,1-.33-.15l-1.83-1.22-1.79-1.25s-1-.67-2.32-1.67-3.15-2.37-4.89-3.78c-3.22-2.61-6.38-5.55-9-8.08s-4.58-4.63-5.46-5.57a1.22,1.22,0,0,1-.34-.89,1.25,1.25,0,0,1,2.17-.81c.86.92,2.83,3,5.37,5.48s5.64,5.37,8.79,7.93c1.71,1.38,3.47,2.71,4.8,3.7s2.26,1.64,2.27,1.65l1.77,1.22,1.79,1.19a1.27,1.27,0,0,1,.54.79,1.25,1.25,0,0,1-.18.94,1.15,1.15,0,0,1-.46.42A1.2,1.2,0,0,1,612.21,907.61Z"/><path class="cls-9" d="M605.55,890.51a1.23,1.23,0,0,1-.42-.07,1.34,1.34,0,0,1-.38-.22c-.54-.45-1.08-.92-1.6-1.4s-1-1-1.54-1.48a43.78,43.78,0,0,1-3.15-3.51,45.61,45.61,0,0,1-2.77-3.84,1.26,1.26,0,0,1-.18-.94,1.29,1.29,0,0,1,.55-.79,1.26,1.26,0,0,1,.94-.17,1.27,1.27,0,0,1,.79.54,40.78,40.78,0,0,0,2.62,3.63,42.61,42.61,0,0,0,3,3.32c.47.48,1,.94,1.45,1.4s1,.89,1.52,1.32a1.24,1.24,0,0,1,.16,1.76,1.22,1.22,0,0,1-.44.34A1.31,1.31,0,0,1,605.55,890.51Z"/><path class="cls-7" d="M533.29,792.31a1.27,1.27,0,0,1-.84-.32,1.23,1.23,0,0,1-.4-.8l-2.11-20.05-2.1-20a1.24,1.24,0,0,1,2-1.1,1.24,1.24,0,0,1,.46.84l2.1,20,2.1,20a1.25,1.25,0,0,1-.27.92,1.21,1.21,0,0,1-.84.45h-.13Z"/><path class="cls-8" d="M455.32,274.63l-158.44-7.69-158.45-7.68a3.57,3.57,0,0,1-3.4-3.75h0a162.14,162.14,0,0,1,169.8-154.09H305a162.13,162.13,0,0,1,154.1,169.8h0a3.59,3.59,0,0,1-3.75,3.4Z"/><path class="cls-9" d="M284.11,206.87h-.19a2.45,2.45,0,0,1-1.71-.86,2.5,2.5,0,0,1-.6-1.82l3.63-48.26,3.63-48.27L252,132.33,215.16,157a2.49,2.49,0,0,1-1.88.38,2.56,2.56,0,0,1-1.59-1.06,2.49,2.49,0,0,1-.37-1.88,2.47,2.47,0,0,1,1.06-1.59l36.88-24.7,36.88-24.7a4.61,4.61,0,0,1,7.78,3.7l-3.66,48.7-3.66,48.7a2.5,2.5,0,0,1-2.49,2.31Z"/><path class="cls-9" d="M361.07,184.18a2.49,2.49,0,0,1-1-.21,2.59,2.59,0,0,1-.86-.62l-35-39.06-35-39.07.76-1.84.75-1.84,1.16.37,1.15.36,39.46,14.66L372,131.59a2.5,2.5,0,1,1-1.74,4.69l-34.82-12.94L300.63,110.4l31.15,34.81L362.93,180a2.49,2.49,0,0,1-.19,3.53,2.5,2.5,0,0,1-.79.48A2.41,2.41,0,0,1,361.07,184.18Z"/><path class="cls-9" d="M605.56,889.82l-1-.78-.65-.53a5.08,5.08,0,0,0,.78.76A5.14,5.14,0,0,0,605.56,889.82Z"/><path class="cls-10" d="M502.63,667.35A24.6,24.6,0,1,1,495.42,650,24.53,24.53,0,0,1,502.63,667.35Z"/><path class="cls-2" d="M468.23,666.1a1.88,1.88,0,0,1-.78,1.18,1.86,1.86,0,0,1-1.39.28,1.8,1.8,0,0,1-1.18-.78,1.85,1.85,0,0,1,.5-2.56,1.86,1.86,0,0,1,2.56.49A1.87,1.87,0,0,1,468.23,666.1Z"/><path class="cls-2" d="M481.74,667.35a1.88,1.88,0,0,1-.78,1.18,1.85,1.85,0,0,1-2.85-1.88,1.85,1.85,0,1,1,3.63.7Z"/><path class="cls-9" d="M472.88,678.86h0a10.22,10.22,0,0,1-5.19-1.44,10.54,10.54,0,0,1-2.52-2,1.28,1.28,0,0,1-.32-.9,1.24,1.24,0,0,1,.42-.86,1.22,1.22,0,0,1,.9-.32,1.19,1.19,0,0,1,.86.41,8.51,8.51,0,0,0,1.92,1.55,7.82,7.82,0,0,0,3.94,1.09h0a7.8,7.8,0,0,0,3.79-1,8.21,8.21,0,0,0,1.88-1.41,1.26,1.26,0,0,1,1.77,0,1.26,1.26,0,0,1,.38.88,1.24,1.24,0,0,1-.36.89,10.72,10.72,0,0,1-2.47,1.86A10.27,10.27,0,0,1,472.88,678.86Z"/><path class="cls-9" d="M471.07,655.18a13.33,13.33,0,0,0,5.83,4.72,13.77,13.77,0,0,0,7.51.91,11.37,11.37,0,0,0,5.83,6.67,9.54,9.54,0,0,0,7.89.37,8.57,8.57,0,0,0,2.42-1.58,10.34,10.34,0,0,0,1.84-2.34A24.6,24.6,0,0,0,469,644.46a13.66,13.66,0,0,0-.12,5.55A13.19,13.19,0,0,0,471.07,655.18Z"/><path class="cls-9" d="M518.91,629.68a20.42,20.42,0,1,1-6-14.44A20.36,20.36,0,0,1,518.91,629.68Z"/><path class="cls-9" d="M527,602.77a13.69,13.69,0,1,1-4-9.68A13.71,13.71,0,0,1,527,602.77Z"/><path class="cls-2" d="M230.85,826.77c0,1.19-1.16,2.27-3,3.05a21.86,21.86,0,0,1-14.63,0c-1.87-.78-3-1.86-3-3.05s1.16-2.27,3-3a21.7,21.7,0,0,1,14.63,0C229.69,824.5,230.85,825.58,230.85,826.77Z"/><path class="cls-2" d="M745,825.57c0,1.2-1.16,2.28-3,3.06a21.89,21.89,0,0,1-14.64,0c-1.87-.78-3-1.86-3-3.06s1.16-2.27,3-3.05a21.89,21.89,0,0,1,14.64,0C743.86,823.3,745,824.38,745,825.57Z"/><path class="cls-6" d="M310.13,446.28a15.53,15.53,0,1,1-4.55-11A15.5,15.5,0,0,1,310.13,446.28Z"/><path class="cls-6" d="M370.89,495a15.55,15.55,0,1,1-4.56-11A15.47,15.47,0,0,1,370.89,495Z"/><path class="cls-6" d="M387,405.83a15.53,15.53,0,1,1-4.55-11A15.5,15.5,0,0,1,387,405.83Z"/><path class="cls-9" d="M809.71,518.33a6.45,6.45,0,0,1-4,4.15A11.3,11.3,0,0,1,793.14,519a6.05,6.05,0,0,1,2.68-9.73,11.27,11.27,0,0,1,12.62,3.48A6.42,6.42,0,0,1,809.71,518.33Z"/><path class="cls-9" d="M820.35,531.54a3.92,3.92,0,0,1-2.42,2.53,6.89,6.89,0,0,1-7.71-2.13,3.7,3.7,0,0,1,1.64-6,6.92,6.92,0,0,1,7.71,2.13A3.92,3.92,0,0,1,820.35,531.54Z"/><path class="cls-9" d="M851.1,640.28a4.15,4.15,0,0,1-3,2.24,7.3,7.3,0,0,1-7.7-3.54,3.93,3.93,0,0,1,2.73-6,7,7,0,0,1,4.42.54,7,7,0,0,1,3.28,3A4.14,4.14,0,0,1,851.1,640.28Z"/><path class="cls-9" d="M834.75,643.26a2.78,2.78,0,0,1-2,1.51,4.9,4.9,0,0,1-5.19-2.39,2.64,2.64,0,0,1,1.84-4,4.9,4.9,0,0,1,5.19,2.39A2.78,2.78,0,0,1,834.75,643.26Z"/></svg>