<svg id="Layer_1" data-name="Layer 1" xmlns="http://www.w3.org/2000/svg" viewBox="0 0 1000 1000"><defs><style>.cls-1{fill:#666538;}.cls-2{fill:#e9cf81;}.cls-3{fill:#f98638;}.cls-4{fill:#bab653;}.cls-5{fill:#353519;}.cls-6{fill:#ad4d4d;}.cls-7{fill:#f4ece5;}.cls-8{fill:#deb8fc;}.cls-9{fill:#ffaa9f;}.cls-10{fill:#f9822b;}.cls-11{fill:#e2b2ff;}.cls-12{fill:#2b3d0a;}</style></defs><path class="cls-1" d="M549.9,551a1.27,1.27,0,0,1-.66-.19,1.22,1.22,0,0,1-.47-.53l-5.65-11.89-5.66-11.9a1.24,1.24,0,0,1,.59-1.66,1.24,1.24,0,0,1,1,0,1.27,1.27,0,0,1,.71.64l5.65,11.9L551,549.16a1.33,1.33,0,0,1,.05,1,1.25,1.25,0,0,1-.65.71,1.14,1.14,0,0,1-.26.09A1.24,1.24,0,0,1,549.9,551Z"/><path class="cls-1" d="M696.75,755.15h0l-81,0-81.05,0a1.24,1.24,0,0,1-.88-2.13,1.22,1.22,0,0,1,.88-.37h0l81.05,0,81,0a1.27,1.27,0,0,1,.88.36,1.26,1.26,0,0,1-.88,2.14Z"/><path class="cls-1" d="M679.85,858.57a1.27,1.27,0,0,1-1.05-.57l-62.74-97.07-62.73-97.07a1.26,1.26,0,0,1-.18-.94,1.24,1.24,0,0,1,.55-.78,1.26,1.26,0,0,1,.94-.18,1.24,1.24,0,0,1,.78.55l62.74,97.06,62.74,97.07a1.26,1.26,0,0,1-.37,1.73,1.21,1.21,0,0,1-.33.15A1.34,1.34,0,0,1,679.85,858.57Z"/><path class="cls-1" d="M548.45,849.63a1.49,1.49,0,0,1-.36,0,1.44,1.44,0,0,1-.33-.16,1.26,1.26,0,0,1-.53-.8,1.23,1.23,0,0,1,.18-.94L610.8,753l63.39-94.71a1.21,1.21,0,0,1,.8-.53,1.23,1.23,0,0,1,.94.18,1.3,1.3,0,0,1,.53.8,1.28,1.28,0,0,1-.19.94l-63.39,94.71-63.39,94.71a1.32,1.32,0,0,1-.46.42A1.3,1.3,0,0,1,548.45,849.63Z"/><path class="cls-1" d="M598.44,916.62h-.1a1.25,1.25,0,0,1-1.15-1.34l12-152.94,12-152.93a1.29,1.29,0,0,1,.44-.85,1.27,1.27,0,0,1,.91-.3,1.24,1.24,0,0,1,.85.44,1.21,1.21,0,0,1,.29.91l-12,152.93L599.68,915.47a1.17,1.17,0,0,1-.4.82A1.21,1.21,0,0,1,598.44,916.62Z"/><path class="cls-1" d="M337.73,360l-3.8.11-3.8.1a.09.09,0,0,1-.09-.08.07.07,0,0,1,.06-.09,21.08,21.08,0,0,0,7.56-4.51,13.52,13.52,0,0,0,3.93-6.51,13.16,13.16,0,0,0-.38-7.23,17,17,0,0,0-1.73-3.71,16.65,16.65,0,0,0-8.92-6.66A22.76,22.76,0,0,0,318,331a17.92,17.92,0,0,0,10-6.26,16,16,0,0,0,.54-19.68,15.4,15.4,0,0,0-17.71-5.69,17.93,17.93,0,0,0-8.55,6.13A19.42,19.42,0,0,0,304.18,294a17.62,17.62,0,0,0-5-10.1A18.18,18.18,0,0,0,288.82,279,16.24,16.24,0,0,0,278,281.2a16.83,16.83,0,0,0-7.19,11.71,21.29,21.29,0,0,0,3.54,15.3.17.17,0,0,1,0,.23.18.18,0,0,1-.23,0,15.11,15.11,0,0,0-11.29-2.72,12.58,12.58,0,0,0-10.45,16.69,15.07,15.07,0,0,0,8,9.36v0h0a18.85,18.85,0,0,0-14.17,2.69,15.29,15.29,0,0,0-7,10.34,14.76,14.76,0,0,0,2.86,10.4,18.62,18.62,0,0,0,9.84,7l-3.91.1-3.91.1a19.54,19.54,0,0,0-19,20h0a19.54,19.54,0,0,0,20,19l16.1-.43,16.09-.43,2.93,155.87,2.94,155.87,14.64-.39,14.64-.39L309.52,555.7l-2.93-155.87,16.09-.43,16.09-.43a19.5,19.5,0,0,0,19-20h0a19.52,19.52,0,0,0-20-19Z"/><path class="cls-1" d="M194.85,447.94,191.2,449l-3.64,1.08a.09.09,0,0,1-.11,0,.1.1,0,0,1,0-.12,21.05,21.05,0,0,0,6.13-6.31,13.58,13.58,0,0,0,2.11-7.3,13.23,13.23,0,0,0-2.25-6.89,17.06,17.06,0,0,0-2.63-3.13,16.65,16.65,0,0,0-10.34-4.12,22.75,22.75,0,0,0-12.23,2.92,18,18,0,0,0,8-8.63,16.07,16.07,0,0,0-4.59-19.16,15.43,15.43,0,0,0-18.58-.9,18,18,0,0,0-6.67,8.14A19.37,19.37,0,0,0,145.34,393a17.58,17.58,0,0,0-7.48-8.45,18.11,18.11,0,0,0-11.25-2.09,16.19,16.19,0,0,0-9.87,5,16.87,16.87,0,0,0-3.92,13.17,21.37,21.37,0,0,0,7.39,13.86.17.17,0,0,1,0,.23.18.18,0,0,1-.22.07,15.15,15.15,0,0,0-11.61.29,12.59,12.59,0,0,0-5.77,18.84,15.07,15.07,0,0,0,10.18,7h0a18.84,18.84,0,0,0-13,6.28,15.27,15.27,0,0,0-4.08,11.8,14.77,14.77,0,0,0,5.46,9.29,18.62,18.62,0,0,0,11.32,4.22l-3.75,1.11L105,474.64A19.5,19.5,0,0,0,91.9,498.91h0a19.52,19.52,0,0,0,24.27,13.15l15.43-4.59L147,502.88l39.68,123.85,39.68,123.86,14-4.18,14-4.17L214.79,618.39,175.11,494.53,190.54,490,206,485.36a19.52,19.52,0,0,0,13.15-24.27h0a19.52,19.52,0,0,0-24.27-13.15Z"/><path class="cls-2" d="M192.35,923.09a62.58,62.58,0,0,1-30.69-32.32c-5.58-13.45-6.21-28.51-.95-42a55.56,55.56,0,0,1,22.76-26.92,62.29,62.29,0,0,1,35.83-9.17,119.12,119.12,0,0,1-9.68-52.62c.82-18.16,6-35.62,16.64-48.34,14.3-17.16,32.32-24.91,47.25-28.32a96.46,96.46,0,0,1,28.67-2.31c20.61,1.75,39.64,8.2,55.24,18.35s27.78,24,34.68,40.59a149.61,149.61,0,0,1,8.77,32.06c1.71,10.57,2.17,20,1.24,25.57a90,90,0,0,1,63.45-9.44c20.42,4.54,38.6,16.25,50,33.53A79.19,79.19,0,0,1,528.16,870a89.65,89.65,0,0,1-18.38,49.19l-158.72,1.93Z"/><path class="cls-3" d="M513.12,536.23l34.74-12.3,34.73-12.29a8.62,8.62,0,0,0-4-16.38l-58.83,2.23L461,499.71a7.78,7.78,0,0,0-4.1,14.2l13.51,9.24,13.51,9.25a32.52,32.52,0,0,0,29.24,3.83Z"/><path class="cls-4" d="M203.44,732.18a129.56,129.56,0,0,0-3.53,35.47,104.73,104.73,0,0,0,7.37,34.92,90.4,90.4,0,0,0,11.83,20.69,81.83,81.83,0,0,0,17,16.69,52.13,52.13,0,0,0,23.11,9.66c7.93,1.25,16.21.84,25.26-.24a52.74,52.74,0,0,1,17.89.49,27.09,27.09,0,0,1,15.09,9,39.79,39.79,0,0,1,7.82,16,78.47,78.47,0,0,1,2.11,17.85l.42,14.36.41,14.36,14.31-.17,14.32-.17c.8,0,.75-7.54.45-15.42s-.83-16.1-1-17.48a122.79,122.79,0,0,0-4.6-22,87.75,87.75,0,0,0-9.21-20.45A61.26,61.26,0,0,0,332,833a47.09,47.09,0,0,0-13.81-8.9c-5.86-2.4-12-3.11-18.27-3.15s-12.55.56-18.69.8a57.08,57.08,0,0,1-18.62-2.27,44.14,44.14,0,0,1-16.4-8.93c-14.87-13-18.47-31.49-17.19-50.68s7.45-39.13,12.09-55.09c2.29-7.85,4.85-16.41,7.71-25.62s6-19.07,9.5-29.5l-13.66-4.93L231,639.83q-5.29,14.8-10.33,30.59T211,703q-2.05,7.44-3.94,14.75T203.44,732.18Z"/><path class="cls-5" d="M231.93,739.35l1.82-7.46,1.82-7.45q6.35-23,13.79-47,4.38-14.11,8.93-27.73h0L231,639.83c-2.17,6-4,11.24-5.44,15.56-.83,2.45-2.09,6.21-3.67,11.21-1.65,5.24-2.12,7-4.25,13.84-1.61,5.17-2.18,6.88-3,9.57-.62,2-2,6.36-6.94,25.36-1.78,6.82-3.75,14.43-5.07,20.85,0,0-1.22,5.92-1.76,10.59-.2,1.7-.43,3.84-.43,3.84,0,.49-.1.94-.15,1.36l23.6-9.43Z"/><path class="cls-5" d="M175.11,494.53l-11.56,2.91L152,500.34,168.26,512l16.28,11.68-4.72-14.58Z"/><path class="cls-4" d="M212.41,784.84a42.77,42.77,0,0,0-9.44-3.11,38.23,38.23,0,0,0-9.34-.74,33.21,33.21,0,0,0-2.12-14,31.39,31.39,0,0,0-22.68-19.4,33.61,33.61,0,0,0-16.18.53,28,28,0,0,0-2.11-9.1,29.83,29.83,0,0,0-5.24-8.37,28.8,28.8,0,0,0-18.37-9.69,23.43,23.43,0,0,0-26.46,23.44,28.8,28.8,0,0,0,7.4,19.39,29.68,29.68,0,0,0,9.23,7,27.61,27.61,0,0,0,10.56,2.77,33.92,33.92,0,0,0,0,17.47,31.42,31.42,0,0,0,23.63,22.49,33.69,33.69,0,0,0,16.11-.46,33.53,33.53,0,0,0,7.29,13.41,40.84,40.84,0,0,0,13.56,10.09,39,39,0,0,0,25.88,2.84c7.9-2,14.45-6.84,17.77-14s2.81-15.26-.73-22.61A39,39,0,0,0,212.41,784.84Z"/><path class="cls-1" d="M214.51,816.6l-.3,0a2.12,2.12,0,0,1-.29-.11c-6-3.19-11.88-6.55-17.7-10.05s-11.55-7.17-17.15-10.94a394.19,394.19,0,0,1-38.52-29.67,398.85,398.85,0,0,1-34.8-34.38,1.28,1.28,0,0,1-.32-.9,1.27,1.27,0,0,1,.42-.87,1.21,1.21,0,0,1,.9-.31,1.19,1.19,0,0,1,.86.41,399.55,399.55,0,0,0,34.58,34.17,389.15,389.15,0,0,0,38.28,29.47q8.34,5.64,17,10.87c5.78,3.49,11.66,6.83,17.59,10a1.21,1.21,0,0,1,.61.74,1.26,1.26,0,0,1-.09,1,1.3,1.3,0,0,1-.47.49A1.28,1.28,0,0,1,214.51,816.6Z"/><path class="cls-6" d="M450.08,546.17l23.33-17.51,23.34-17.5-17.11-24.58L462.53,462l-30,18.71-30,18.7s-7.09,4.39-12,14.46-7.69,25.8,1,48.49q7,15.09,14.06,30.2l14.06,30.21,25.72-13.39L471.11,596l-10.52-24.9Z"/><path class="cls-7" d="M308.63,550.61c33.09-31.08,40.78-55.19,32.84-63.29s-31.49-.16-60.86,32.87c13.63-43.31,7.25-67.28-4.74-68.16s-29.56,21.33-38.3,70.36c-10.79-49.17-29.54-70.48-41.46-68.49s-17,27.27-.49,71.31c-31.53-32.38-56.06-39.83-64.33-32s-.29,30.92,33.23,59.64C120.47,539.61,96,546,95.09,557.75s21.61,28.94,71.52,37.34c-50.12,10.78-71.9,29.27-69.92,41s27.72,16.6,72.63.21c-33.1,31.08-40.78,55.19-32.85,63.29s31.49.16,60.87-32.87C183.7,710,190.09,734,202.07,734.85s29.56-21.33,38.3-70.36C251.16,713.66,269.91,735,281.83,733s17-27.27.5-71.31c31.52,32.38,56.05,39.83,64.33,32s.28-30.92-33.24-59.64c44.06,13.23,68.49,6.86,69.43-4.91s-21.61-28.94-71.52-37.34c50.12-10.78,71.9-29.27,69.92-41S353.54,534.22,308.63,550.61Z"/><path class="cls-8" d="M263.32,595.34a28.72,28.72,0,1,1-8.95-20.09A28.64,28.64,0,0,1,263.32,595.34Z"/><path class="cls-2" d="M654.68,399.69l-.15,0-.14,0c-3.63,14.33-8.63,28.24-13.7,42.14s-10.24,27.76-14.18,42-6.58,29.25-6.66,44,2.4,29.37,8.69,42.74A82.64,82.64,0,0,0,640,588.4a86.27,86.27,0,0,0,15.55,14.45c5.23,3.78,11.78,6.41,17.92,9.51s11.87,6.67,15.47,12.31c11.32,17.71,4.62,33.48-6.77,48.12s-27.48,28.16-34.9,41.37c-5.59,10-8.55,21.37-9.87,33.06a178.14,178.14,0,0,0,0,34.71,252.86,252.86,0,0,0,4.51,30c2.07,9.9,4.66,19.7,7.56,29.37q2.82,9.39,6.07,18.66t6.82,18.4c.87,2.22,4.45,12.43,8.22,22.08s7.75,18.72,9.42,18.67l16.89-.45,16.88-.44s-9.81-18.29-20.47-44.29-22.18-59.7-25.59-90.56A86.45,86.45,0,0,1,671,748.29a81.47,81.47,0,0,1,16.78-30c10.38-11.68,21.31-24.73,28.93-39s11.93-29.82,9.09-46.47A67.22,67.22,0,0,0,700,590.66c-5.55-4.13-11.75-7.4-17.75-10.89s-11.81-7.2-16.58-12.2a48.52,48.52,0,0,1-9.36-14.45,66.65,66.65,0,0,1-4.62-16.75,101,101,0,0,1,1.14-33.26,208.14,208.14,0,0,1,9.28-32.42c3.82-10.53,8.07-20.95,11.86-31.5a196.09,196.09,0,0,0,9-32.26l-14.13-3.62Z"/><path class="cls-2" d="M690,590.66s9.23-22.91,23-50.22,32.22-59,50.56-76.67c10-9.63,23.13-9.35,32.62-3.38s15.37,17.64,10.89,30.79a80.79,80.79,0,0,1-10.93,20.5,169.49,169.49,0,0,1-22.54,25.13l-34,35.2-34,35.2a38.35,38.35,0,0,0-3.63-5.05A73.17,73.17,0,0,0,690,590.66Z"/><path class="cls-1" d="M697.18,597.48a1.26,1.26,0,0,1-.38-.06,1.51,1.51,0,0,1-.36-.18,1.29,1.29,0,0,1-.49-.82,1.22,1.22,0,0,1,.23-.93l41.29-56.32,41.3-56.32a1.24,1.24,0,0,1,.81-.5,1.29,1.29,0,0,1,.93.23,1.26,1.26,0,0,1,.5.82,1.22,1.22,0,0,1-.23.93l-41.29,56.32L698.19,597a1.26,1.26,0,0,1-.45.38A1.32,1.32,0,0,1,697.18,597.48Z"/><path class="cls-1" d="M742.82,909.43a.86.86,0,0,1-.22,0l-.21,0a1.26,1.26,0,0,1-.7-.64,1.23,1.23,0,0,1-.05-1L802.37,739l60.74-168.79a1.25,1.25,0,0,1,.64-.71,1.27,1.27,0,0,1,1,0,1.2,1.2,0,0,1,.7.64,1.23,1.23,0,0,1,.05,1L804.73,739.81,744,908.61a1.26,1.26,0,0,1-.46.6A1.29,1.29,0,0,1,742.82,909.43Z"/><path class="cls-1" d="M746.64,898.81h-.13l-.13,0a1.22,1.22,0,0,1-.79-.54,1.18,1.18,0,0,1-.17-.94L790.25,688,835.09,478.6a1.26,1.26,0,0,1,1.48-1,1.26,1.26,0,0,1,1,1.49L792.7,688.48,747.86,897.82a1.23,1.23,0,0,1-.44.72A1.27,1.27,0,0,1,746.64,898.81Z"/><path class="cls-1" d="M615.42,920c-11,0-21.69-4.07-31.56-11.84s-18.94-19.24-26.73-34-13.77-31.85-17.88-50.51a293.22,293.22,0,0,1-.51-119.43c4-18.7,9.84-35.89,17.46-50.66s16.69-26.47,26.53-34.33,20.52-12,31.56-12h.19c11,0,21.68,4.07,31.56,11.84S665,638.2,672.77,653s13.77,31.85,17.88,50.51a293,293,0,0,1,.5,119.43c-3.95,18.7-9.84,35.89-17.46,50.66S657,900.07,647.17,907.93s-20.52,12-31.56,12h-.19Zm-.94-310.35h-.18c-21.95.09-41.77,17.44-56.07,45.37s-23.06,66.45-22.88,108.89,9.24,80.78,23.74,108.58,34.42,45,56.33,45h.18c10.55,0,20.79-4.06,30.25-11.69s18.16-18.85,25.62-33.32,13.35-31.6,17.25-50.11a281.62,281.62,0,0,0,5.83-59.14c-.18-42.38-9.24-80.78-23.74-108.58S636.38,609.62,614.48,609.62Z"/><path class="cls-1" d="M611.94,755.23a1.26,1.26,0,0,1-.83-.32,1.24,1.24,0,0,1-.41-.79l-9.81-86.88-9.81-86.88a32.16,32.16,0,0,0-10.5-21.4,31.83,31.83,0,0,0-22.26-8.24l-105.68,2.81L347,556.34a1.24,1.24,0,0,1-.89-.34,1.25,1.25,0,0,1,.82-2.16L452.58,551l105.67-2.81a34.51,34.51,0,0,1,35.31,31.9L603.38,667l9.81,86.86a1.25,1.25,0,0,1-1.11,1.38h-.14Z"/><path class="cls-3" d="M618.18,753.81a6.17,6.17,0,0,1-1.71,4.46,6.24,6.24,0,1,1,1.71-4.46Z"/><path class="cls-7" d="M431.51,353.54a67.34,67.34,0,0,1,16.35-12.2,68.69,68.69,0,0,1,12.54-5.15,72.37,72.37,0,0,1,14.83-3,67.77,67.77,0,0,1,21.83,1.41,69.12,69.12,0,0,1,33.36,18.92,78.58,78.58,0,0,1,13,17.11,68.9,68.9,0,0,1,6.28,14.18,66.48,66.48,0,0,1-6.2,54.15,70.7,70.7,0,0,1-11,14.31L489,458.69l-43.51,5.44c-12.88-11.86-22.4-25.71-27.8-39.82s-6.66-28.47-3-41.36a71.72,71.72,0,0,1,10.25-21.11A69.45,69.45,0,0,1,431.51,353.54Z"/><path class="cls-9" d="M343.67,377.48l8.5,15.53,8.51,15.54a.09.09,0,0,0,.08.06.11.11,0,0,0,.11,0l14-12.92,14-12.92.4-11.91.4-11.92a4.06,4.06,0,0,0-2.47-3.88l-13.44-5.79-13.44-5.78c-2.9,5.67-5.6,11.34-8.31,17S346.58,371.8,343.67,377.48Z"/><path class="cls-7" d="M414.6,383l-3.93,8-3.92,8L398,390.81l-8.77-8.08-14.23,13-14.23,13L373.05,425l12.29,16.28a46.07,46.07,0,0,0,6,6.55,40.81,40.81,0,0,0,7.21,5.16,31,31,0,0,0,15.3,4.32c5.74-.06,11.93-2.17,18-8l-8.63-33.19Z"/><path class="cls-5" d="M678.29,677.47c-3.83,4.23-7,7.7-9.16,10.12l-3.43,3.77h0L668.2,703c1.64,7.68,4.08,19.07,7.26,33.93.81-1.67,1.91-3.8,3.35-6.23a87.57,87.57,0,0,1,5.39-8.05c1.71-2.28,3.13-3.94,4.73-5.75s3.4-3.76,5.85-6.62c1.38-1.62,3.08-3.65,5-6.06s4.1-5.22,6.42-8.38q-1.56-4.92-3.13-9.86T700,676.12l-10.83.68Z"/><path class="cls-5" d="M529,496.48q.48,8.36,1,16.72t1,16.72l-11.11,3.91-11.11,3.92,10.13-20.64Z"/><path class="cls-9" d="M380.73,353.28a5.17,5.17,0,0,0-1.23,1.94,5.73,5.73,0,0,0-.35,2.29l.27,6.79.28,6.79a3.55,3.55,0,0,0,.91,1.81,3.09,3.09,0,0,0,1.69.93,3.17,3.17,0,0,0,2.28-.47,3.5,3.5,0,0,0,1.49-2l1.66-5.75,1.65-5.75a6.8,6.8,0,0,0,.18-3.93,5.32,5.32,0,0,0-4.25-4,5.23,5.23,0,0,0-2.67.18,4.81,4.81,0,0,0-1.07.51A5.56,5.56,0,0,0,380.73,353.28Z"/><path class="cls-3" d="M448.67,340.92c0,3.05-.09,8.45-.12,13.16s0,8.76,0,9.1a.77.77,0,0,0,.15.34.38.38,0,0,0,.1.09.31.31,0,0,0,.14,0,.78.78,0,0,0,.37-.15c.29-.2,2.91-3.85,6.14-8.44s7.08-10.14,9.84-14.12l-4.95-1.51-5-1.51c-.65.23-1.33.49-2,.77s-1.42.6-2.16.95c-.45.21-.89.43-1.32.65Z"/><path class="cls-3" d="M464.82,340.68l10.1,10.15L485,361a.31.31,0,0,0,.35.06.3.3,0,0,0,.16-.32l-2.32-13.93-2.33-13.93-8,3.91Z"/><path class="cls-3" d="M468.56,363.72a2.69,2.69,0,0,1-2.42,2.95,2.71,2.71,0,0,1-2.36-4.4,2.71,2.71,0,0,1,3.81-.38A2.69,2.69,0,0,1,468.56,363.72Z"/><path class="cls-3" d="M471.29,391.27a2.7,2.7,0,1,1-4.78-1.45,2.7,2.7,0,0,1,3.8-.38A2.67,2.67,0,0,1,471.29,391.27Z"/><path class="cls-10" d="M436.77,432.72a1.25,1.25,0,0,1-.87-.36,1.27,1.27,0,0,1-.38-.86l-.29-11.05-.29-11a1.25,1.25,0,0,1,1.21-1.29,1.2,1.2,0,0,1,.89.33,1.34,1.34,0,0,1,.4.89l.29,11.05.29,11a1.25,1.25,0,0,1-.34.9,1.26,1.26,0,0,1-.87.39h0Z"/><path class="cls-10" d="M416.42,409.07A1.11,1.11,0,0,1,416,409a1.12,1.12,0,0,1-.4-.25l-4.84-4.46-4.84-4.46a1.22,1.22,0,0,1-.4-.87,1.21,1.21,0,0,1,.33-.9,1.24,1.24,0,0,1,1.76-.07l4.84,4.46,4.84,4.47a1.24,1.24,0,0,1,.07,1.76,1.09,1.09,0,0,1-.42.3A1.24,1.24,0,0,1,416.42,409.07Z"/><path class="cls-6" d="M510.12,536.27c3.37-7,7.39-14.18,11.12-21.45a130.7,130.7,0,0,0,9.36-22.14A81.84,81.84,0,0,0,533.38,468c0-2.93-.1-5.65-.26-8.13s-.41-4.7-.65-6.63l-35,4.37-35,4.37-11.76,26.87L439,515.73c-.42,1.09-.82,2.23-1.18,3.41s-.67,2.42-.94,3.71a46.49,46.49,0,0,0,.91,21.79,62.58,62.58,0,0,0,6.2,14.61L469,597l25,37.78,25.08-16.87,25.08-16.86-23.16-44Z"/><path class="cls-4" d="M690.84,869.55l-17.12-20L656.6,829.44a37.22,37.22,0,0,0,8-5.94A29.27,29.27,0,0,0,673,809.13a30.46,30.46,0,0,0,1-7.57,17.79,17.79,0,0,0-3.13-10.18,18.36,18.36,0,0,0-3-3.26,16.46,16.46,0,0,0-7.17-3.73,17.64,17.64,0,0,0-12.6,2.34,27,27,0,0,0-10.28,11.19,31.23,31.23,0,0,0,.87-21.48c-2.08-6-6.12-10.54-10.91-12.16a18.6,18.6,0,0,0-12,.42,16.11,16.11,0,0,0-11,17.94,20.2,20.2,0,0,0,3.87,9.18,34.11,34.11,0,0,0-8.55-6c-4.89-2.31-11-3.24-16,2.31a15.25,15.25,0,0,0-3.8,9.28,16,16,0,0,0,2.63,9.73,23.58,23.58,0,0,0,2,2.59,24.45,24.45,0,0,0,2,2,31,31,0,0,0,8.18,5.29,36.66,36.66,0,0,0,7.91,2.49c-.91.14-2,.33-3.18.6a39.83,39.83,0,0,0-3.92,1.1,50.86,50.86,0,0,0-10.7,4.73c-3.79,2.37-7.23,5.64-8.56,10.22a14.66,14.66,0,0,0,.08,8.43,15,15,0,0,0,4.65,7,13.35,13.35,0,0,0,9.59,3.25c4.15-.23,9.3-2.26,15.55-7.52a42.19,42.19,0,0,0-2.75,3.2,48.41,48.41,0,0,0-5.22,8.06,19.48,19.48,0,0,0,.87,19.22,18.35,18.35,0,0,0,16.8,8.78l.55,0,.55-.05a23.51,23.51,0,0,0,14.58-7.77,31.63,31.63,0,0,0,7.84-17l18.17,28.58L676.11,919l33.89-.58,33.89-.57L760,897.27l16.08-20.54a24,24,0,0,0,14.72,11.62c5.75,1.54,11.73.74,16.14-2.39a18.43,18.43,0,0,0,6.86-10.23,24,24,0,0,0-.43-13.76,21.16,21.16,0,0,0,15.3-8,18.41,18.41,0,0,0,3.87-15.12,18.14,18.14,0,0,0-8-11.13,21.29,21.29,0,0,0-14.81-3.14,26.27,26.27,0,0,0-6.22-20.29c-4.41-5.06-10.53-8-16.47-7.7a20.14,20.14,0,0,0-13,6.29,26.57,26.57,0,0,0-7.24,14.95,25.39,25.39,0,0,0-15.57-.81,19.26,19.26,0,0,0-11.23,7.77c-3.11,4.79-3.61,11.27-1.56,17.35A25.18,25.18,0,0,0,752.07,857C748.52,861,745.41,865,742.3,869s-6.23,8-9.78,11.9q-.09-49.53-.19-99.06t-.19-99.07l25.21-.22,25.22-.22a32,32,0,0,0,19.56-11.5,31.64,31.64,0,0,0,7-21.39c-.41-8.16-3.95-14-9.45-18s-13-5.86-21.28-6.13l-8.3.22-8.3.22a116.18,116.18,0,0,0,18.87-2A52.35,52.35,0,0,0,798.36,617a18.51,18.51,0,0,0,6.5-7.24,19,19,0,0,0,2.1-9.52c-.48-10.51-8.09-16.42-17.56-19.53s-20.8-3.42-28.72-2.71c-1.65.15,1.86-.54,7-2.55s11.81-5.33,16.56-10.44a29.78,29.78,0,0,0,6.34-10.76,19.19,19.19,0,0,0,0-13,17.6,17.6,0,0,0-5.08-7,25,25,0,0,0-4.46-3c-8.72-4.64-19-3.79-27.36-1.67a61.82,61.82,0,0,0-15.26,6c1.85-13.14.71-24.89-2.56-33.93s-8.66-15.38-15.34-17.71a19.35,19.35,0,0,0-9.19-.79,19.87,19.87,0,0,0-4.67,1.25c-6.53,2.73-11.56,9.3-14.32,18.36s-3.25,20.64-.71,33.4a86.18,86.18,0,0,0-18.82-2.83c-9.18-.26-19.35,1.36-24.87,8.48a17.88,17.88,0,0,0-1.35,2,19.05,19.05,0,0,0-1.15,2.4,24.3,24.3,0,0,0-1.24,6.8,19.41,19.41,0,0,0,.46,4.88c1.39,6.22,5.92,11.74,12.63,15.86s15.58,6.85,25.66,7.49a92.72,92.72,0,0,0-21.56-2c-11.44.35-24.2,3.45-29.5,14.39a22.14,22.14,0,0,0-1.92,12.9,23.45,23.45,0,0,0,5.5,11.9,34.26,34.26,0,0,0,14.67,9.66c6.9,2.45,16.07,3.73,28.21,2.6l-14.95.4-14.94.4A27.69,27.69,0,0,0,630,639.26a26.37,26.37,0,0,0-8.26,18,26.85,26.85,0,0,0,27.55,28.14l20.21-.73,20.21-.72.55,92.82Z"/><path class="cls-4" d="M449,760.56l-2.6.07-2.59.07a26.92,26.92,0,0,0,6.7-7.74,23.21,23.21,0,0,0,3-9.45,27.53,27.53,0,0,0-.59-7.49,19,19,0,0,0-7.09-11.67A19.8,19.8,0,0,0,432,721a28.47,28.47,0,0,0-15.16,6.62A21.13,21.13,0,0,0,425,716.09a19.19,19.19,0,0,0-32.47-18.4,21.32,21.32,0,0,0-5.81,13,26.09,26.09,0,0,0-.69-16.3,22.44,22.44,0,0,0-9.81-11.65,22.14,22.14,0,0,0-18.43-1.24,25.69,25.69,0,0,0-14.13,12.08,24.53,24.53,0,0,0-1.17,19.3A27.13,27.13,0,0,0,356,728.34a22.35,22.35,0,0,0-18.32,1.34,19.69,19.69,0,0,0-10.23,13.18A18.76,18.76,0,0,0,329,754.27a22.23,22.23,0,0,0,8,9.27l-5.34.14-5.34.14a17.07,17.07,0,0,0,.91,34.12l20.27-.54,20.27-.54,1.65,62,1.65,62,15.55-.07,15.54-.06-1.72-62.35L398.66,796l25.6-.68,25.6-.68a17.07,17.07,0,0,0-.91-34.12Z"/><path class="cls-1" d="M332.06,747.41H332a1.24,1.24,0,0,1-.85-.44,1.21,1.21,0,0,1-.29-.91l11.41-140.32,11.41-140.32a21.06,21.06,0,0,1,20.91-19.34h.06l40.24.12,40.24.12a7.52,7.52,0,0,1,.18,15l-4.33.11-4.32.12a1.29,1.29,0,0,1-.89-.35,1.16,1.16,0,0,1-.39-.87,1.24,1.24,0,0,1,.34-.89,1.26,1.26,0,0,1,.87-.39l4.33-.12,4.32-.11a5,5,0,0,0-.12-10l-40.24-.12-40.23-.12h-.06a18.54,18.54,0,0,0-18.42,17L344.71,605.94,333.3,746.27a1.31,1.31,0,0,1-.4.82A1.25,1.25,0,0,1,332.06,747.41Z"/><path class="cls-4" d="M309.09,510.21a.86.86,0,0,1-.23,0,1.09,1.09,0,0,1-.24-.07,1.24,1.24,0,0,1-.68-.67,1.28,1.28,0,0,1,0-1L366.5,365.33l58.57-143.16a1.25,1.25,0,0,1,2.31,0,1.28,1.28,0,0,1,0,1L368.82,366.28,310.25,509.44a1.23,1.23,0,0,1-1.16.77Z"/><path class="cls-9" d="M485.57,318.79a21.31,21.31,0,1,1-6.64-14.91A21.26,21.26,0,0,1,485.57,318.79Z"/><path class="cls-5" d="M456.89,322.41a1.57,1.57,0,0,1-.43,1.11,1.56,1.56,0,0,1-2.19.06,1.53,1.53,0,0,1-.48-1.08,1.54,1.54,0,0,1,1.51-1.59,1.54,1.54,0,0,1,1.1.42A1.58,1.58,0,0,1,456.89,322.41Z"/><path class="cls-5" d="M468.35,321a1.57,1.57,0,0,1-.43,1.11,1.51,1.51,0,0,1-1.08.48,1.57,1.57,0,0,1-1.11-.42,1.53,1.53,0,0,1-.48-1.08,1.54,1.54,0,0,1,1.51-1.59,1.5,1.5,0,0,1,1.1.42A1.58,1.58,0,0,1,468.35,321Z"/><path class="cls-6" d="M462.19,334a7,7,0,0,1-3.36-.86,7.17,7.17,0,0,1-2.59-2.4,1.21,1.21,0,0,1-.18-.94,1.24,1.24,0,0,1,1.48-1,1.23,1.23,0,0,1,.79.54,4.71,4.71,0,0,0,1.94,1.69,4.38,4.38,0,0,0,2.5.39,4.46,4.46,0,0,0,2.51-1.23,4.6,4.6,0,0,0,1.34-2.51,1.27,1.27,0,0,1,1.47-1,1.25,1.25,0,0,1,.8.53,1.2,1.2,0,0,1,.19.93A7.23,7.23,0,0,1,467,332a6.94,6.94,0,0,1-3.9,1.89l-.45.05Z"/><path class="cls-6" d="M452,313.5a10.49,10.49,0,0,0,5.42-2.42,12,12,0,0,0,2.17-2.41,12.57,12.57,0,0,0,1.1,1.72,12.71,12.71,0,0,0,1.84,2,13.22,13.22,0,0,0,5.33,2.77,16.34,16.34,0,0,0,3.68.51,16.05,16.05,0,0,0,8.21-1.95,18.82,18.82,0,0,0,4-2.87,21.43,21.43,0,0,0-8-9.38,21.32,21.32,0,0,0-23.91.51,21.43,21.43,0,0,0-7.47,9.49,10.8,10.8,0,0,0,3.61,1.75A10.43,10.43,0,0,0,452,313.5Z"/><path class="cls-9" d="M342.71,367.28l5.87-10.1,5.87-10.11a7.6,7.6,0,0,1,4.07-3.51,5.44,5.44,0,0,1,5.12,1c2.26,1.72,3.75,4.4,4.94,7.27s2.11,5.93,3.2,8.42l2.61,6,2.62,6,.05.1,0,.1a10.08,10.08,0,0,1,.88,2.9c.19,1.53-.11,3.22-2.08,3.88a4,4,0,0,1,.29,2.07,3.41,3.41,0,0,1-2.07,2.79,4.7,4.7,0,0,1-.95.27,3.91,3.91,0,0,1-.14,1.1,2.93,2.93,0,0,1-1.21,1.74l-.26.15-.26.11a2.85,2.85,0,0,1-1,.16,3.26,3.26,0,0,1-1-.18l-11-3.82-11.05-3.81a9.43,9.43,0,0,1-2.17-1.14,8.34,8.34,0,0,1-3.37-8.73A9.28,9.28,0,0,1,342.71,367.28Z"/><path class="cls-6" d="M375.9,380.45a1.3,1.3,0,0,1-.51-.11A1.18,1.18,0,0,1,375,380l-7.5-8.49-7.5-8.49a1.25,1.25,0,0,1-.31-.91,1.22,1.22,0,0,1,.42-.85,1.24,1.24,0,0,1,.9-.32,1.29,1.29,0,0,1,.86.42l7.5,8.49,7.5,8.49a1.26,1.26,0,0,1,.32.91,1.29,1.29,0,0,1-.42.86,1.34,1.34,0,0,1-.4.23A1.26,1.26,0,0,1,375.9,380.45Z"/><path class="cls-6" d="M373.17,385.58a1.07,1.07,0,0,1-.39-.07,1.51,1.51,0,0,1-.36-.18l-9.31-6.94-9.32-6.94a1.22,1.22,0,0,1-.49-.82,1.27,1.27,0,0,1,.23-.93,1.31,1.31,0,0,1,.83-.49,1.24,1.24,0,0,1,.92.24l9.32,6.94,9.32,6.93a1.31,1.31,0,0,1,.49.82,1.28,1.28,0,0,1-.69,1.31A1.31,1.31,0,0,1,373.17,385.58Z"/><path class="cls-6" d="M367.37,388a1.24,1.24,0,0,1-.33,0,1.27,1.27,0,0,1-.32-.13l-8.31-5-8.31-5a1.24,1.24,0,0,1-.56-.77,1.25,1.25,0,0,1,1.85-1.37l8.31,5,8.31,5a1.25,1.25,0,0,1,.57.77,1.24,1.24,0,0,1-.14.95,1.35,1.35,0,0,1-.47.45A1.24,1.24,0,0,1,367.37,388Z"/><path class="cls-10" d="M530,471.77a20.93,20.93,0,0,1-16.34-7.61,26.26,26.26,0,0,1-4.65-7.73,1.25,1.25,0,0,1,.79-1.58,1.25,1.25,0,0,1,1,.06,1.22,1.22,0,0,1,.63.72,23.14,23.14,0,0,0,4.86,7.77c3.37,3.55,8.76,6.75,16.89,5.66a1.24,1.24,0,0,1,.93.24,1.31,1.31,0,0,1,.48.83,1.27,1.27,0,0,1-.25.93,1.26,1.26,0,0,1-.83.48q-.9.12-1.77.18C531.08,471.76,530.52,471.77,530,471.77Z"/><path class="cls-10" d="M468.59,597.61a1.3,1.3,0,0,1-.58-.14,1.15,1.15,0,0,1-.46-.42L455.26,578.5,443,559.94a49,49,0,0,1-8-30.46,48.33,48.33,0,0,1,2.92-14.23l11.39-26,11.39-26a1.25,1.25,0,0,1,2.31,0,1.28,1.28,0,0,1,0,1l-11.39,26-11.38,26a46,46,0,0,0-2.74,13.47A46.52,46.52,0,0,0,445,558.56l12.3,18.55,12.29,18.56a1.23,1.23,0,0,1,.19.94,1.27,1.27,0,0,1-.54.8,1.09,1.09,0,0,1-.33.15A1.12,1.12,0,0,1,468.59,597.61Z"/><path class="cls-7" d="M504.44,392.15l3.87,11,3.88,11-25.35,4.57-25.34,4.57A75.87,75.87,0,0,1,467,435.9c2.47,7.37,4.35,16.84,2,25.28.16-.57,4.42-1.1,8.88-1.52s9.12-.73,10.08-.85l9.79-1.22,9.79-1.23c3.26-.41,6.52-.85,9.79-1.27s6.53-.84,9.8-1.18a53.08,53.08,0,0,0,13.29-2.71,25.52,25.52,0,0,0,10.92-7.75c2.22-2.66,3.91-6.95,4.84-12.47a73.11,73.11,0,0,0,.27-19.81,89.82,89.82,0,0,0-2-11.18,103.82,103.82,0,0,0-3.24-10.89l-1.55-4.33-1.55-4.34-21.87,5.86Z"/><path class="cls-9" d="M461.5,423.27a58,58,0,0,0-9.13,1.65,56.18,56.18,0,0,0-11.43,4.37,57.19,57.19,0,0,0-15.33,11.49,59.65,59.65,0,0,0-7.76,10.12A44,44,0,0,0,415,457c-1.05,2.89-1.65,6-.19,7.42a2.13,2.13,0,0,0,.32.26,3.61,3.61,0,0,0,.39.22,5.41,5.41,0,0,0-.49,3.44,3.63,3.63,0,0,0,1.54,2.4,3.33,3.33,0,0,0,1.92.44,5.36,5.36,0,0,0,1.23-.22,4.37,4.37,0,0,0,2,1.1,3.87,3.87,0,0,0,3.86-1.1,4.41,4.41,0,0,0,.68-.93,4.06,4.06,0,0,0,2.45,1c1.39,0,3.1-.94,4.42-4.73.52-1.52,1-2.77,1.48-3.83s.88-1.9,1.25-2.61c.21-.39.35-.63.56-1s.49-.86,1-1.74c0,0,1.5-2.61,3.29-5.28s3.88-5.42,5.05-5.7a2.45,2.45,0,0,1,.42-.07l.19,0a3.44,3.44,0,0,1,.65,0,2.69,2.69,0,0,1,.51.13,1.77,1.77,0,0,1,.8.75,4.34,4.34,0,0,1,.34.77,8.46,8.46,0,0,1-.11,4.16,22.5,22.5,0,0,1-3.35,7.42c-.39.59-.89,1.31-1.54,2.12a31.6,31.6,0,0,1-2.33,2.66l-.79,1-.78,1a8.34,8.34,0,0,0-1.74,3.05,2.88,2.88,0,0,0,.18,2.41,2.1,2.1,0,0,0,.48.5,3,3,0,0,0,.45.27,3.5,3.5,0,0,0,1.61.41,5.12,5.12,0,0,0,1.54-.2,5.76,5.76,0,0,0,1.34-.53,7.4,7.4,0,0,0,1.21-.79c.83-.65,2.31-1.81,4-3.09s3.57-2.67,5.2-3.77a12,12,0,0,1,2.52-1.29,11.64,11.64,0,0,1,2.75-.67l4.88-.62,4.88-.61c.22-.84.46-1.91.67-3.15a38.53,38.53,0,0,0,.48-4.23,37.55,37.55,0,0,0-1.05-11,78.47,78.47,0,0,0-3.06-9.48c-.47-1.29-1.08-2.81-1.83-4.5S462.57,425.28,461.5,423.27Z"/><path class="cls-6" d="M426.47,470.51l-.21,0-.21-.05a1.26,1.26,0,0,1-.71-.65,1.25,1.25,0,0,1,0-1c.56-1.56,1.15-3.11,1.75-4.65s1.22-3.08,1.86-4.6c.72-1.7,1.47-3.41,2.24-5.1s1.58-3.37,2.4-5a1.25,1.25,0,0,1,2.3.16,1.26,1.26,0,0,1-.06.95c-.81,1.63-1.6,3.29-2.36,4.95s-1.5,3.35-2.21,5c-.63,1.5-1.25,3-1.84,4.54s-1.17,3-1.72,4.58a1.25,1.25,0,0,1-.47.61A1.27,1.27,0,0,1,426.47,470.51Z"/><path class="cls-6" d="M419.81,471.14l-.21,0a.79.79,0,0,1-.22-.06,1.26,1.26,0,0,1-.74-1.61c.6-1.6,1.22-3.22,1.84-4.83s1.26-3.21,1.91-4.8c.73-1.82,1.49-3.65,2.26-5.47s1.55-3.64,2.35-5.44a1.27,1.27,0,0,1,.69-.66,1.33,1.33,0,0,1,1,0,1.29,1.29,0,0,1,.66.7,1.25,1.25,0,0,1,0,.95q-1.19,2.68-2.34,5.4c-.76,1.81-1.51,3.63-2.25,5.43q-1,2.38-1.89,4.78t-1.82,4.8a1.27,1.27,0,0,1-1.18.81Z"/><path class="cls-6" d="M415.81,465.34l-.22,0a.9.9,0,0,1-.22-.06,1.25,1.25,0,0,1-.7-.65,1.27,1.27,0,0,1,0-1c.45-1.2.93-2.4,1.43-3.59s1-2.38,1.54-3.55c.64-1.41,1.32-2.82,2-4.22s1.43-2.77,2.18-4.13a1.25,1.25,0,0,1,1.7-.49,1.22,1.22,0,0,1,.59.75,1.26,1.26,0,0,1-.1.95q-1.11,2-2.14,4.05c-.68,1.36-1.34,2.74-2,4.12-.52,1.15-1,2.31-1.51,3.48s-1,2.34-1.4,3.51a1.16,1.16,0,0,1-.47.59A1.24,1.24,0,0,1,415.81,465.34Z"/><path class="cls-10" d="M462.8,424.29a1.27,1.27,0,0,1-.8-.29,1.22,1.22,0,0,1-.43-.74,1.28,1.28,0,0,1,.2-.94,1.25,1.25,0,0,1,.81-.51l24-4.33,24-4.32-3.63-10.3-3.63-10.3a1.2,1.2,0,0,1,.05-.95A1.22,1.22,0,0,1,504,391a1.2,1.2,0,0,1,1,0,1.25,1.25,0,0,1,.64.71l4.12,11.69,4.12,11.68-25.41,4.58L463,424.27h-.22Z"/><path class="cls-1" d="M442.23,461.52a1.25,1.25,0,0,1-.91-2.11,1.21,1.21,0,0,1,.87-.38l8.11-.22,8.11-.22a8.09,8.09,0,0,0,4.76-1.61,4.51,4.51,0,0,0,1.89-3.63,3.87,3.87,0,0,0-.53-1.86,5.27,5.27,0,0,0-1.43-1.57,7.24,7.24,0,0,0-2.28-1.12,8.76,8.76,0,0,0-2.68-.33l-5.88.15-5.89.16a1.29,1.29,0,0,1-.89-.35,1.24,1.24,0,0,1-.05-1.76,1.26,1.26,0,0,1,.87-.39l5.89-.16,5.88-.15a10.93,10.93,0,0,1,3.5.45,9.68,9.68,0,0,1,3,1.49,7.62,7.62,0,0,1,2.16,2.43,6.21,6.21,0,0,1,.81,2.94A6.88,6.88,0,0,1,465,458.7a10.31,10.31,0,0,1-6.5,2.39l-8.11.22-8.11.21h0Z"/><path class="cls-7" d="M400.78,846.37l-1.92,37.83L396.94,922l34.82-.57,34.81-.56-4-38-4-38c-1.85-17.81-15.85-26.36-29.62-26S401.68,828.49,400.78,846.37Z"/><path class="cls-7" d="M286.21,922.66a56.46,56.46,0,0,1,4.61-25.48c5.81-13.32,18.63-27.78,46.69-32.37a72.27,72.27,0,0,1,29.06,1.12,65.9,65.9,0,0,1,25.89,12.9,61.62,61.62,0,0,1,8.48,8.4A57.39,57.39,0,0,1,408,898a56.24,56.24,0,0,1,4.2,12.27,91.72,91.72,0,0,1,1.83,11.11l-63.92.62Z"/><path class="cls-1" d="M336.71,920.92c-11,0-21.68-4.07-31.56-11.84s-18.94-19.24-26.73-34-13.77-31.85-17.88-50.51A293,293,0,0,1,260,705.1c3.95-18.7,9.84-35.89,17.46-50.66S294.18,628,304,620.11s20.52-12,31.56-12h.19c11,0,21.69,4.07,31.56,11.84s18.94,19.24,26.73,34,13.77,31.85,17.88,50.51a292.75,292.75,0,0,1,.51,119.43c-4,18.7-9.84,35.89-17.46,50.66S378.3,901,368.46,908.88s-20.52,12-31.56,12h-.19Zm-.94-310.35h-.18c-10.55,0-20.79,4.07-30.25,11.69s-18.16,18.86-25.62,33.33-13.35,31.59-17.25,50.1a281.69,281.69,0,0,0-5.83,59.14c.18,42.38,9.24,80.78,23.74,108.58s34.43,45,56.33,45h.18c10.55,0,20.79-4.06,30.26-11.69s18.15-18.85,25.61-33.32,13.35-31.6,17.26-50.11a282.29,282.29,0,0,0,5.83-59.14c-.18-42.38-9.25-80.78-23.75-108.58S357.68,610.57,335.77,610.57Z"/><path class="cls-7" d="M908.9,424.22a55.77,55.77,0,1,1-17.38-39A55.59,55.59,0,0,1,908.9,424.22Z"/><path class="cls-7" d="M899.31,546.64A25.26,25.26,0,1,1,891.44,529,25.15,25.15,0,0,1,899.31,546.64Z"/><path class="cls-1" d="M416.89,755.53h0l-81.05,0h-81a1.22,1.22,0,0,1-.88-.37,1.24,1.24,0,0,1,0-1.77,1.26,1.26,0,0,1,.88-.36h81l81.05,0a1.27,1.27,0,0,1,.88.36,1.26,1.26,0,0,1-.88,2.14Z"/><path class="cls-8" d="M816,828.61a12.5,12.5,0,1,1-3.66-8.83A12.45,12.45,0,0,1,816,828.61Z"/><path class="cls-1" d="M400,859a1.26,1.26,0,0,1-.59-.15,1.23,1.23,0,0,1-.46-.42L336.2,761.31l-62.73-97.06a1.29,1.29,0,0,1-.18-1,1.24,1.24,0,0,1,.55-.78,1.27,1.27,0,0,1,.94-.18,1.29,1.29,0,0,1,.79.55L338.3,760,401,857a1.22,1.22,0,0,1,.17.94,1.21,1.21,0,0,1-.54.79,1,1,0,0,1-.33.15A1.34,1.34,0,0,1,400,859Z"/><path class="cls-1" d="M268.59,850a1.34,1.34,0,0,1-.35,0,1.33,1.33,0,0,1-.34-.16,1.26,1.26,0,0,1-.53-.8,1.23,1.23,0,0,1,.18-.94l63.39-94.71,63.39-94.71a1.26,1.26,0,0,1,.8-.53,1.23,1.23,0,0,1,.94.18,1.3,1.3,0,0,1,.53.8,1.28,1.28,0,0,1-.19.94L333,754.74l-63.39,94.71a1.32,1.32,0,0,1-.46.42A1.3,1.3,0,0,1,268.59,850Z"/><path class="cls-1" d="M318.58,917h-.1a1.25,1.25,0,0,1-1.15-1.34l12.05-152.94,12-152.93a1.29,1.29,0,0,1,.44-.85,1.27,1.27,0,0,1,.91-.3,1.27,1.27,0,0,1,1.15,1.35L331.87,762.92,319.82,915.85a1.17,1.17,0,0,1-.4.82A1.21,1.21,0,0,1,318.58,917Z"/><path class="cls-3" d="M338.9,752.65a6.68,6.68,0,1,1-2.08-4.66A6.68,6.68,0,0,1,338.9,752.65Z"/><path class="cls-5" d="M647.64,421.47l8.55,21,8.54,21s3.33-8.52,6.75-17.67,6.94-18.93,7.31-21.46l-6.52-12-6.53-12-9,10.55Z"/><path class="cls-8" d="M623.71,329.07A30.08,30.08,0,0,0,607.29,333a27.52,27.52,0,0,0-11.23,11.92,29.75,29.75,0,0,0-2.53,17.21,23.29,23.29,0,0,0,8.79,15.31,23.71,23.71,0,0,0,12.3,4.64,28.37,28.37,0,0,0,13.7-2.29A27.07,27.07,0,0,0,614.71,393a26,26,0,0,0-1.54,18.52,26.49,26.49,0,0,0,11.29,14.81,24.87,24.87,0,0,0,17.8,3.66,24.55,24.55,0,0,0,14.26-8.66,31.37,31.37,0,0,0,4.79-7.63,34.58,34.58,0,0,0,4.34,9.25,29.21,29.21,0,0,0,14.79,11.87,30.77,30.77,0,0,0,18.61.34,26.45,26.45,0,0,0,15-11A26,26,0,0,0,718,411.24a31.71,31.71,0,0,0-.74-8.18,39.93,39.93,0,0,0,16.5,11.66,30.12,30.12,0,0,0,18.45,1,31.19,31.19,0,0,0,8.31-3.61,23.71,23.71,0,0,0,9.9-11.85,24.35,24.35,0,0,0,0-16.4,29.56,29.56,0,0,0-3.9-7.75,28.35,28.35,0,0,0,20-1.12,25.41,25.41,0,0,0,13.32-13.42,24.4,24.4,0,0,0,.08-17.89,29.87,29.87,0,0,0-10.36-13.71,27,27,0,0,0-11-4.58,30.83,30.83,0,0,0-7.59-.42,35.16,35.16,0,0,0,6.61-6.18,25.93,25.93,0,0,0,5.75-12.44c1.2-7.93-1.73-16.21-7.07-22.66s-13.08-11-21.48-11.6a29.08,29.08,0,0,0-17.74,5,38.39,38.39,0,0,0-8,6.92,41.35,41.35,0,0,0-.56-10.53,28.81,28.81,0,0,0-6.79-14.25c-6.6-7.27-17.22-10.48-27.64-9.81s-20.67,5.23-26.53,13.47a30.61,30.61,0,0,0-5.33,17.06,43.11,43.11,0,0,0,1.2,11.23A35.14,35.14,0,0,0,649.26,280a29.17,29.17,0,0,0-16.93-1.88,31.92,31.92,0,0,0-19.14,12.57c-4.55,6.24-6.74,13.9-5,21.08a24,24,0,0,0,7.92,12.32A34.63,34.63,0,0,0,623.71,329.07Z"/><path class="cls-3" d="M675.83,327.55a31.91,31.91,0,0,0-14.1-1.22A16.62,16.62,0,0,0,650,333.79c-3.92,6.11-2.9,12.86.76,17.95a18.87,18.87,0,0,0,16.57,8c-.34,0-.88.77-1.37,1.57s-.93,1.65-1.07,1.9a16.09,16.09,0,0,0-1.67,13,15.32,15.32,0,0,0,8.93,9.59c4.25,1.77,9.19,1,13.56-1.07a23,23,0,0,0,10.16-9.31,49.08,49.08,0,0,0,2.57-6.3c.73-2.1,1.24-3.79,1.24-3.79,4.06,4.75,6.54,7.4,8,8.87a15.64,15.64,0,0,0,1.9,1.74,22.56,22.56,0,0,0,5.71,2.44,18.61,18.61,0,0,0,11.69-.31,17.83,17.83,0,0,0,2.81-1.38,18.26,18.26,0,0,0,2.63-1.93,19,19,0,0,0,6-11.21,14.65,14.65,0,0,0-3.22-12.08,30.79,30.79,0,0,0-4.09-3.59c-1.39-1.06-2.53-1.83-2.53-1.83l1.63-.8,1.45-.73a17.82,17.82,0,0,0,8.82-10.7,17.61,17.61,0,0,0-1.29-13.93,16,16,0,0,0-14.28-8.11,20.44,20.44,0,0,0-15.37,6.89,18.27,18.27,0,0,0,.05-2.93,17.68,17.68,0,0,0-.64-3.78,18.79,18.79,0,0,0-5.84-9,21.42,21.42,0,0,0-4.77-3.2,22.16,22.16,0,0,0-10.91-1.95,16.73,16.73,0,0,0-10.69,4.73,17.16,17.16,0,0,0-4.6,9.11,19.86,19.86,0,0,0-.3,5.32,18,18,0,0,0,.61,3.08,19.37,19.37,0,0,0,.85,2.3c.17.45.58,1.69,1.05,2.86S675.37,327.41,675.83,327.55Z"/><polygon class="cls-5" points="306.58 399.83 298.75 399.83 290.91 399.83 298.95 410.64 306.99 421.45 306.79 410.64 306.58 399.83"/><polygon class="cls-5" points="398.66 796.04 389.11 796.04 379.56 796.04 389.6 806.08 399.64 816.12 399.15 806.08 398.66 796.04"/><polygon class="cls-5" points="732.14 682.72 721.35 682.72 710.56 682.72 721.35 699.4 732.14 716.07 732.14 699.4 732.14 682.72"/><path class="cls-5" d="M639.76,861.81l1.41-9.95c.47-3.32.93-6.63,1.4-10q4.08,12.48,8.14,25t8.14,25q-4.77-7.5-9.55-15Z"/><polygon class="cls-5" points="776.05 876.73 766.49 881.78 756.93 886.84 757.81 892.88 758.68 898.92 767.37 887.82 776.05 876.73"/><path class="cls-8" d="M698.22,579.41a12.5,12.5,0,1,1-3.66-8.83A12.49,12.49,0,0,1,698.22,579.41Z"/><path class="cls-8" d="M622.44,826.22a12.5,12.5,0,1,1-3.66-8.83A12.47,12.47,0,0,1,622.44,826.22Z"/><path class="cls-8" d="M736.71,643.72a12.5,12.5,0,1,1-3.66-8.83A12.49,12.49,0,0,1,736.71,643.72Z"/><path class="cls-8" d="M776.27,605.11a12.5,12.5,0,1,1-3.66-8.84A12.45,12.45,0,0,1,776.27,605.11Z"/><path class="cls-1" d="M414.06,922.67a1.26,1.26,0,0,1-1.25-1.25,51.28,51.28,0,0,0-8.3-27.2,53.52,53.52,0,0,0-8.41-10.43,1.27,1.27,0,0,1-.41-.86A1.25,1.25,0,0,1,396,882a1.27,1.27,0,0,1,.86-.41,1.25,1.25,0,0,1,.91.31,55.81,55.81,0,0,1,9,11.14,53.44,53.44,0,0,1,8.52,28.36,1.25,1.25,0,0,1-1.24,1.25h0Z"/><path class="cls-1" d="M271.77,924.19a1.27,1.27,0,0,1-.88-.36,1.33,1.33,0,0,1-.37-.88,1.3,1.3,0,0,1,.36-.89,1.24,1.24,0,0,1,.88-.37l205.3-2,205.29-2h0a1.25,1.25,0,0,1,1.25,1.23,1.23,1.23,0,0,1-.35.89,1.29,1.29,0,0,1-.88.38l-205.3,2-205.29,2h0Z"/><path class="cls-11" d="M894.29,424.49a13.92,13.92,0,0,1-8.27-2.84,15.55,15.55,0,0,1-5.39-7.4,17.94,17.94,0,0,1-9.61,1.86,14.74,14.74,0,0,1-8.49-3.6,14.48,14.48,0,0,1-4.18-6.74,17.55,17.55,0,0,1-.73-4.95,1.25,1.25,0,0,1,1.25-1.25h0a1.21,1.21,0,0,1,.88.37,1.24,1.24,0,0,1,.37.88,14.62,14.62,0,0,0,.61,4.19,12,12,0,0,0,3.46,5.64,12.39,12.39,0,0,0,7.8,3,15.64,15.64,0,0,0,8.76-2.34l.74-.45.74-.46.2.85.19.85a13.1,13.1,0,0,0,5.22,7.78,10.86,10.86,0,0,0,8.61,1.85,10.71,10.71,0,0,0,5.89-3.73,12.88,12.88,0,0,0,2.82-6.89,1.25,1.25,0,0,1,.45-.84,1.27,1.27,0,0,1,.92-.28,1.25,1.25,0,0,1,1.12,1.37,15.35,15.35,0,0,1-3.44,8.29,13.18,13.18,0,0,1-7.22,4.52,12.69,12.69,0,0,1-1.35.23A12.21,12.21,0,0,1,894.29,424.49Z"/><path class="cls-11" d="M823.32,450.38a8.06,8.06,0,0,1-4.17-1.22,9.37,9.37,0,0,1-2.1-1.74,1.26,1.26,0,0,1-.32-.91,1.29,1.29,0,0,1,.41-.86,1.25,1.25,0,0,1,.91-.31,1.19,1.19,0,0,1,.86.41,6.9,6.9,0,0,0,1.5,1.25,5.53,5.53,0,0,0,2.91.88h0a5.72,5.72,0,0,0,3.63-1.4,7.42,7.42,0,0,0,2.3-3.57l.24-.83.25-.84.71.5.71.51a5.89,5.89,0,0,0,4.35,1,5.07,5.07,0,0,0,3.34-2,4.88,4.88,0,0,0,.84-3.08,5.93,5.93,0,0,0-1.16-3.21,1.26,1.26,0,0,1,.26-1.75,1.26,1.26,0,0,1,.93-.23,1.31,1.31,0,0,1,.82.49,8.57,8.57,0,0,1,1.65,4.68,7.14,7.14,0,0,1-5.7,7.41,8.51,8.51,0,0,1-5.4-.56,9.55,9.55,0,0,1-3.22,3.84,8.12,8.12,0,0,1-4.53,1.47h0Z"/><path class="cls-11" d="M887.1,567l-.72,0-.72-.12A7.27,7.27,0,0,1,881.3,564a8.51,8.51,0,0,1-1.62-5.18,9.68,9.68,0,0,1-4.8-1.44,8.15,8.15,0,0,1-3.14-3.59,7.94,7.94,0,0,1-.54-4.34,9.72,9.72,0,0,1,.77-2.64,1.19,1.19,0,0,1,.7-.64,1.26,1.26,0,0,1,1.61.74,1.28,1.28,0,0,1,0,1,6.56,6.56,0,0,0-.56,1.88,5.52,5.52,0,0,0,.35,3,5.78,5.78,0,0,0,2.72,2.78,7.46,7.46,0,0,0,4.18.71l.87-.11.86-.1-.18.85-.18.85a5.92,5.92,0,0,0,.76,4.41,5.13,5.13,0,0,0,3.13,2.29,4.85,4.85,0,0,0,3.16-.44,6,6,0,0,0,2.49-2.34,1.22,1.22,0,0,1,.76-.58,1.25,1.25,0,0,1,1.53.9,1.25,1.25,0,0,1-.13.94,8.51,8.51,0,0,1-3,3A7.73,7.73,0,0,1,887.1,567Z"/><path class="cls-3" d="M441.46,836.5a2.94,2.94,0,0,1-1.42,2.36,6.49,6.49,0,0,1-6.86,0,2.68,2.68,0,0,1,0-4.73,6.49,6.49,0,0,1,6.86,0A3,3,0,0,1,441.46,836.5Z"/><path class="cls-3" d="M451.94,850.32a4.48,4.48,0,0,1-1.8,3.48,7.31,7.31,0,0,1-8.71,0,4.24,4.24,0,0,1,0-6.95,7.31,7.31,0,0,1,8.71,0A4.48,4.48,0,0,1,451.94,850.32Z"/><path class="cls-3" d="M375,882.86a7.64,7.64,0,0,1-3.08,5.93,12.5,12.5,0,0,1-14.89,0,7.26,7.26,0,0,1,0-11.87,12.54,12.54,0,0,1,14.89,0A7.65,7.65,0,0,1,375,882.86Z"/><path class="cls-1" d="M673,632.25H654.48a1.24,1.24,0,0,1-.88-.37,1.22,1.22,0,0,1-.37-.88,1.21,1.21,0,0,1,.37-.88,1.24,1.24,0,0,1,.88-.37H673a1.25,1.25,0,1,1,0,2.5Z"/><path class="cls-1" d="M760.68,579.29h-11a1.25,1.25,0,0,1-1.25-1.25,1.26,1.26,0,0,1,1.25-1.25h11a1.26,1.26,0,0,1,1.25,1.25,1.25,1.25,0,0,1-1.25,1.25Z"/><path class="cls-1" d="M695.32,541.16a1.22,1.22,0,0,1-.46-.09,1.19,1.19,0,0,1-.41-.26l-1.87-1.8-1.86-1.8a1.26,1.26,0,0,1,0-1.77,1.2,1.2,0,0,1,.87-.38,1.21,1.21,0,0,1,.89.35l1.87,1.8,1.87,1.8a1.31,1.31,0,0,1,.38.88,1.27,1.27,0,0,1-.35.89,1.4,1.4,0,0,1-.42.28A1.15,1.15,0,0,1,695.32,541.16Z"/><path class="cls-12" d="M267.11,333.05h-6.75a1.27,1.27,0,0,1-.88-.36,1.26,1.26,0,0,1,.88-2.14h6.75a1.21,1.21,0,0,1,.88.37,1.25,1.25,0,0,1-.88,2.13Z"/><path class="cls-12" d="M330.13,362.32h-21a1.24,1.24,0,0,1-.88-.37,1.23,1.23,0,0,1,0-1.76,1.24,1.24,0,0,1,.88-.37h21a1.22,1.22,0,0,1,.88.37,1.23,1.23,0,0,1,0,1.76A1.22,1.22,0,0,1,330.13,362.32Z"/><path class="cls-12" d="M300.11,309.82a1.19,1.19,0,0,1-.37-.06,1,1,0,0,1-.35-.17,1.23,1.23,0,0,1-.51-.81,1.26,1.26,0,0,1,.21-.93l1.08-1.52,1.08-1.53a1.25,1.25,0,0,1,1.74-.3,1.26,1.26,0,0,1,.3,1.75l-1.08,1.52-1.08,1.52a1.22,1.22,0,0,1-.45.4A1.25,1.25,0,0,1,300.11,309.82Z"/><path class="cls-12" d="M112.54,473.66a1.25,1.25,0,0,1-.75-.25,1.22,1.22,0,0,1-.45-.67,1.25,1.25,0,0,1,.12-.95,1.2,1.2,0,0,1,.75-.58l8.6-2.38,8.61-2.37a1.24,1.24,0,0,1,1.53.87,1.24,1.24,0,0,1-.11.95,1.26,1.26,0,0,1-.76.59l-8.6,2.37-8.61,2.38-.16,0Z"/><path class="cls-12" d="M155.09,430.93a1.3,1.3,0,0,1-.72-.22,1.26,1.26,0,0,1-.46-.62,1.2,1.2,0,0,1,.05-.95,1.27,1.27,0,0,1,.72-.64l6.6-2.28,6.59-2.28a1.23,1.23,0,0,1,1.59.77,1.2,1.2,0,0,1-.05,1,1.23,1.23,0,0,1-.72.64l-6.6,2.28-6.59,2.29-.21.05Z"/><path class="cls-12" d="M124.43,418.08l-.27,0-.27-.1-2.2-1.06-2.2-1.05a1.29,1.29,0,0,1-.64-.72,1.21,1.21,0,0,1,.05-.95,1.26,1.26,0,0,1,.72-.64,1.21,1.21,0,0,1,.95.05l2.2,1.06,2.2,1.06a1.2,1.2,0,0,1,.64.71,1.24,1.24,0,0,1-.52,1.48A1.27,1.27,0,0,1,124.43,418.08Z"/><path class="cls-2" d="M447.81,172.1l-17.95,20.84-17.94,20.85,20.3,17.48,20.31,17.48,44.25,4.2,44.24,4.2a2,2,0,0,0,1.5-3.52l-47.35-40.77Z"/><path class="cls-7" d="M447.48,172.61l-20.92-17.86L405.63,136.9l-17.39,20.38-17.39,20.38-4,44.27-4,44.26a2,2,0,0,0,3.53,1.49l40.56-47.54Z"/><path class="cls-7" d="M447.62,171.92l20.84,18,20.85,17.94,17.48-20.3,17.48-20.31,4.2-44.24,4.21-44.25a2,2,0,0,0-3.53-1.5l-40.76,47.35Z"/><path class="cls-8" d="M447.12,172.49l17.94-20.84L483,130.8,462.7,113.32,442.4,95.84l-44.25-4.2-44.25-4.2a1.94,1.94,0,0,0-2,1.21A2,2,0,0,0,352.4,91l47.36,40.77Z"/><path class="cls-4" d="M452.89,250.28a1.23,1.23,0,0,1-.85-.34,1.26,1.26,0,0,1-.4-.82l-2.86-38.29-2.86-38.29a1.25,1.25,0,0,1,1.15-1.34,1.29,1.29,0,0,1,.91.31,1.23,1.23,0,0,1,.43.85l2.86,38.29,2.87,38.28a1.26,1.26,0,0,1-.3.91,1.24,1.24,0,0,1-.86.43h-.09Z"/><path class="cls-4" d="M447.62,173.17a1.22,1.22,0,0,1-.85-.33,1.31,1.31,0,0,1-.4-.82,1.26,1.26,0,0,1,.3-.91,1.2,1.2,0,0,1,.85-.43l38.29-2.87L524.1,165a1.22,1.22,0,0,1,.91.3,1.28,1.28,0,0,1,.43.85,1.22,1.22,0,0,1-.3.91,1.23,1.23,0,0,1-.85.43L486,170.31l-38.29,2.86h-.09Z"/><path class="cls-4" d="M447.12,173.74a1.22,1.22,0,0,1-.85-.33,1.31,1.31,0,0,1-.4-.82L443,134.3,440.15,96a1.25,1.25,0,0,1,2.49-.19l2.86,38.29,2.87,38.29a1.25,1.25,0,0,1-1.16,1.34h-.09Z"/><path class="cls-4" d="M370.76,179.87a1.25,1.25,0,0,1-1.25-1.15,1.27,1.27,0,0,1,1.15-1.35l38.28-3,38.27-3a1.27,1.27,0,0,1,.91.3,1.24,1.24,0,0,1,.44.85,1.25,1.25,0,0,1-1.15,1.34l-38.28,3-38.27,3h-.1Z"/><path class="cls-4" d="M489.31,209.06a1.2,1.2,0,0,1-.42-.07,1.26,1.26,0,0,1-.39-.22l-41.84-35.46-41.84-35.46a1.21,1.21,0,0,1-.43-.85,1.23,1.23,0,0,1,.29-.91,1.25,1.25,0,0,1,1.76-.15l41.84,35.46,41.84,35.46a1.27,1.27,0,0,1,.44.85,1.24,1.24,0,0,1-.3.91,1.13,1.13,0,0,1-.43.33A1.19,1.19,0,0,1,489.31,209.06Z"/><path class="cls-4" d="M411.92,215a1.35,1.35,0,0,1-.82-.3,1.3,1.3,0,0,1-.43-.86,1.23,1.23,0,0,1,.3-.9l35.5-41.44L482,130.1a1.27,1.27,0,0,1,.86-.44,1.25,1.25,0,0,1,1.34,1.15,1.24,1.24,0,0,1-.3.91l-35.5,41.44-35.5,41.44a1.24,1.24,0,0,1-.44.33A1.3,1.3,0,0,1,411.92,215Z"/><path class="cls-8" d="M790.55,869.73a12.5,12.5,0,1,1-3.66-8.84A12.45,12.45,0,0,1,790.55,869.73Z"/><path class="cls-8" d="M492.92,633.11,504.4,651l11.48,17.85a8.69,8.69,0,0,1,1.47,4,8.82,8.82,0,0,1-.62,4.23L510,693.31l-6.71,16.26a1.78,1.78,0,0,0,2.65,2.15l36.46-23.94,36.46-23.94a6.83,6.83,0,0,0,1.8-9.5l-18.27-26.81-18.27-26.81-25.61,16.19Z"/><path class="cls-8" d="M419.64,622.75l9.93,18.41,9.93,18.4a8.78,8.78,0,0,1,0,8.29l-8.35,15.48-8.36,15.49a1.78,1.78,0,0,0,2.42,2.41l36.3-19.41,36.3-19.41a6.84,6.84,0,0,0,2.77-9.26L485.17,624.6l-15.4-28.55L444.7,609.4Z"/><path class="cls-7" d="M750.58,923l-8.89.24-8.88.23a12,12,0,0,1-12.33-13l2.43-30.33,2.43-30.32,14.06-.37,14.07-.38,4.35,30.08,4.36,30.08A12,12,0,0,1,750.58,923Z"/><polygon class="cls-6" points="725.35 849.84 741.25 862.13 757.15 874.41 755.32 861.75 753.49 849.09 739.42 849.47 725.35 849.84"/><path class="cls-3" d="M796.63,848l-55.08,1.46-55.09,1.47a6.25,6.25,0,0,1-6.41-6.09h0A56.42,56.42,0,0,1,735,786.93l4.92-.13,4.93-.13a56.42,56.42,0,0,1,57.91,54.91h0a6.25,6.25,0,0,1-6.09,6.42Z"/><path class="cls-6" d="M735,827.47a1.23,1.23,0,0,1-1.25-1.25v-36l-13,10.16-13,10.16a1.24,1.24,0,0,1-.93.26,1.26,1.26,0,0,1-.83-.47,1.24,1.24,0,0,1,.21-1.75l13.2-10.36,13.2-10.35a2,2,0,0,1,2.17-.55,2,2,0,0,1,1.39,1.95v36.94a1.25,1.25,0,0,1-.37.89A1.27,1.27,0,0,1,735,827.47Z"/><path class="cls-6" d="M763.35,816.73a1.29,1.29,0,0,1-.87-.35l-14.36-13.8-14.36-13.81.29-.95.3-1,.59.14.6.15,15.3,4.41,15.3,4.41a1.25,1.25,0,0,1-.69,2.41l-12.92-3.73-12.91-3.72,12.3,11.82,12.29,11.82a1.27,1.27,0,0,1,0,1.77,1.4,1.4,0,0,1-.42.28A1.18,1.18,0,0,1,763.35,816.73Z"/></svg>